SplineFontDB: 3.0
FontName: RationalTextDEMO-Light
FullName: Rational Text DEMO Light
FamilyName: Rational Text DEMO Light
Weight: Light
Copyright: Copyright \\(c\\) 2016 by Ren_ Bieder. All rights reserved.
Version: 001.000
ItalicAngle: 0
UnderlinePosition: -100
UnderlineWidth: 50
Ascent: 800
Descent: 200
InvalidEm: 0
sfntRevision: 0x00010000
LayerCount: 2
Layer: 0 0 "Back" 1
Layer: 1 0 "Fore" 0
XUID: [1021 525 1670860158 1064574]
StyleMap: 0x0040
FSType: 8
OS2Version: 3
OS2_WeightWidthSlopeOnly: 0
OS2_UseTypoMetrics: 0
CreationTime: 1465402463
ModificationTime: 1529960384
PfmFamily: 81
TTFWeight: 350
TTFWidth: 5
LineGap: 198
VLineGap: 0
Panose: 0 0 4 0 0 0 0 0 0 0
OS2TypoAscent: 800
OS2TypoAOffset: 0
OS2TypoDescent: -250
OS2TypoDOffset: 0
OS2TypoLinegap: 198
OS2WinAscent: 888
OS2WinAOffset: 0
OS2WinDescent: 250
OS2WinDOffset: 0
HheadAscent: 850
HheadAOffset: 0
HheadDescent: -250
HheadDOffset: 0
OS2SubXSize: 650
OS2SubYSize: 600
OS2SubXOff: 0
OS2SubYOff: 75
OS2SupXSize: 650
OS2SupYSize: 600
OS2SupXOff: 0
OS2SupYOff: 350
OS2StrikeYSize: 50
OS2StrikeYPos: 300
OS2CapHeight: 700
OS2XHeight: 500
OS2Vendor: 'UKWN'
OS2CodePages: 00000093.00000000
OS2UnicodeRanges: 00000007.00000023.00000000.00000000
Lookup: 1 0 0 "'aalt' Access All Alternates in Latin lookup 0" { "'aalt' Access All Alternates in Latin lookup 0 subtable"  } ['aalt' ('DFLT' <'dflt' > 'latn' <'AZE ' 'CRT ' 'KAZ ' 'MOL ' 'ROM ' 'TAT ' 'TRK ' 'dflt' > ) ]
Lookup: 3 0 0 "'aalt' Access All Alternates in Latin lookup 1" { "'aalt' Access All Alternates in Latin lookup 1 subtable"  } ['aalt' ('DFLT' <'dflt' > 'latn' <'AZE ' 'CRT ' 'KAZ ' 'MOL ' 'ROM ' 'TAT ' 'TRK ' 'dflt' > ) ]
Lookup: 6 0 0 "'ccmp' Glyph Composition/Decomposition in Latin lookup 2" { "'ccmp' Glyph Composition/Decomposition in Latin lookup 2 contextual 0"  "'ccmp' Glyph Composition/Decomposition in Latin lookup 2 contextual 1"  } ['ccmp' ('latn' <'dflt' > ) ]

StartChar: .notdef
Encoding: 65536 -1 0
Width: 600
Flags: MW
HStem: 0 44<122 477 122 549> 656 44<119 480 119 119>
VStem: 49 44<74 74 74 622> 505 44<75 621 621 621>
LayerCount: 2
Fore
SplineSet
49 0 m 1
 49 700 l 1
 549 700 l 1
 549 0 l 1
 49 0 l 1
300 385 m 1
 480 656 l 1
 119 656 l 1
 300 385 l 1
93 74 m 1
 275 348 l 1
 93 622 l 1
 93 74 l 1
505 75 m 1
 505 621 l 1
 324 348 l 1
 505 75 l 1
122 44 m 1
 477 44 l 1
 300 311 l 1
 122 44 l 1
EndSplineSet
EndChar

StartChar: A
Encoding: 65 65 1
Width: 744
GlyphClass: 2
Flags: MW
HStem: 0 21G<45 114 45 45 630 699 630 630> 195 54<217 527 217 549 195 527> 621 79<372 372> 680 20G<343 402 402 402>
VStem: 45 654<0 0>
LayerCount: 2
Fore
SplineSet
630 0 m 1xd8
 549 195 l 1
 195 195 l 1
 114 0 l 1
 45 0 l 1
 343 700 l 1
 402 700 l 1
 699 0 l 1
 630 0 l 1xd8
217 249 m 1
 527 249 l 1
 372 621 l 1xe8
 217 249 l 1
EndSplineSet
Substitution2: "Single Substitution lookup 44 subtable" ordfeminine
Substitution2: "'c2sc' Capitals to Small Capitals in Latin lookup 18 subtable" a.sc
AlternateSubs2: "'aalt' Access All Alternates in Latin lookup 1 subtable" ordfeminine a.sc
EndChar

StartChar: Aacute
Encoding: 193 193 2
Width: 1727
GlyphClass: 2
Flags: MW
HStem: 32 182<132 379 290 379 379 423.5 584 782 835 869 1087 1121> 240 233<1287 1349> 244 100<619 772 619 782 619 772> 244 225<324 382 324 382 619 782> 374 95<619 772> 498 170<290 379 290 290 584 584 584 782 835 835 835 867 1088 1088 1088 1121>
VStem: 132 158<214 498 214 668> 324 165<323.5 388.5 323.5 469 323.5 469> 526 58<314.5 397.5> 782 53<214 244 244 244 469 498 214 498> 869 218<214 442 214 442> 1121 58<313.5 399 313.5 498> 1216 205<322.5 390> 1456 139<313.5 399>
LayerCount: 2
Fore
SplineSet
1627 0 m 1x87f4
 1627 700 l 1
 100 700 l 1
 100 0 l 1
 1627 0 l 1x87f4
132 32 m 1
 132 668 l 1
 1595 668 l 1
 1595 32 l 1
 132 32 l 1
1456 356 m 0
 1456 442 1401 503 1318 503 c 0
 1235 503 1179 442 1179 356 c 0
 1179 271 1235 211 1318 211 c 0
 1401 211 1456 271 1456 356 c 0
526 356 m 0
 526 439 468 498 379 498 c 2
 290 498 l 1
 290 214 l 1
 379 214 l 2
 468 214 526 273 526 356 c 0
619 469 m 1x0840
 782 469 l 1x0840
 782 498 l 1
 584 498 l 1
 584 214 l 1
 782 214 l 1x84c0
 782 244 l 1
 619 244 l 1
 619 344 l 1
 772 344 l 1x2040
 772 374 l 1
 619 374 l 1
 619 469 l 1x0840
1121 498 m 1x8470
 1088 498 l 1
 977 362 l 1
 867 498 l 1
 835 498 l 1
 835 214 l 1
 869 214 l 1
 869 442 l 1
 971 318 l 1
 985 318 l 1
 1087 442 l 1
 1087 214 l 1
 1121 214 l 1
 1121 498 l 1x8470
1216 356 m 0x4008
 1216 424 1256 473 1318 473 c 0
 1380 473 1421 424 1421 356 c 0
 1421 289 1380 240 1318 240 c 0
 1256 240 1216 289 1216 356 c 0x4008
489 356 m 0x11
 489 291 449 244 382 244 c 2
 324 244 l 1
 324 469 l 1
 382 469 l 2
 449 469 489 421 489 356 c 0x11
EndSplineSet
Substitution2: "'c2sc' Capitals to Small Capitals in Latin lookup 18 subtable" aacute.sc
Substitution2: "'aalt' Access All Alternates in Latin lookup 0 subtable" aacute.sc
EndChar

StartChar: Abreve
Encoding: 258 258 3
Width: 1727
GlyphClass: 2
Flags: MW
HStem: 32 182<132 379 290 379 379 423.5 584 782 835 869 1087 1121> 240 233<1287 1349> 244 100<619 772 619 782 619 772> 244 225<324 382 324 382 619 782> 374 95<619 772> 498 170<290 379 290 290 584 584 584 782 835 835 835 867 1088 1088 1088 1121>
VStem: 132 158<214 498 214 668> 324 165<323.5 388.5 323.5 469 323.5 469> 526 58<314.5 397.5> 782 53<214 244 244 244 469 498 214 498> 869 218<214 442 214 442> 1121 58<313.5 399 313.5 498> 1216 205<322.5 390> 1456 139<313.5 399>
LayerCount: 2
Fore
SplineSet
1627 0 m 1x87f4
 1627 700 l 1
 100 700 l 1
 100 0 l 1
 1627 0 l 1x87f4
132 32 m 1
 132 668 l 1
 1595 668 l 1
 1595 32 l 1
 132 32 l 1
1456 356 m 0
 1456 442 1401 503 1318 503 c 0
 1235 503 1179 442 1179 356 c 0
 1179 271 1235 211 1318 211 c 0
 1401 211 1456 271 1456 356 c 0
526 356 m 0
 526 439 468 498 379 498 c 2
 290 498 l 1
 290 214 l 1
 379 214 l 2
 468 214 526 273 526 356 c 0
619 469 m 1x0840
 782 469 l 1x0840
 782 498 l 1
 584 498 l 1
 584 214 l 1
 782 214 l 1x84c0
 782 244 l 1
 619 244 l 1
 619 344 l 1
 772 344 l 1x2040
 772 374 l 1
 619 374 l 1
 619 469 l 1x0840
1121 498 m 1x8470
 1088 498 l 1
 977 362 l 1
 867 498 l 1
 835 498 l 1
 835 214 l 1
 869 214 l 1
 869 442 l 1
 971 318 l 1
 985 318 l 1
 1087 442 l 1
 1087 214 l 1
 1121 214 l 1
 1121 498 l 1x8470
1216 356 m 0x4008
 1216 424 1256 473 1318 473 c 0
 1380 473 1421 424 1421 356 c 0
 1421 289 1380 240 1318 240 c 0
 1256 240 1216 289 1216 356 c 0x4008
489 356 m 0x11
 489 291 449 244 382 244 c 2
 324 244 l 1
 324 469 l 1
 382 469 l 2
 449 469 489 421 489 356 c 0x11
EndSplineSet
Substitution2: "'c2sc' Capitals to Small Capitals in Latin lookup 18 subtable" abreve.sc
Substitution2: "'aalt' Access All Alternates in Latin lookup 0 subtable" abreve.sc
EndChar

StartChar: Acircumflex
Encoding: 194 194 4
Width: 1727
GlyphClass: 2
Flags: MW
HStem: 32 182<132 379 290 379 379 423.5 584 782 835 869 1087 1121> 240 233<1287 1349> 244 100<619 772 619 782 619 772> 244 225<324 382 324 382 619 782> 374 95<619 772> 498 170<290 379 290 290 584 584 584 782 835 835 835 867 1088 1088 1088 1121>
VStem: 132 158<214 498 214 668> 324 165<323.5 388.5 323.5 469 323.5 469> 526 58<314.5 397.5> 782 53<214 244 244 244 469 498 214 498> 869 218<214 442 214 442> 1121 58<313.5 399 313.5 498> 1216 205<322.5 390> 1456 139<313.5 399>
LayerCount: 2
Fore
SplineSet
1627 0 m 1x87f4
 1627 700 l 1
 100 700 l 1
 100 0 l 1
 1627 0 l 1x87f4
132 32 m 1
 132 668 l 1
 1595 668 l 1
 1595 32 l 1
 132 32 l 1
1456 356 m 0
 1456 442 1401 503 1318 503 c 0
 1235 503 1179 442 1179 356 c 0
 1179 271 1235 211 1318 211 c 0
 1401 211 1456 271 1456 356 c 0
526 356 m 0
 526 439 468 498 379 498 c 2
 290 498 l 1
 290 214 l 1
 379 214 l 2
 468 214 526 273 526 356 c 0
619 469 m 1x0840
 782 469 l 1x0840
 782 498 l 1
 584 498 l 1
 584 214 l 1
 782 214 l 1x84c0
 782 244 l 1
 619 244 l 1
 619 344 l 1
 772 344 l 1x2040
 772 374 l 1
 619 374 l 1
 619 469 l 1x0840
1121 498 m 1x8470
 1088 498 l 1
 977 362 l 1
 867 498 l 1
 835 498 l 1
 835 214 l 1
 869 214 l 1
 869 442 l 1
 971 318 l 1
 985 318 l 1
 1087 442 l 1
 1087 214 l 1
 1121 214 l 1
 1121 498 l 1x8470
1216 356 m 0x4008
 1216 424 1256 473 1318 473 c 0
 1380 473 1421 424 1421 356 c 0
 1421 289 1380 240 1318 240 c 0
 1256 240 1216 289 1216 356 c 0x4008
489 356 m 0x11
 489 291 449 244 382 244 c 2
 324 244 l 1
 324 469 l 1
 382 469 l 2
 449 469 489 421 489 356 c 0x11
EndSplineSet
Substitution2: "'c2sc' Capitals to Small Capitals in Latin lookup 18 subtable" acircumflex.sc
Substitution2: "'aalt' Access All Alternates in Latin lookup 0 subtable" acircumflex.sc
EndChar

StartChar: Adieresis
Encoding: 196 196 5
Width: 1727
GlyphClass: 2
Flags: MW
HStem: 32 182<132 379 290 379 379 423.5 584 782 835 869 1087 1121> 240 233<1287 1349> 244 100<619 772 619 782 619 772> 244 225<324 382 324 382 619 782> 374 95<619 772> 498 170<290 379 290 290 584 584 584 782 835 835 835 867 1088 1088 1088 1121>
VStem: 132 158<214 498 214 668> 324 165<323.5 388.5 323.5 469 323.5 469> 526 58<314.5 397.5> 782 53<214 244 244 244 469 498 214 498> 869 218<214 442 214 442> 1121 58<313.5 399 313.5 498> 1216 205<322.5 390> 1456 139<313.5 399>
LayerCount: 2
Fore
SplineSet
1627 0 m 1x87f4
 1627 700 l 1
 100 700 l 1
 100 0 l 1
 1627 0 l 1x87f4
132 32 m 1
 132 668 l 1
 1595 668 l 1
 1595 32 l 1
 132 32 l 1
1456 356 m 0
 1456 442 1401 503 1318 503 c 0
 1235 503 1179 442 1179 356 c 0
 1179 271 1235 211 1318 211 c 0
 1401 211 1456 271 1456 356 c 0
526 356 m 0
 526 439 468 498 379 498 c 2
 290 498 l 1
 290 214 l 1
 379 214 l 2
 468 214 526 273 526 356 c 0
619 469 m 1x0840
 782 469 l 1x0840
 782 498 l 1
 584 498 l 1
 584 214 l 1
 782 214 l 1x84c0
 782 244 l 1
 619 244 l 1
 619 344 l 1
 772 344 l 1x2040
 772 374 l 1
 619 374 l 1
 619 469 l 1x0840
1121 498 m 1x8470
 1088 498 l 1
 977 362 l 1
 867 498 l 1
 835 498 l 1
 835 214 l 1
 869 214 l 1
 869 442 l 1
 971 318 l 1
 985 318 l 1
 1087 442 l 1
 1087 214 l 1
 1121 214 l 1
 1121 498 l 1x8470
1216 356 m 0x4008
 1216 424 1256 473 1318 473 c 0
 1380 473 1421 424 1421 356 c 0
 1421 289 1380 240 1318 240 c 0
 1256 240 1216 289 1216 356 c 0x4008
489 356 m 0x11
 489 291 449 244 382 244 c 2
 324 244 l 1
 324 469 l 1
 382 469 l 2
 449 469 489 421 489 356 c 0x11
EndSplineSet
Substitution2: "'c2sc' Capitals to Small Capitals in Latin lookup 18 subtable" adieresis.sc
Substitution2: "'aalt' Access All Alternates in Latin lookup 0 subtable" adieresis.sc
EndChar

StartChar: Agrave
Encoding: 192 192 6
Width: 1727
GlyphClass: 2
Flags: MW
HStem: 32 182<132 379 290 379 379 423.5 584 782 835 869 1087 1121> 240 233<1287 1349> 244 100<619 772 619 782 619 772> 244 225<324 382 324 382 619 782> 374 95<619 772> 498 170<290 379 290 290 584 584 584 782 835 835 835 867 1088 1088 1088 1121>
VStem: 132 158<214 498 214 668> 324 165<323.5 388.5 323.5 469 323.5 469> 526 58<314.5 397.5> 782 53<214 244 244 244 469 498 214 498> 869 218<214 442 214 442> 1121 58<313.5 399 313.5 498> 1216 205<322.5 390> 1456 139<313.5 399>
LayerCount: 2
Fore
SplineSet
1627 0 m 1x87f4
 1627 700 l 1
 100 700 l 1
 100 0 l 1
 1627 0 l 1x87f4
132 32 m 1
 132 668 l 1
 1595 668 l 1
 1595 32 l 1
 132 32 l 1
1456 356 m 0
 1456 442 1401 503 1318 503 c 0
 1235 503 1179 442 1179 356 c 0
 1179 271 1235 211 1318 211 c 0
 1401 211 1456 271 1456 356 c 0
526 356 m 0
 526 439 468 498 379 498 c 2
 290 498 l 1
 290 214 l 1
 379 214 l 2
 468 214 526 273 526 356 c 0
619 469 m 1x0840
 782 469 l 1x0840
 782 498 l 1
 584 498 l 1
 584 214 l 1
 782 214 l 1x84c0
 782 244 l 1
 619 244 l 1
 619 344 l 1
 772 344 l 1x2040
 772 374 l 1
 619 374 l 1
 619 469 l 1x0840
1121 498 m 1x8470
 1088 498 l 1
 977 362 l 1
 867 498 l 1
 835 498 l 1
 835 214 l 1
 869 214 l 1
 869 442 l 1
 971 318 l 1
 985 318 l 1
 1087 442 l 1
 1087 214 l 1
 1121 214 l 1
 1121 498 l 1x8470
1216 356 m 0x4008
 1216 424 1256 473 1318 473 c 0
 1380 473 1421 424 1421 356 c 0
 1421 289 1380 240 1318 240 c 0
 1256 240 1216 289 1216 356 c 0x4008
489 356 m 0x11
 489 291 449 244 382 244 c 2
 324 244 l 1
 324 469 l 1
 382 469 l 2
 449 469 489 421 489 356 c 0x11
EndSplineSet
Substitution2: "'c2sc' Capitals to Small Capitals in Latin lookup 18 subtable" agrave.sc
Substitution2: "'aalt' Access All Alternates in Latin lookup 0 subtable" agrave.sc
EndChar

StartChar: Amacron
Encoding: 256 256 7
Width: 1727
GlyphClass: 2
Flags: MW
HStem: 32 182<132 379 290 379 379 423.5 584 782 835 869 1087 1121> 240 233<1287 1349> 244 100<619 772 619 782 619 772> 244 225<324 382 324 382 619 782> 374 95<619 772> 498 170<290 379 290 290 584 584 584 782 835 835 835 867 1088 1088 1088 1121>
VStem: 132 158<214 498 214 668> 324 165<323.5 388.5 323.5 469 323.5 469> 526 58<314.5 397.5> 782 53<214 244 244 244 469 498 214 498> 869 218<214 442 214 442> 1121 58<313.5 399 313.5 498> 1216 205<322.5 390> 1456 139<313.5 399>
LayerCount: 2
Fore
SplineSet
1627 0 m 1x87f4
 1627 700 l 1
 100 700 l 1
 100 0 l 1
 1627 0 l 1x87f4
132 32 m 1
 132 668 l 1
 1595 668 l 1
 1595 32 l 1
 132 32 l 1
1456 356 m 0
 1456 442 1401 503 1318 503 c 0
 1235 503 1179 442 1179 356 c 0
 1179 271 1235 211 1318 211 c 0
 1401 211 1456 271 1456 356 c 0
526 356 m 0
 526 439 468 498 379 498 c 2
 290 498 l 1
 290 214 l 1
 379 214 l 2
 468 214 526 273 526 356 c 0
619 469 m 1x0840
 782 469 l 1x0840
 782 498 l 1
 584 498 l 1
 584 214 l 1
 782 214 l 1x84c0
 782 244 l 1
 619 244 l 1
 619 344 l 1
 772 344 l 1x2040
 772 374 l 1
 619 374 l 1
 619 469 l 1x0840
1121 498 m 1x8470
 1088 498 l 1
 977 362 l 1
 867 498 l 1
 835 498 l 1
 835 214 l 1
 869 214 l 1
 869 442 l 1
 971 318 l 1
 985 318 l 1
 1087 442 l 1
 1087 214 l 1
 1121 214 l 1
 1121 498 l 1x8470
1216 356 m 0x4008
 1216 424 1256 473 1318 473 c 0
 1380 473 1421 424 1421 356 c 0
 1421 289 1380 240 1318 240 c 0
 1256 240 1216 289 1216 356 c 0x4008
489 356 m 0x11
 489 291 449 244 382 244 c 2
 324 244 l 1
 324 469 l 1
 382 469 l 2
 449 469 489 421 489 356 c 0x11
EndSplineSet
Substitution2: "'c2sc' Capitals to Small Capitals in Latin lookup 18 subtable" amacron.sc
Substitution2: "'aalt' Access All Alternates in Latin lookup 0 subtable" amacron.sc
EndChar

StartChar: Aogonek
Encoding: 260 260 8
Width: 1727
GlyphClass: 2
Flags: MW
HStem: 32 182<132 379 290 379 379 423.5 584 782 835 869 1087 1121> 240 233<1287 1349> 244 100<619 772 619 782 619 772> 244 225<324 382 324 382 619 782> 374 95<619 772> 498 170<290 379 290 290 584 584 584 782 835 835 835 867 1088 1088 1088 1121>
VStem: 132 158<214 498 214 668> 324 165<323.5 388.5 323.5 469 323.5 469> 526 58<314.5 397.5> 782 53<214 244 244 244 469 498 214 498> 869 218<214 442 214 442> 1121 58<313.5 399 313.5 498> 1216 205<322.5 390> 1456 139<313.5 399>
LayerCount: 2
Fore
SplineSet
1627 0 m 1x87f4
 1627 700 l 1
 100 700 l 1
 100 0 l 1
 1627 0 l 1x87f4
132 32 m 1
 132 668 l 1
 1595 668 l 1
 1595 32 l 1
 132 32 l 1
1456 356 m 0
 1456 442 1401 503 1318 503 c 0
 1235 503 1179 442 1179 356 c 0
 1179 271 1235 211 1318 211 c 0
 1401 211 1456 271 1456 356 c 0
526 356 m 0
 526 439 468 498 379 498 c 2
 290 498 l 1
 290 214 l 1
 379 214 l 2
 468 214 526 273 526 356 c 0
619 469 m 1x0840
 782 469 l 1x0840
 782 498 l 1
 584 498 l 1
 584 214 l 1
 782 214 l 1x84c0
 782 244 l 1
 619 244 l 1
 619 344 l 1
 772 344 l 1x2040
 772 374 l 1
 619 374 l 1
 619 469 l 1x0840
1121 498 m 1x8470
 1088 498 l 1
 977 362 l 1
 867 498 l 1
 835 498 l 1
 835 214 l 1
 869 214 l 1
 869 442 l 1
 971 318 l 1
 985 318 l 1
 1087 442 l 1
 1087 214 l 1
 1121 214 l 1
 1121 498 l 1x8470
1216 356 m 0x4008
 1216 424 1256 473 1318 473 c 0
 1380 473 1421 424 1421 356 c 0
 1421 289 1380 240 1318 240 c 0
 1256 240 1216 289 1216 356 c 0x4008
489 356 m 0x11
 489 291 449 244 382 244 c 2
 324 244 l 1
 324 469 l 1
 382 469 l 2
 449 469 489 421 489 356 c 0x11
EndSplineSet
Substitution2: "'c2sc' Capitals to Small Capitals in Latin lookup 18 subtable" aogonek.sc
Substitution2: "'aalt' Access All Alternates in Latin lookup 0 subtable" aogonek.sc
EndChar

StartChar: Aring
Encoding: 197 197 9
Width: 1727
GlyphClass: 2
Flags: MW
HStem: 32 182<132 379 290 379 379 423.5 584 782 835 869 1087 1121> 240 233<1287 1349> 244 100<619 772 619 782 619 772> 244 225<324 382 324 382 619 782> 374 95<619 772> 498 170<290 379 290 290 584 584 584 782 835 835 835 867 1088 1088 1088 1121>
VStem: 132 158<214 498 214 668> 324 165<323.5 388.5 323.5 469 323.5 469> 526 58<314.5 397.5> 782 53<214 244 244 244 469 498 214 498> 869 218<214 442 214 442> 1121 58<313.5 399 313.5 498> 1216 205<322.5 390> 1456 139<313.5 399>
LayerCount: 2
Fore
SplineSet
1627 0 m 1x87f4
 1627 700 l 1
 100 700 l 1
 100 0 l 1
 1627 0 l 1x87f4
132 32 m 1
 132 668 l 1
 1595 668 l 1
 1595 32 l 1
 132 32 l 1
1456 356 m 0
 1456 442 1401 503 1318 503 c 0
 1235 503 1179 442 1179 356 c 0
 1179 271 1235 211 1318 211 c 0
 1401 211 1456 271 1456 356 c 0
526 356 m 0
 526 439 468 498 379 498 c 2
 290 498 l 1
 290 214 l 1
 379 214 l 2
 468 214 526 273 526 356 c 0
619 469 m 1x0840
 782 469 l 1x0840
 782 498 l 1
 584 498 l 1
 584 214 l 1
 782 214 l 1x84c0
 782 244 l 1
 619 244 l 1
 619 344 l 1
 772 344 l 1x2040
 772 374 l 1
 619 374 l 1
 619 469 l 1x0840
1121 498 m 1x8470
 1088 498 l 1
 977 362 l 1
 867 498 l 1
 835 498 l 1
 835 214 l 1
 869 214 l 1
 869 442 l 1
 971 318 l 1
 985 318 l 1
 1087 442 l 1
 1087 214 l 1
 1121 214 l 1
 1121 498 l 1x8470
1216 356 m 0x4008
 1216 424 1256 473 1318 473 c 0
 1380 473 1421 424 1421 356 c 0
 1421 289 1380 240 1318 240 c 0
 1256 240 1216 289 1216 356 c 0x4008
489 356 m 0x11
 489 291 449 244 382 244 c 2
 324 244 l 1
 324 469 l 1
 382 469 l 2
 449 469 489 421 489 356 c 0x11
EndSplineSet
Substitution2: "'c2sc' Capitals to Small Capitals in Latin lookup 18 subtable" aring.sc
Substitution2: "'aalt' Access All Alternates in Latin lookup 0 subtable" aring.sc
EndChar

StartChar: Atilde
Encoding: 195 195 10
Width: 1727
GlyphClass: 2
Flags: MW
HStem: 32 182<132 379 290 379 379 423.5 584 782 835 869 1087 1121> 240 233<1287 1349> 244 100<619 772 619 782 619 772> 244 225<324 382 324 382 619 782> 374 95<619 772> 498 170<290 379 290 290 584 584 584 782 835 835 835 867 1088 1088 1088 1121>
VStem: 132 158<214 498 214 668> 324 165<323.5 388.5 323.5 469 323.5 469> 526 58<314.5 397.5> 782 53<214 244 244 244 469 498 214 498> 869 218<214 442 214 442> 1121 58<313.5 399 313.5 498> 1216 205<322.5 390> 1456 139<313.5 399>
LayerCount: 2
Fore
SplineSet
1627 0 m 1x87f4
 1627 700 l 1
 100 700 l 1
 100 0 l 1
 1627 0 l 1x87f4
132 32 m 1
 132 668 l 1
 1595 668 l 1
 1595 32 l 1
 132 32 l 1
1456 356 m 0
 1456 442 1401 503 1318 503 c 0
 1235 503 1179 442 1179 356 c 0
 1179 271 1235 211 1318 211 c 0
 1401 211 1456 271 1456 356 c 0
526 356 m 0
 526 439 468 498 379 498 c 2
 290 498 l 1
 290 214 l 1
 379 214 l 2
 468 214 526 273 526 356 c 0
619 469 m 1x0840
 782 469 l 1x0840
 782 498 l 1
 584 498 l 1
 584 214 l 1
 782 214 l 1x84c0
 782 244 l 1
 619 244 l 1
 619 344 l 1
 772 344 l 1x2040
 772 374 l 1
 619 374 l 1
 619 469 l 1x0840
1121 498 m 1x8470
 1088 498 l 1
 977 362 l 1
 867 498 l 1
 835 498 l 1
 835 214 l 1
 869 214 l 1
 869 442 l 1
 971 318 l 1
 985 318 l 1
 1087 442 l 1
 1087 214 l 1
 1121 214 l 1
 1121 498 l 1x8470
1216 356 m 0x4008
 1216 424 1256 473 1318 473 c 0
 1380 473 1421 424 1421 356 c 0
 1421 289 1380 240 1318 240 c 0
 1256 240 1216 289 1216 356 c 0x4008
489 356 m 0x11
 489 291 449 244 382 244 c 2
 324 244 l 1
 324 469 l 1
 382 469 l 2
 449 469 489 421 489 356 c 0x11
EndSplineSet
Substitution2: "'c2sc' Capitals to Small Capitals in Latin lookup 18 subtable" atilde.sc
Substitution2: "'aalt' Access All Alternates in Latin lookup 0 subtable" atilde.sc
EndChar

StartChar: AE
Encoding: 198 198 11
Width: 1095
GlyphClass: 2
Flags: MW
HStem: 0 57<614 1030 614 1030> 195 54<289 547 289 547 253 547> 336 56<614 1007 614 1007> 644 56<614 1030 614 614>
VStem: 547 67<57 195 195 195 249 336 392 633 633 633>
LayerCount: 2
Fore
SplineSet
1030 644 m 1
 614 644 l 1
 614 392 l 1
 1007 392 l 1
 1007 336 l 1
 614 336 l 1
 614 57 l 1
 1030 57 l 1
 1030 0 l 1
 547 0 l 1
 547 195 l 1
 253 195 l 1
 122 0 l 1
 45 0 l 1
 523 700 l 1
 1030 700 l 1
 1030 644 l 1
289 249 m 1
 547 249 l 1
 547 633 l 1
 289 249 l 1
EndSplineSet
Substitution2: "'c2sc' Capitals to Small Capitals in Latin lookup 18 subtable" ae.sc
Substitution2: "'aalt' Access All Alternates in Latin lookup 0 subtable" ae.sc
EndChar

StartChar: B
Encoding: 66 66 12
Width: 719
GlyphClass: 2
Flags: MW
HStem: 0 56<173 389 389 395> 334 56<173 377 377 392 173 377> 644 56<173 173 173 397>
VStem: 106 67<56 334 390 644> 548 66<489 557> 570 66<149 233>
LayerCount: 2
Fore
SplineSet
484 363 m 1xf4
 578 340 636 278 636 189 c 0xf4
 636 72 544 0 395 0 c 2
 106 0 l 1
 106 700 l 1
 403 700 l 2
 534 700 614 634 614 530 c 0xf8
 614 448 562 392 484 363 c 1xf4
173 644 m 1
 173 390 l 1
 377 390 l 2
 496 390 548 445 548 517 c 0xf8
 548 597 488 644 397 644 c 2
 173 644 l 1
389 56 m 2xf4
 489 56 570 101 570 197 c 0
 570 269 515 334 392 334 c 2
 173 334 l 1
 173 56 l 1
 389 56 l 2xf4
EndSplineSet
Substitution2: "'c2sc' Capitals to Small Capitals in Latin lookup 18 subtable" b.sc
Substitution2: "'aalt' Access All Alternates in Latin lookup 0 subtable" b.sc
EndChar

StartChar: C
Encoding: 67 67 13
Width: 769
GlyphClass: 2
Flags: MW
HStem: -10 57<322.5 463.5 322.5 484> 654 57<322.5 465.5>
VStem: 70 69<263.5 438.5 263.5 455.5>
LayerCount: 2
Fore
SplineSet
698 219 m 1
 668 77 565 -10 403 -10 c 0
 202 -10 70 142 70 351 c 0
 70 560 202 711 403 711 c 0
 565 711 670 623 699 475 c 1
 628 475 l 1
 605 587 528 654 403 654 c 0
 242 654 139 526 139 351 c 0
 139 176 242 47 403 47 c 0
 524 47 600 113 624 219 c 1
 698 219 l 1
EndSplineSet
Substitution2: "'c2sc' Capitals to Small Capitals in Latin lookup 18 subtable" c.sc
Substitution2: "'aalt' Access All Alternates in Latin lookup 0 subtable" c.sc
EndChar

StartChar: Cacute
Encoding: 262 262 14
Width: 1727
GlyphClass: 2
Flags: MW
HStem: 32 182<132 379 290 379 379 423.5 584 782 835 869 1087 1121> 240 233<1287 1349> 244 100<619 772 619 782 619 772> 244 225<324 382 324 382 619 782> 374 95<619 772> 498 170<290 379 290 290 584 584 584 782 835 835 835 867 1088 1088 1088 1121>
VStem: 132 158<214 498 214 668> 324 165<323.5 388.5 323.5 469 323.5 469> 526 58<314.5 397.5> 782 53<214 244 244 244 469 498 214 498> 869 218<214 442 214 442> 1121 58<313.5 399 313.5 498> 1216 205<322.5 390> 1456 139<313.5 399>
LayerCount: 2
Fore
SplineSet
1627 0 m 1x87f4
 1627 700 l 1
 100 700 l 1
 100 0 l 1
 1627 0 l 1x87f4
132 32 m 1
 132 668 l 1
 1595 668 l 1
 1595 32 l 1
 132 32 l 1
1456 356 m 0
 1456 442 1401 503 1318 503 c 0
 1235 503 1179 442 1179 356 c 0
 1179 271 1235 211 1318 211 c 0
 1401 211 1456 271 1456 356 c 0
526 356 m 0
 526 439 468 498 379 498 c 2
 290 498 l 1
 290 214 l 1
 379 214 l 2
 468 214 526 273 526 356 c 0
619 469 m 1x0840
 782 469 l 1x0840
 782 498 l 1
 584 498 l 1
 584 214 l 1
 782 214 l 1x84c0
 782 244 l 1
 619 244 l 1
 619 344 l 1
 772 344 l 1x2040
 772 374 l 1
 619 374 l 1
 619 469 l 1x0840
1121 498 m 1x8470
 1088 498 l 1
 977 362 l 1
 867 498 l 1
 835 498 l 1
 835 214 l 1
 869 214 l 1
 869 442 l 1
 971 318 l 1
 985 318 l 1
 1087 442 l 1
 1087 214 l 1
 1121 214 l 1
 1121 498 l 1x8470
1216 356 m 0x4008
 1216 424 1256 473 1318 473 c 0
 1380 473 1421 424 1421 356 c 0
 1421 289 1380 240 1318 240 c 0
 1256 240 1216 289 1216 356 c 0x4008
489 356 m 0x11
 489 291 449 244 382 244 c 2
 324 244 l 1
 324 469 l 1
 382 469 l 2
 449 469 489 421 489 356 c 0x11
EndSplineSet
Substitution2: "'c2sc' Capitals to Small Capitals in Latin lookup 18 subtable" cacute.sc
Substitution2: "'aalt' Access All Alternates in Latin lookup 0 subtable" cacute.sc
EndChar

StartChar: Ccaron
Encoding: 268 268 15
Width: 1727
GlyphClass: 2
Flags: MW
HStem: 32 182<132 379 290 379 379 423.5 584 782 835 869 1087 1121> 240 233<1287 1349> 244 100<619 772 619 782 619 772> 244 225<324 382 324 382 619 782> 374 95<619 772> 498 170<290 379 290 290 584 584 584 782 835 835 835 867 1088 1088 1088 1121>
VStem: 132 158<214 498 214 668> 324 165<323.5 388.5 323.5 469 323.5 469> 526 58<314.5 397.5> 782 53<214 244 244 244 469 498 214 498> 869 218<214 442 214 442> 1121 58<313.5 399 313.5 498> 1216 205<322.5 390> 1456 139<313.5 399>
LayerCount: 2
Fore
SplineSet
1627 0 m 1x87f4
 1627 700 l 1
 100 700 l 1
 100 0 l 1
 1627 0 l 1x87f4
132 32 m 1
 132 668 l 1
 1595 668 l 1
 1595 32 l 1
 132 32 l 1
1456 356 m 0
 1456 442 1401 503 1318 503 c 0
 1235 503 1179 442 1179 356 c 0
 1179 271 1235 211 1318 211 c 0
 1401 211 1456 271 1456 356 c 0
526 356 m 0
 526 439 468 498 379 498 c 2
 290 498 l 1
 290 214 l 1
 379 214 l 2
 468 214 526 273 526 356 c 0
619 469 m 1x0840
 782 469 l 1x0840
 782 498 l 1
 584 498 l 1
 584 214 l 1
 782 214 l 1x84c0
 782 244 l 1
 619 244 l 1
 619 344 l 1
 772 344 l 1x2040
 772 374 l 1
 619 374 l 1
 619 469 l 1x0840
1121 498 m 1x8470
 1088 498 l 1
 977 362 l 1
 867 498 l 1
 835 498 l 1
 835 214 l 1
 869 214 l 1
 869 442 l 1
 971 318 l 1
 985 318 l 1
 1087 442 l 1
 1087 214 l 1
 1121 214 l 1
 1121 498 l 1x8470
1216 356 m 0x4008
 1216 424 1256 473 1318 473 c 0
 1380 473 1421 424 1421 356 c 0
 1421 289 1380 240 1318 240 c 0
 1256 240 1216 289 1216 356 c 0x4008
489 356 m 0x11
 489 291 449 244 382 244 c 2
 324 244 l 1
 324 469 l 1
 382 469 l 2
 449 469 489 421 489 356 c 0x11
EndSplineSet
Substitution2: "'c2sc' Capitals to Small Capitals in Latin lookup 18 subtable" ccaron.sc
Substitution2: "'aalt' Access All Alternates in Latin lookup 0 subtable" ccaron.sc
EndChar

StartChar: Ccedilla
Encoding: 199 199 16
Width: 1727
GlyphClass: 2
Flags: MW
HStem: 32 182<132 379 290 379 379 423.5 584 782 835 869 1087 1121> 240 233<1287 1349> 244 100<619 772 619 782 619 772> 244 225<324 382 324 382 619 782> 374 95<619 772> 498 170<290 379 290 290 584 584 584 782 835 835 835 867 1088 1088 1088 1121>
VStem: 132 158<214 498 214 668> 324 165<323.5 388.5 323.5 469 323.5 469> 526 58<314.5 397.5> 782 53<214 244 244 244 469 498 214 498> 869 218<214 442 214 442> 1121 58<313.5 399 313.5 498> 1216 205<322.5 390> 1456 139<313.5 399>
LayerCount: 2
Fore
SplineSet
1627 0 m 1x87f4
 1627 700 l 1
 100 700 l 1
 100 0 l 1
 1627 0 l 1x87f4
132 32 m 1
 132 668 l 1
 1595 668 l 1
 1595 32 l 1
 132 32 l 1
1456 356 m 0
 1456 442 1401 503 1318 503 c 0
 1235 503 1179 442 1179 356 c 0
 1179 271 1235 211 1318 211 c 0
 1401 211 1456 271 1456 356 c 0
526 356 m 0
 526 439 468 498 379 498 c 2
 290 498 l 1
 290 214 l 1
 379 214 l 2
 468 214 526 273 526 356 c 0
619 469 m 1x0840
 782 469 l 1x0840
 782 498 l 1
 584 498 l 1
 584 214 l 1
 782 214 l 1x84c0
 782 244 l 1
 619 244 l 1
 619 344 l 1
 772 344 l 1x2040
 772 374 l 1
 619 374 l 1
 619 469 l 1x0840
1121 498 m 1x8470
 1088 498 l 1
 977 362 l 1
 867 498 l 1
 835 498 l 1
 835 214 l 1
 869 214 l 1
 869 442 l 1
 971 318 l 1
 985 318 l 1
 1087 442 l 1
 1087 214 l 1
 1121 214 l 1
 1121 498 l 1x8470
1216 356 m 0x4008
 1216 424 1256 473 1318 473 c 0
 1380 473 1421 424 1421 356 c 0
 1421 289 1380 240 1318 240 c 0
 1256 240 1216 289 1216 356 c 0x4008
489 356 m 0x11
 489 291 449 244 382 244 c 2
 324 244 l 1
 324 469 l 1
 382 469 l 2
 449 469 489 421 489 356 c 0x11
EndSplineSet
Substitution2: "'c2sc' Capitals to Small Capitals in Latin lookup 18 subtable" ccedilla.sc
Substitution2: "'aalt' Access All Alternates in Latin lookup 0 subtable" ccedilla.sc
EndChar

StartChar: Cdotaccent
Encoding: 266 266 17
Width: 1727
GlyphClass: 2
Flags: MW
HStem: 32 182<132 379 290 379 379 423.5 584 782 835 869 1087 1121> 240 233<1287 1349> 244 100<619 772 619 782 619 772> 244 225<324 382 324 382 619 782> 374 95<619 772> 498 170<290 379 290 290 584 584 584 782 835 835 835 867 1088 1088 1088 1121>
VStem: 132 158<214 498 214 668> 324 165<323.5 388.5 323.5 469 323.5 469> 526 58<314.5 397.5> 782 53<214 244 244 244 469 498 214 498> 869 218<214 442 214 442> 1121 58<313.5 399 313.5 498> 1216 205<322.5 390> 1456 139<313.5 399>
LayerCount: 2
Fore
SplineSet
1627 0 m 1x87f4
 1627 700 l 1
 100 700 l 1
 100 0 l 1
 1627 0 l 1x87f4
132 32 m 1
 132 668 l 1
 1595 668 l 1
 1595 32 l 1
 132 32 l 1
1456 356 m 0
 1456 442 1401 503 1318 503 c 0
 1235 503 1179 442 1179 356 c 0
 1179 271 1235 211 1318 211 c 0
 1401 211 1456 271 1456 356 c 0
526 356 m 0
 526 439 468 498 379 498 c 2
 290 498 l 1
 290 214 l 1
 379 214 l 2
 468 214 526 273 526 356 c 0
619 469 m 1x0840
 782 469 l 1x0840
 782 498 l 1
 584 498 l 1
 584 214 l 1
 782 214 l 1x84c0
 782 244 l 1
 619 244 l 1
 619 344 l 1
 772 344 l 1x2040
 772 374 l 1
 619 374 l 1
 619 469 l 1x0840
1121 498 m 1x8470
 1088 498 l 1
 977 362 l 1
 867 498 l 1
 835 498 l 1
 835 214 l 1
 869 214 l 1
 869 442 l 1
 971 318 l 1
 985 318 l 1
 1087 442 l 1
 1087 214 l 1
 1121 214 l 1
 1121 498 l 1x8470
1216 356 m 0x4008
 1216 424 1256 473 1318 473 c 0
 1380 473 1421 424 1421 356 c 0
 1421 289 1380 240 1318 240 c 0
 1256 240 1216 289 1216 356 c 0x4008
489 356 m 0x11
 489 291 449 244 382 244 c 2
 324 244 l 1
 324 469 l 1
 382 469 l 2
 449 469 489 421 489 356 c 0x11
EndSplineSet
Substitution2: "'c2sc' Capitals to Small Capitals in Latin lookup 18 subtable" cdotaccent.sc
Substitution2: "'aalt' Access All Alternates in Latin lookup 0 subtable" cdotaccent.sc
EndChar

StartChar: D
Encoding: 68 68 18
Width: 747
GlyphClass: 2
Flags: MW
HStem: 0 57<173 319> 643 57<173 319 319 326 173 173>
VStem: 106 67<57 643 57 700 57 700> 607 70<265 435>
LayerCount: 2
Fore
SplineSet
319 700 m 2
 539 700 677 553 677 350 c 0
 677 147 539 0 319 0 c 2
 106 0 l 1
 106 700 l 1
 319 700 l 2
326 57 m 2
 502 57 607 180 607 350 c 0
 607 520 502 643 326 643 c 2
 173 643 l 1
 173 57 l 1
 326 57 l 2
EndSplineSet
Substitution2: "'c2sc' Capitals to Small Capitals in Latin lookup 18 subtable" d.sc
Substitution2: "'aalt' Access All Alternates in Latin lookup 0 subtable" d.sc
EndChar

StartChar: Eth
Encoding: 208 208 19
Width: 1727
GlyphClass: 2
Flags: MW
HStem: 32 182<132 379 290 379 379 423.5 584 782 835 869 1087 1121> 240 233<1287 1349> 244 100<619 772 619 782 619 772> 244 225<324 382 324 382 619 782> 374 95<619 772> 498 170<290 379 290 290 584 584 584 782 835 835 835 867 1088 1088 1088 1121>
VStem: 132 158<214 498 214 668> 324 165<323.5 388.5 323.5 469 323.5 469> 526 58<314.5 397.5> 782 53<214 244 244 244 469 498 214 498> 869 218<214 442 214 442> 1121 58<313.5 399 313.5 498> 1216 205<322.5 390> 1456 139<313.5 399>
LayerCount: 2
Fore
SplineSet
1627 0 m 1x87f4
 1627 700 l 1
 100 700 l 1
 100 0 l 1
 1627 0 l 1x87f4
132 32 m 1
 132 668 l 1
 1595 668 l 1
 1595 32 l 1
 132 32 l 1
1456 356 m 0
 1456 442 1401 503 1318 503 c 0
 1235 503 1179 442 1179 356 c 0
 1179 271 1235 211 1318 211 c 0
 1401 211 1456 271 1456 356 c 0
526 356 m 0
 526 439 468 498 379 498 c 2
 290 498 l 1
 290 214 l 1
 379 214 l 2
 468 214 526 273 526 356 c 0
619 469 m 1x0840
 782 469 l 1x0840
 782 498 l 1
 584 498 l 1
 584 214 l 1
 782 214 l 1x84c0
 782 244 l 1
 619 244 l 1
 619 344 l 1
 772 344 l 1x2040
 772 374 l 1
 619 374 l 1
 619 469 l 1x0840
1121 498 m 1x8470
 1088 498 l 1
 977 362 l 1
 867 498 l 1
 835 498 l 1
 835 214 l 1
 869 214 l 1
 869 442 l 1
 971 318 l 1
 985 318 l 1
 1087 442 l 1
 1087 214 l 1
 1121 214 l 1
 1121 498 l 1x8470
1216 356 m 0x4008
 1216 424 1256 473 1318 473 c 0
 1380 473 1421 424 1421 356 c 0
 1421 289 1380 240 1318 240 c 0
 1256 240 1216 289 1216 356 c 0x4008
489 356 m 0x11
 489 291 449 244 382 244 c 2
 324 244 l 1
 324 469 l 1
 382 469 l 2
 449 469 489 421 489 356 c 0x11
EndSplineSet
Substitution2: "'c2sc' Capitals to Small Capitals in Latin lookup 18 subtable" eth.sc
Substitution2: "'aalt' Access All Alternates in Latin lookup 0 subtable" eth.sc
EndChar

StartChar: Dcaron
Encoding: 270 270 20
Width: 1727
GlyphClass: 2
Flags: MW
HStem: 32 182<132 379 290 379 379 423.5 584 782 835 869 1087 1121> 240 233<1287 1349> 244 100<619 772 619 782 619 772> 244 225<324 382 324 382 619 782> 374 95<619 772> 498 170<290 379 290 290 584 584 584 782 835 835 835 867 1088 1088 1088 1121>
VStem: 132 158<214 498 214 668> 324 165<323.5 388.5 323.5 469 323.5 469> 526 58<314.5 397.5> 782 53<214 244 244 244 469 498 214 498> 869 218<214 442 214 442> 1121 58<313.5 399 313.5 498> 1216 205<322.5 390> 1456 139<313.5 399>
LayerCount: 2
Fore
SplineSet
1627 0 m 1x87f4
 1627 700 l 1
 100 700 l 1
 100 0 l 1
 1627 0 l 1x87f4
132 32 m 1
 132 668 l 1
 1595 668 l 1
 1595 32 l 1
 132 32 l 1
1456 356 m 0
 1456 442 1401 503 1318 503 c 0
 1235 503 1179 442 1179 356 c 0
 1179 271 1235 211 1318 211 c 0
 1401 211 1456 271 1456 356 c 0
526 356 m 0
 526 439 468 498 379 498 c 2
 290 498 l 1
 290 214 l 1
 379 214 l 2
 468 214 526 273 526 356 c 0
619 469 m 1x0840
 782 469 l 1x0840
 782 498 l 1
 584 498 l 1
 584 214 l 1
 782 214 l 1x84c0
 782 244 l 1
 619 244 l 1
 619 344 l 1
 772 344 l 1x2040
 772 374 l 1
 619 374 l 1
 619 469 l 1x0840
1121 498 m 1x8470
 1088 498 l 1
 977 362 l 1
 867 498 l 1
 835 498 l 1
 835 214 l 1
 869 214 l 1
 869 442 l 1
 971 318 l 1
 985 318 l 1
 1087 442 l 1
 1087 214 l 1
 1121 214 l 1
 1121 498 l 1x8470
1216 356 m 0x4008
 1216 424 1256 473 1318 473 c 0
 1380 473 1421 424 1421 356 c 0
 1421 289 1380 240 1318 240 c 0
 1256 240 1216 289 1216 356 c 0x4008
489 356 m 0x11
 489 291 449 244 382 244 c 2
 324 244 l 1
 324 469 l 1
 382 469 l 2
 449 469 489 421 489 356 c 0x11
EndSplineSet
Substitution2: "'c2sc' Capitals to Small Capitals in Latin lookup 18 subtable" dcaron.sc
Substitution2: "'aalt' Access All Alternates in Latin lookup 0 subtable" dcaron.sc
EndChar

StartChar: Dcroat
Encoding: 272 272 21
Width: 1727
GlyphClass: 2
Flags: MW
HStem: 32 182<132 379 290 379 379 423.5 584 782 835 869 1087 1121> 240 233<1287 1349> 244 100<619 772 619 782 619 772> 244 225<324 382 324 382 619 782> 374 95<619 772> 498 170<290 379 290 290 584 584 584 782 835 835 835 867 1088 1088 1088 1121>
VStem: 132 158<214 498 214 668> 324 165<323.5 388.5 323.5 469 323.5 469> 526 58<314.5 397.5> 782 53<214 244 244 244 469 498 214 498> 869 218<214 442 214 442> 1121 58<313.5 399 313.5 498> 1216 205<322.5 390> 1456 139<313.5 399>
LayerCount: 2
Fore
SplineSet
1627 0 m 1x87f4
 1627 700 l 1
 100 700 l 1
 100 0 l 1
 1627 0 l 1x87f4
132 32 m 1
 132 668 l 1
 1595 668 l 1
 1595 32 l 1
 132 32 l 1
1456 356 m 0
 1456 442 1401 503 1318 503 c 0
 1235 503 1179 442 1179 356 c 0
 1179 271 1235 211 1318 211 c 0
 1401 211 1456 271 1456 356 c 0
526 356 m 0
 526 439 468 498 379 498 c 2
 290 498 l 1
 290 214 l 1
 379 214 l 2
 468 214 526 273 526 356 c 0
619 469 m 1x0840
 782 469 l 1x0840
 782 498 l 1
 584 498 l 1
 584 214 l 1
 782 214 l 1x84c0
 782 244 l 1
 619 244 l 1
 619 344 l 1
 772 344 l 1x2040
 772 374 l 1
 619 374 l 1
 619 469 l 1x0840
1121 498 m 1x8470
 1088 498 l 1
 977 362 l 1
 867 498 l 1
 835 498 l 1
 835 214 l 1
 869 214 l 1
 869 442 l 1
 971 318 l 1
 985 318 l 1
 1087 442 l 1
 1087 214 l 1
 1121 214 l 1
 1121 498 l 1x8470
1216 356 m 0x4008
 1216 424 1256 473 1318 473 c 0
 1380 473 1421 424 1421 356 c 0
 1421 289 1380 240 1318 240 c 0
 1256 240 1216 289 1216 356 c 0x4008
489 356 m 0x11
 489 291 449 244 382 244 c 2
 324 244 l 1
 324 469 l 1
 382 469 l 2
 449 469 489 421 489 356 c 0x11
EndSplineSet
Substitution2: "'c2sc' Capitals to Small Capitals in Latin lookup 18 subtable" dcroat.sc
Substitution2: "'aalt' Access All Alternates in Latin lookup 0 subtable" dcroat.sc
EndChar

StartChar: E
Encoding: 69 69 22
Width: 655
GlyphClass: 2
Flags: MW
HStem: 0 57<173 589 173 589> 336 56<173 566 173 566> 644 56<173 589 173 173>
VStem: 106 67<57 336 392 644>
LayerCount: 2
Fore
SplineSet
589 644 m 1
 173 644 l 1
 173 392 l 1
 566 392 l 1
 566 336 l 1
 173 336 l 1
 173 57 l 1
 589 57 l 1
 589 0 l 1
 106 0 l 1
 106 700 l 1
 589 700 l 1
 589 644 l 1
EndSplineSet
Substitution2: "'c2sc' Capitals to Small Capitals in Latin lookup 18 subtable" e.sc
Substitution2: "'aalt' Access All Alternates in Latin lookup 0 subtable" e.sc
EndChar

StartChar: Eacute
Encoding: 201 201 23
Width: 655
GlyphClass: 2
Flags: HMW
HStem: 0 57<173 589 173 589> 336 56<173 566 173 566> 644 56<173 589 173 173>
VStem: 106 67<57 336 392 644>
LayerCount: 2
Fore
SplineSet
309 762 m 1
 360 762 l 1
 459 897 l 1
 365 897 l 1
 309 762 l 1
589 644 m 1
 173 644 l 1
 173 392 l 1
 566 392 l 1
 566 336 l 1
 173 336 l 1
 173 57 l 1
 589 57 l 1
 589 0 l 1
 106 0 l 1
 106 700 l 1
 589 700 l 1
 589 644 l 1
EndSplineSet
Substitution2: "'c2sc' Capitals to Small Capitals in Latin lookup 18 subtable" eacute.sc
Substitution2: "'aalt' Access All Alternates in Latin lookup 0 subtable" eacute.sc
EndChar

StartChar: Ecaron
Encoding: 282 282 24
Width: 1727
GlyphClass: 2
Flags: MW
HStem: 32 182<132 379 290 379 379 423.5 584 782 835 869 1087 1121> 240 233<1287 1349> 244 100<619 772 619 782 619 772> 244 225<324 382 324 382 619 782> 374 95<619 772> 498 170<290 379 290 290 584 584 584 782 835 835 835 867 1088 1088 1088 1121>
VStem: 132 158<214 498 214 668> 324 165<323.5 388.5 323.5 469 323.5 469> 526 58<314.5 397.5> 782 53<214 244 244 244 469 498 214 498> 869 218<214 442 214 442> 1121 58<313.5 399 313.5 498> 1216 205<322.5 390> 1456 139<313.5 399>
LayerCount: 2
Fore
SplineSet
1627 0 m 1x87f4
 1627 700 l 1
 100 700 l 1
 100 0 l 1
 1627 0 l 1x87f4
132 32 m 1
 132 668 l 1
 1595 668 l 1
 1595 32 l 1
 132 32 l 1
1456 356 m 0
 1456 442 1401 503 1318 503 c 0
 1235 503 1179 442 1179 356 c 0
 1179 271 1235 211 1318 211 c 0
 1401 211 1456 271 1456 356 c 0
526 356 m 0
 526 439 468 498 379 498 c 2
 290 498 l 1
 290 214 l 1
 379 214 l 2
 468 214 526 273 526 356 c 0
619 469 m 1x0840
 782 469 l 1x0840
 782 498 l 1
 584 498 l 1
 584 214 l 1
 782 214 l 1x84c0
 782 244 l 1
 619 244 l 1
 619 344 l 1
 772 344 l 1x2040
 772 374 l 1
 619 374 l 1
 619 469 l 1x0840
1121 498 m 1x8470
 1088 498 l 1
 977 362 l 1
 867 498 l 1
 835 498 l 1
 835 214 l 1
 869 214 l 1
 869 442 l 1
 971 318 l 1
 985 318 l 1
 1087 442 l 1
 1087 214 l 1
 1121 214 l 1
 1121 498 l 1x8470
1216 356 m 0x4008
 1216 424 1256 473 1318 473 c 0
 1380 473 1421 424 1421 356 c 0
 1421 289 1380 240 1318 240 c 0
 1256 240 1216 289 1216 356 c 0x4008
489 356 m 0x11
 489 291 449 244 382 244 c 2
 324 244 l 1
 324 469 l 1
 382 469 l 2
 449 469 489 421 489 356 c 0x11
EndSplineSet
Substitution2: "'c2sc' Capitals to Small Capitals in Latin lookup 18 subtable" ecaron.sc
Substitution2: "'aalt' Access All Alternates in Latin lookup 0 subtable" ecaron.sc
EndChar

StartChar: Ecircumflex
Encoding: 202 202 25
Width: 1727
GlyphClass: 2
Flags: MW
HStem: 32 182<132 379 290 379 379 423.5 584 782 835 869 1087 1121> 240 233<1287 1349> 244 100<619 772 619 782 619 772> 244 225<324 382 324 382 619 782> 374 95<619 772> 498 170<290 379 290 290 584 584 584 782 835 835 835 867 1088 1088 1088 1121>
VStem: 132 158<214 498 214 668> 324 165<323.5 388.5 323.5 469 323.5 469> 526 58<314.5 397.5> 782 53<214 244 244 244 469 498 214 498> 869 218<214 442 214 442> 1121 58<313.5 399 313.5 498> 1216 205<322.5 390> 1456 139<313.5 399>
LayerCount: 2
Fore
SplineSet
1627 0 m 1x87f4
 1627 700 l 1
 100 700 l 1
 100 0 l 1
 1627 0 l 1x87f4
132 32 m 1
 132 668 l 1
 1595 668 l 1
 1595 32 l 1
 132 32 l 1
1456 356 m 0
 1456 442 1401 503 1318 503 c 0
 1235 503 1179 442 1179 356 c 0
 1179 271 1235 211 1318 211 c 0
 1401 211 1456 271 1456 356 c 0
526 356 m 0
 526 439 468 498 379 498 c 2
 290 498 l 1
 290 214 l 1
 379 214 l 2
 468 214 526 273 526 356 c 0
619 469 m 1x0840
 782 469 l 1x0840
 782 498 l 1
 584 498 l 1
 584 214 l 1
 782 214 l 1x84c0
 782 244 l 1
 619 244 l 1
 619 344 l 1
 772 344 l 1x2040
 772 374 l 1
 619 374 l 1
 619 469 l 1x0840
1121 498 m 1x8470
 1088 498 l 1
 977 362 l 1
 867 498 l 1
 835 498 l 1
 835 214 l 1
 869 214 l 1
 869 442 l 1
 971 318 l 1
 985 318 l 1
 1087 442 l 1
 1087 214 l 1
 1121 214 l 1
 1121 498 l 1x8470
1216 356 m 0x4008
 1216 424 1256 473 1318 473 c 0
 1380 473 1421 424 1421 356 c 0
 1421 289 1380 240 1318 240 c 0
 1256 240 1216 289 1216 356 c 0x4008
489 356 m 0x11
 489 291 449 244 382 244 c 2
 324 244 l 1
 324 469 l 1
 382 469 l 2
 449 469 489 421 489 356 c 0x11
EndSplineSet
Substitution2: "'c2sc' Capitals to Small Capitals in Latin lookup 18 subtable" ecircumflex.sc
Substitution2: "'aalt' Access All Alternates in Latin lookup 0 subtable" ecircumflex.sc
EndChar

StartChar: Edieresis
Encoding: 203 203 26
Width: 1727
GlyphClass: 2
Flags: MW
HStem: 32 182<132 379 290 379 379 423.5 584 782 835 869 1087 1121> 240 233<1287 1349> 244 100<619 772 619 782 619 772> 244 225<324 382 324 382 619 782> 374 95<619 772> 498 170<290 379 290 290 584 584 584 782 835 835 835 867 1088 1088 1088 1121>
VStem: 132 158<214 498 214 668> 324 165<323.5 388.5 323.5 469 323.5 469> 526 58<314.5 397.5> 782 53<214 244 244 244 469 498 214 498> 869 218<214 442 214 442> 1121 58<313.5 399 313.5 498> 1216 205<322.5 390> 1456 139<313.5 399>
LayerCount: 2
Fore
SplineSet
1627 0 m 1x87f4
 1627 700 l 1
 100 700 l 1
 100 0 l 1
 1627 0 l 1x87f4
132 32 m 1
 132 668 l 1
 1595 668 l 1
 1595 32 l 1
 132 32 l 1
1456 356 m 0
 1456 442 1401 503 1318 503 c 0
 1235 503 1179 442 1179 356 c 0
 1179 271 1235 211 1318 211 c 0
 1401 211 1456 271 1456 356 c 0
526 356 m 0
 526 439 468 498 379 498 c 2
 290 498 l 1
 290 214 l 1
 379 214 l 2
 468 214 526 273 526 356 c 0
619 469 m 1x0840
 782 469 l 1x0840
 782 498 l 1
 584 498 l 1
 584 214 l 1
 782 214 l 1x84c0
 782 244 l 1
 619 244 l 1
 619 344 l 1
 772 344 l 1x2040
 772 374 l 1
 619 374 l 1
 619 469 l 1x0840
1121 498 m 1x8470
 1088 498 l 1
 977 362 l 1
 867 498 l 1
 835 498 l 1
 835 214 l 1
 869 214 l 1
 869 442 l 1
 971 318 l 1
 985 318 l 1
 1087 442 l 1
 1087 214 l 1
 1121 214 l 1
 1121 498 l 1x8470
1216 356 m 0x4008
 1216 424 1256 473 1318 473 c 0
 1380 473 1421 424 1421 356 c 0
 1421 289 1380 240 1318 240 c 0
 1256 240 1216 289 1216 356 c 0x4008
489 356 m 0x11
 489 291 449 244 382 244 c 2
 324 244 l 1
 324 469 l 1
 382 469 l 2
 449 469 489 421 489 356 c 0x11
EndSplineSet
Substitution2: "'c2sc' Capitals to Small Capitals in Latin lookup 18 subtable" edieresis.sc
Substitution2: "'aalt' Access All Alternates in Latin lookup 0 subtable" edieresis.sc
EndChar

StartChar: Edotaccent
Encoding: 278 278 27
Width: 1727
GlyphClass: 2
Flags: MW
HStem: 32 182<132 379 290 379 379 423.5 584 782 835 869 1087 1121> 240 233<1287 1349> 244 100<619 772 619 782 619 772> 244 225<324 382 324 382 619 782> 374 95<619 772> 498 170<290 379 290 290 584 584 584 782 835 835 835 867 1088 1088 1088 1121>
VStem: 132 158<214 498 214 668> 324 165<323.5 388.5 323.5 469 323.5 469> 526 58<314.5 397.5> 782 53<214 244 244 244 469 498 214 498> 869 218<214 442 214 442> 1121 58<313.5 399 313.5 498> 1216 205<322.5 390> 1456 139<313.5 399>
LayerCount: 2
Fore
SplineSet
1627 0 m 1x87f4
 1627 700 l 1
 100 700 l 1
 100 0 l 1
 1627 0 l 1x87f4
132 32 m 1
 132 668 l 1
 1595 668 l 1
 1595 32 l 1
 132 32 l 1
1456 356 m 0
 1456 442 1401 503 1318 503 c 0
 1235 503 1179 442 1179 356 c 0
 1179 271 1235 211 1318 211 c 0
 1401 211 1456 271 1456 356 c 0
526 356 m 0
 526 439 468 498 379 498 c 2
 290 498 l 1
 290 214 l 1
 379 214 l 2
 468 214 526 273 526 356 c 0
619 469 m 1x0840
 782 469 l 1x0840
 782 498 l 1
 584 498 l 1
 584 214 l 1
 782 214 l 1x84c0
 782 244 l 1
 619 244 l 1
 619 344 l 1
 772 344 l 1x2040
 772 374 l 1
 619 374 l 1
 619 469 l 1x0840
1121 498 m 1x8470
 1088 498 l 1
 977 362 l 1
 867 498 l 1
 835 498 l 1
 835 214 l 1
 869 214 l 1
 869 442 l 1
 971 318 l 1
 985 318 l 1
 1087 442 l 1
 1087 214 l 1
 1121 214 l 1
 1121 498 l 1x8470
1216 356 m 0x4008
 1216 424 1256 473 1318 473 c 0
 1380 473 1421 424 1421 356 c 0
 1421 289 1380 240 1318 240 c 0
 1256 240 1216 289 1216 356 c 0x4008
489 356 m 0x11
 489 291 449 244 382 244 c 2
 324 244 l 1
 324 469 l 1
 382 469 l 2
 449 469 489 421 489 356 c 0x11
EndSplineSet
Substitution2: "'c2sc' Capitals to Small Capitals in Latin lookup 18 subtable" edotaccent.sc
Substitution2: "'aalt' Access All Alternates in Latin lookup 0 subtable" edotaccent.sc
EndChar

StartChar: Egrave
Encoding: 200 200 28
Width: 655
GlyphClass: 2
Flags: HMW
HStem: 0 57<173 589 173 589> 336 56<173 566 173 566> 644 56<173 589 173 173>
VStem: 106 67<57 336 392 644>
LayerCount: 2
Fore
SplineSet
416 762 m 1
 365 762 l 1
 266 897 l 1
 360 897 l 1
 416 762 l 1
589 644 m 1
 173 644 l 1
 173 392 l 1
 566 392 l 1
 566 336 l 1
 173 336 l 1
 173 57 l 1
 589 57 l 1
 589 0 l 1
 106 0 l 1
 106 700 l 1
 589 700 l 1
 589 644 l 1
EndSplineSet
Substitution2: "'c2sc' Capitals to Small Capitals in Latin lookup 18 subtable" egrave.sc
Substitution2: "'aalt' Access All Alternates in Latin lookup 0 subtable" egrave.sc
EndChar

StartChar: Emacron
Encoding: 274 274 29
Width: 1727
GlyphClass: 2
Flags: MW
HStem: 32 182<132 379 290 379 379 423.5 584 782 835 869 1087 1121> 240 233<1287 1349> 244 100<619 772 619 782 619 772> 244 225<324 382 324 382 619 782> 374 95<619 772> 498 170<290 379 290 290 584 584 584 782 835 835 835 867 1088 1088 1088 1121>
VStem: 132 158<214 498 214 668> 324 165<323.5 388.5 323.5 469 323.5 469> 526 58<314.5 397.5> 782 53<214 244 244 244 469 498 214 498> 869 218<214 442 214 442> 1121 58<313.5 399 313.5 498> 1216 205<322.5 390> 1456 139<313.5 399>
LayerCount: 2
Fore
SplineSet
1627 0 m 1x87f4
 1627 700 l 1
 100 700 l 1
 100 0 l 1
 1627 0 l 1x87f4
132 32 m 1
 132 668 l 1
 1595 668 l 1
 1595 32 l 1
 132 32 l 1
1456 356 m 0
 1456 442 1401 503 1318 503 c 0
 1235 503 1179 442 1179 356 c 0
 1179 271 1235 211 1318 211 c 0
 1401 211 1456 271 1456 356 c 0
526 356 m 0
 526 439 468 498 379 498 c 2
 290 498 l 1
 290 214 l 1
 379 214 l 2
 468 214 526 273 526 356 c 0
619 469 m 1x0840
 782 469 l 1x0840
 782 498 l 1
 584 498 l 1
 584 214 l 1
 782 214 l 1x84c0
 782 244 l 1
 619 244 l 1
 619 344 l 1
 772 344 l 1x2040
 772 374 l 1
 619 374 l 1
 619 469 l 1x0840
1121 498 m 1x8470
 1088 498 l 1
 977 362 l 1
 867 498 l 1
 835 498 l 1
 835 214 l 1
 869 214 l 1
 869 442 l 1
 971 318 l 1
 985 318 l 1
 1087 442 l 1
 1087 214 l 1
 1121 214 l 1
 1121 498 l 1x8470
1216 356 m 0x4008
 1216 424 1256 473 1318 473 c 0
 1380 473 1421 424 1421 356 c 0
 1421 289 1380 240 1318 240 c 0
 1256 240 1216 289 1216 356 c 0x4008
489 356 m 0x11
 489 291 449 244 382 244 c 2
 324 244 l 1
 324 469 l 1
 382 469 l 2
 449 469 489 421 489 356 c 0x11
EndSplineSet
Substitution2: "'c2sc' Capitals to Small Capitals in Latin lookup 18 subtable" emacron.sc
Substitution2: "'aalt' Access All Alternates in Latin lookup 0 subtable" emacron.sc
EndChar

StartChar: Eogonek
Encoding: 280 280 30
Width: 1727
GlyphClass: 2
Flags: MW
HStem: 32 182<132 379 290 379 379 423.5 584 782 835 869 1087 1121> 240 233<1287 1349> 244 100<619 772 619 782 619 772> 244 225<324 382 324 382 619 782> 374 95<619 772> 498 170<290 379 290 290 584 584 584 782 835 835 835 867 1088 1088 1088 1121>
VStem: 132 158<214 498 214 668> 324 165<323.5 388.5 323.5 469 323.5 469> 526 58<314.5 397.5> 782 53<214 244 244 244 469 498 214 498> 869 218<214 442 214 442> 1121 58<313.5 399 313.5 498> 1216 205<322.5 390> 1456 139<313.5 399>
LayerCount: 2
Fore
SplineSet
1627 0 m 1x87f4
 1627 700 l 1
 100 700 l 1
 100 0 l 1
 1627 0 l 1x87f4
132 32 m 1
 132 668 l 1
 1595 668 l 1
 1595 32 l 1
 132 32 l 1
1456 356 m 0
 1456 442 1401 503 1318 503 c 0
 1235 503 1179 442 1179 356 c 0
 1179 271 1235 211 1318 211 c 0
 1401 211 1456 271 1456 356 c 0
526 356 m 0
 526 439 468 498 379 498 c 2
 290 498 l 1
 290 214 l 1
 379 214 l 2
 468 214 526 273 526 356 c 0
619 469 m 1x0840
 782 469 l 1x0840
 782 498 l 1
 584 498 l 1
 584 214 l 1
 782 214 l 1x84c0
 782 244 l 1
 619 244 l 1
 619 344 l 1
 772 344 l 1x2040
 772 374 l 1
 619 374 l 1
 619 469 l 1x0840
1121 498 m 1x8470
 1088 498 l 1
 977 362 l 1
 867 498 l 1
 835 498 l 1
 835 214 l 1
 869 214 l 1
 869 442 l 1
 971 318 l 1
 985 318 l 1
 1087 442 l 1
 1087 214 l 1
 1121 214 l 1
 1121 498 l 1x8470
1216 356 m 0x4008
 1216 424 1256 473 1318 473 c 0
 1380 473 1421 424 1421 356 c 0
 1421 289 1380 240 1318 240 c 0
 1256 240 1216 289 1216 356 c 0x4008
489 356 m 0x11
 489 291 449 244 382 244 c 2
 324 244 l 1
 324 469 l 1
 382 469 l 2
 449 469 489 421 489 356 c 0x11
EndSplineSet
Substitution2: "'c2sc' Capitals to Small Capitals in Latin lookup 18 subtable" eogonek.sc
Substitution2: "'aalt' Access All Alternates in Latin lookup 0 subtable" eogonek.sc
EndChar

StartChar: Ebreve
Encoding: 276 276 31
Width: 1727
GlyphClass: 2
Flags: MW
HStem: 32 182<132 379 290 379 379 423.5 584 782 835 869 1087 1121> 240 233<1287 1349> 244 100<619 772 619 782 619 772> 244 225<324 382 324 382 619 782> 374 95<619 772> 498 170<290 379 290 290 584 584 584 782 835 835 835 867 1088 1088 1088 1121>
VStem: 132 158<214 498 214 668> 324 165<323.5 388.5 323.5 469 323.5 469> 526 58<314.5 397.5> 782 53<214 244 244 244 469 498 214 498> 869 218<214 442 214 442> 1121 58<313.5 399 313.5 498> 1216 205<322.5 390> 1456 139<313.5 399>
LayerCount: 2
Fore
SplineSet
1627 0 m 1x87f4
 1627 700 l 1
 100 700 l 1
 100 0 l 1
 1627 0 l 1x87f4
132 32 m 1
 132 668 l 1
 1595 668 l 1
 1595 32 l 1
 132 32 l 1
1456 356 m 0
 1456 442 1401 503 1318 503 c 0
 1235 503 1179 442 1179 356 c 0
 1179 271 1235 211 1318 211 c 0
 1401 211 1456 271 1456 356 c 0
526 356 m 0
 526 439 468 498 379 498 c 2
 290 498 l 1
 290 214 l 1
 379 214 l 2
 468 214 526 273 526 356 c 0
619 469 m 1x0840
 782 469 l 1x0840
 782 498 l 1
 584 498 l 1
 584 214 l 1
 782 214 l 1x84c0
 782 244 l 1
 619 244 l 1
 619 344 l 1
 772 344 l 1x2040
 772 374 l 1
 619 374 l 1
 619 469 l 1x0840
1121 498 m 1x8470
 1088 498 l 1
 977 362 l 1
 867 498 l 1
 835 498 l 1
 835 214 l 1
 869 214 l 1
 869 442 l 1
 971 318 l 1
 985 318 l 1
 1087 442 l 1
 1087 214 l 1
 1121 214 l 1
 1121 498 l 1x8470
1216 356 m 0x4008
 1216 424 1256 473 1318 473 c 0
 1380 473 1421 424 1421 356 c 0
 1421 289 1380 240 1318 240 c 0
 1256 240 1216 289 1216 356 c 0x4008
489 356 m 0x11
 489 291 449 244 382 244 c 2
 324 244 l 1
 324 469 l 1
 382 469 l 2
 449 469 489 421 489 356 c 0x11
EndSplineSet
Substitution2: "'c2sc' Capitals to Small Capitals in Latin lookup 18 subtable" ebreve.sc
Substitution2: "'aalt' Access All Alternates in Latin lookup 0 subtable" ebreve.sc
EndChar

StartChar: F
Encoding: 70 70 32
Width: 652
GlyphClass: 2
Flags: MW
HStem: 0 21G<106 173 106 106> 329 56<173 567 173 567> 644 56<173 589 173 173>
VStem: 106 67<0 329 385 644>
LayerCount: 2
Fore
SplineSet
589 644 m 1
 173 644 l 1
 173 385 l 1
 567 385 l 1
 567 329 l 1
 173 329 l 1
 173 0 l 1
 106 0 l 1
 106 700 l 1
 589 700 l 1
 589 644 l 1
EndSplineSet
Substitution2: "'c2sc' Capitals to Small Capitals in Latin lookup 18 subtable" f.sc
Substitution2: "'aalt' Access All Alternates in Latin lookup 0 subtable" f.sc
EndChar

StartChar: G
Encoding: 71 71 33
Width: 802
GlyphClass: 2
Flags: MW
HStem: -9 56<325.5 470.5> 0 21G<651 710 651 651> 290 57<408 651 408 710> 654 57<323.5 462.5>
VStem: 70 69<263.5 438.5 263.5 455.5> 651 59<0 139 139 139 288 290 290 290>
LayerCount: 2
Fore
SplineSet
408 347 m 1xbc
 710 347 l 1
 710 0 l 1
 651 0 l 1x7c
 651 139 l 1
 614 51 533 -9 408 -9 c 0
 202 -9 70 142 70 351 c 0
 70 560 203 711 404 711 c 0
 560 711 668 627 704 475 c 1
 632 475 l 1
 602 591 521 654 404 654 c 0
 243 654 139 526 139 351 c 0
 139 176 243 47 408 47 c 0
 545 47 651 145 651 288 c 2
 651 290 l 1
 408 290 l 1
 408 347 l 1xbc
EndSplineSet
Substitution2: "'c2sc' Capitals to Small Capitals in Latin lookup 18 subtable" g.sc
Substitution2: "'aalt' Access All Alternates in Latin lookup 0 subtable" g.sc
EndChar

StartChar: Gbreve
Encoding: 286 286 34
Width: 1727
GlyphClass: 2
Flags: MW
HStem: 32 182<132 379 290 379 379 423.5 584 782 835 869 1087 1121> 240 233<1287 1349> 244 100<619 772 619 782 619 772> 244 225<324 382 324 382 619 782> 374 95<619 772> 498 170<290 379 290 290 584 584 584 782 835 835 835 867 1088 1088 1088 1121>
VStem: 132 158<214 498 214 668> 324 165<323.5 388.5 323.5 469 323.5 469> 526 58<314.5 397.5> 782 53<214 244 244 244 469 498 214 498> 869 218<214 442 214 442> 1121 58<313.5 399 313.5 498> 1216 205<322.5 390> 1456 139<313.5 399>
LayerCount: 2
Fore
SplineSet
1627 0 m 1x87f4
 1627 700 l 1
 100 700 l 1
 100 0 l 1
 1627 0 l 1x87f4
132 32 m 1
 132 668 l 1
 1595 668 l 1
 1595 32 l 1
 132 32 l 1
1456 356 m 0
 1456 442 1401 503 1318 503 c 0
 1235 503 1179 442 1179 356 c 0
 1179 271 1235 211 1318 211 c 0
 1401 211 1456 271 1456 356 c 0
526 356 m 0
 526 439 468 498 379 498 c 2
 290 498 l 1
 290 214 l 1
 379 214 l 2
 468 214 526 273 526 356 c 0
619 469 m 1x0840
 782 469 l 1x0840
 782 498 l 1
 584 498 l 1
 584 214 l 1
 782 214 l 1x84c0
 782 244 l 1
 619 244 l 1
 619 344 l 1
 772 344 l 1x2040
 772 374 l 1
 619 374 l 1
 619 469 l 1x0840
1121 498 m 1x8470
 1088 498 l 1
 977 362 l 1
 867 498 l 1
 835 498 l 1
 835 214 l 1
 869 214 l 1
 869 442 l 1
 971 318 l 1
 985 318 l 1
 1087 442 l 1
 1087 214 l 1
 1121 214 l 1
 1121 498 l 1x8470
1216 356 m 0x4008
 1216 424 1256 473 1318 473 c 0
 1380 473 1421 424 1421 356 c 0
 1421 289 1380 240 1318 240 c 0
 1256 240 1216 289 1216 356 c 0x4008
489 356 m 0x11
 489 291 449 244 382 244 c 2
 324 244 l 1
 324 469 l 1
 382 469 l 2
 449 469 489 421 489 356 c 0x11
EndSplineSet
Substitution2: "'c2sc' Capitals to Small Capitals in Latin lookup 18 subtable" gbreve.sc
Substitution2: "'aalt' Access All Alternates in Latin lookup 0 subtable" gbreve.sc
EndChar

StartChar: Gcommaaccent
Encoding: 290 290 35
Width: 1727
GlyphClass: 2
Flags: MW
HStem: 32 182<132 379 290 379 379 423.5 584 782 835 869 1087 1121> 240 233<1287 1349> 244 100<619 772 619 782 619 772> 244 225<324 382 324 382 619 782> 374 95<619 772> 498 170<290 379 290 290 584 584 584 782 835 835 835 867 1088 1088 1088 1121>
VStem: 132 158<214 498 214 668> 324 165<323.5 388.5 323.5 469 323.5 469> 526 58<314.5 397.5> 782 53<214 244 244 244 469 498 214 498> 869 218<214 442 214 442> 1121 58<313.5 399 313.5 498> 1216 205<322.5 390> 1456 139<313.5 399>
LayerCount: 2
Fore
SplineSet
1627 0 m 1x87f4
 1627 700 l 1
 100 700 l 1
 100 0 l 1
 1627 0 l 1x87f4
132 32 m 1
 132 668 l 1
 1595 668 l 1
 1595 32 l 1
 132 32 l 1
1456 356 m 0
 1456 442 1401 503 1318 503 c 0
 1235 503 1179 442 1179 356 c 0
 1179 271 1235 211 1318 211 c 0
 1401 211 1456 271 1456 356 c 0
526 356 m 0
 526 439 468 498 379 498 c 2
 290 498 l 1
 290 214 l 1
 379 214 l 2
 468 214 526 273 526 356 c 0
619 469 m 1x0840
 782 469 l 1x0840
 782 498 l 1
 584 498 l 1
 584 214 l 1
 782 214 l 1x84c0
 782 244 l 1
 619 244 l 1
 619 344 l 1
 772 344 l 1x2040
 772 374 l 1
 619 374 l 1
 619 469 l 1x0840
1121 498 m 1x8470
 1088 498 l 1
 977 362 l 1
 867 498 l 1
 835 498 l 1
 835 214 l 1
 869 214 l 1
 869 442 l 1
 971 318 l 1
 985 318 l 1
 1087 442 l 1
 1087 214 l 1
 1121 214 l 1
 1121 498 l 1x8470
1216 356 m 0x4008
 1216 424 1256 473 1318 473 c 0
 1380 473 1421 424 1421 356 c 0
 1421 289 1380 240 1318 240 c 0
 1256 240 1216 289 1216 356 c 0x4008
489 356 m 0x11
 489 291 449 244 382 244 c 2
 324 244 l 1
 324 469 l 1
 382 469 l 2
 449 469 489 421 489 356 c 0x11
EndSplineSet
Substitution2: "'c2sc' Capitals to Small Capitals in Latin lookup 18 subtable" gcommaaccent.sc
Substitution2: "'aalt' Access All Alternates in Latin lookup 0 subtable" gcommaaccent.sc
EndChar

StartChar: Gdotaccent
Encoding: 288 288 36
Width: 1727
GlyphClass: 2
Flags: MW
HStem: 32 182<132 379 290 379 379 423.5 584 782 835 869 1087 1121> 240 233<1287 1349> 244 100<619 772 619 782 619 772> 244 225<324 382 324 382 619 782> 374 95<619 772> 498 170<290 379 290 290 584 584 584 782 835 835 835 867 1088 1088 1088 1121>
VStem: 132 158<214 498 214 668> 324 165<323.5 388.5 323.5 469 323.5 469> 526 58<314.5 397.5> 782 53<214 244 244 244 469 498 214 498> 869 218<214 442 214 442> 1121 58<313.5 399 313.5 498> 1216 205<322.5 390> 1456 139<313.5 399>
LayerCount: 2
Fore
SplineSet
1627 0 m 1x87f4
 1627 700 l 1
 100 700 l 1
 100 0 l 1
 1627 0 l 1x87f4
132 32 m 1
 132 668 l 1
 1595 668 l 1
 1595 32 l 1
 132 32 l 1
1456 356 m 0
 1456 442 1401 503 1318 503 c 0
 1235 503 1179 442 1179 356 c 0
 1179 271 1235 211 1318 211 c 0
 1401 211 1456 271 1456 356 c 0
526 356 m 0
 526 439 468 498 379 498 c 2
 290 498 l 1
 290 214 l 1
 379 214 l 2
 468 214 526 273 526 356 c 0
619 469 m 1x0840
 782 469 l 1x0840
 782 498 l 1
 584 498 l 1
 584 214 l 1
 782 214 l 1x84c0
 782 244 l 1
 619 244 l 1
 619 344 l 1
 772 344 l 1x2040
 772 374 l 1
 619 374 l 1
 619 469 l 1x0840
1121 498 m 1x8470
 1088 498 l 1
 977 362 l 1
 867 498 l 1
 835 498 l 1
 835 214 l 1
 869 214 l 1
 869 442 l 1
 971 318 l 1
 985 318 l 1
 1087 442 l 1
 1087 214 l 1
 1121 214 l 1
 1121 498 l 1x8470
1216 356 m 0x4008
 1216 424 1256 473 1318 473 c 0
 1380 473 1421 424 1421 356 c 0
 1421 289 1380 240 1318 240 c 0
 1256 240 1216 289 1216 356 c 0x4008
489 356 m 0x11
 489 291 449 244 382 244 c 2
 324 244 l 1
 324 469 l 1
 382 469 l 2
 449 469 489 421 489 356 c 0x11
EndSplineSet
Substitution2: "'c2sc' Capitals to Small Capitals in Latin lookup 18 subtable" gdotaccent.sc
Substitution2: "'aalt' Access All Alternates in Latin lookup 0 subtable" gdotaccent.sc
EndChar

StartChar: H
Encoding: 72 72 37
Width: 752
GlyphClass: 2
Flags: MW
HStem: 0 21G<106 173 106 106 579 646 579 579> 328 57<173 579 173 579> 680 20G<106 173 173 173 579 646 646 646>
VStem: 106 67<0 328 0 385 385 700> 579 67<0 328 328 328 385 700 0 700>
LayerCount: 2
Fore
SplineSet
579 700 m 1
 646 700 l 1
 646 0 l 1
 579 0 l 1
 579 328 l 1
 173 328 l 1
 173 0 l 1
 106 0 l 1
 106 700 l 1
 173 700 l 1
 173 385 l 1
 579 385 l 1
 579 700 l 1
EndSplineSet
Substitution2: "'c2sc' Capitals to Small Capitals in Latin lookup 18 subtable" h.sc
Substitution2: "'aalt' Access All Alternates in Latin lookup 0 subtable" h.sc
EndChar

StartChar: Hbar
Encoding: 294 294 38
Width: 1727
GlyphClass: 2
Flags: MW
HStem: 32 182<132 379 290 379 379 423.5 584 782 835 869 1087 1121> 240 233<1287 1349> 244 100<619 772 619 782 619 772> 244 225<324 382 324 382 619 782> 374 95<619 772> 498 170<290 379 290 290 584 584 584 782 835 835 835 867 1088 1088 1088 1121>
VStem: 132 158<214 498 214 668> 324 165<323.5 388.5 323.5 469 323.5 469> 526 58<314.5 397.5> 782 53<214 244 244 244 469 498 214 498> 869 218<214 442 214 442> 1121 58<313.5 399 313.5 498> 1216 205<322.5 390> 1456 139<313.5 399>
LayerCount: 2
Fore
SplineSet
1627 0 m 1x87f4
 1627 700 l 1
 100 700 l 1
 100 0 l 1
 1627 0 l 1x87f4
132 32 m 1
 132 668 l 1
 1595 668 l 1
 1595 32 l 1
 132 32 l 1
1456 356 m 0
 1456 442 1401 503 1318 503 c 0
 1235 503 1179 442 1179 356 c 0
 1179 271 1235 211 1318 211 c 0
 1401 211 1456 271 1456 356 c 0
526 356 m 0
 526 439 468 498 379 498 c 2
 290 498 l 1
 290 214 l 1
 379 214 l 2
 468 214 526 273 526 356 c 0
619 469 m 1x0840
 782 469 l 1x0840
 782 498 l 1
 584 498 l 1
 584 214 l 1
 782 214 l 1x84c0
 782 244 l 1
 619 244 l 1
 619 344 l 1
 772 344 l 1x2040
 772 374 l 1
 619 374 l 1
 619 469 l 1x0840
1121 498 m 1x8470
 1088 498 l 1
 977 362 l 1
 867 498 l 1
 835 498 l 1
 835 214 l 1
 869 214 l 1
 869 442 l 1
 971 318 l 1
 985 318 l 1
 1087 442 l 1
 1087 214 l 1
 1121 214 l 1
 1121 498 l 1x8470
1216 356 m 0x4008
 1216 424 1256 473 1318 473 c 0
 1380 473 1421 424 1421 356 c 0
 1421 289 1380 240 1318 240 c 0
 1256 240 1216 289 1216 356 c 0x4008
489 356 m 0x11
 489 291 449 244 382 244 c 2
 324 244 l 1
 324 469 l 1
 382 469 l 2
 449 469 489 421 489 356 c 0x11
EndSplineSet
Substitution2: "'c2sc' Capitals to Small Capitals in Latin lookup 18 subtable" hbar.sc
Substitution2: "'aalt' Access All Alternates in Latin lookup 0 subtable" hbar.sc
EndChar

StartChar: I
Encoding: 73 73 39
Width: 406
GlyphClass: 2
Flags: MW
HStem: 0 55<68 170 236 338 68 170> 645 55<68 170 68 338 236 338 236 236>
VStem: 170 66<55 645 55 645>
LayerCount: 2
Fore
SplineSet
338 645 m 1
 236 645 l 1
 236 55 l 1
 338 55 l 1
 338 0 l 1
 68 0 l 1
 68 55 l 1
 170 55 l 1
 170 645 l 1
 68 645 l 1
 68 700 l 1
 338 700 l 1
 338 645 l 1
EndSplineSet
Substitution2: "'ss01' Style Set 1 in Latin lookup 30 subtable" I.ss01
Substitution2: "'salt' Stylistic Alternatives in Latin lookup 27 subtable" I.ss01
Substitution2: "'case' Case-Sensitive Forms in Latin lookup 20 subtable" I.case
Substitution2: "'c2sc' Capitals to Small Capitals in Latin lookup 18 subtable" i.sc
AlternateSubs2: "'aalt' Access All Alternates in Latin lookup 1 subtable" i.sc I.case I.ss01
EndChar

StartChar: IJ
Encoding: 306 306 40
Width: 950
GlyphClass: 2
Flags: MW
HStem: -9 57<588 657.5 588 676.5> 0 55<68 170 236 338 68 170> 645 55<68 338 68 170 236 236 236 338>
VStem: 170 66<55 645 55 645> 783 67<203 208 208 700>
LayerCount: 2
Fore
SplineSet
68 645 m 1x78
 68 700 l 1
 338 700 l 1
 338 645 l 1
 236 645 l 1
 236 55 l 1
 338 55 l 1
 338 0 l 1
 68 0 l 1
 68 55 l 1
 170 55 l 1
 170 645 l 1
 68 645 l 1x78
783 700 m 1
 850 700 l 1
 850 208 l 2
 850 82 745 -9 608 -9 c 0
 562 -9 512 -2 467 14 c 1
 467 82 l 1
 518 60 567 48 609 48 c 0xb8
 706 48 783 113 783 203 c 2
 783 700 l 1
EndSplineSet
Substitution2: "'ss02' Style Set 2 in Latin lookup 31 subtable" IJ.ss02
Substitution2: "'ss01' Style Set 1 in Latin lookup 30 subtable" IJ.ss01
Substitution2: "'salt' Stylistic Alternatives in Latin lookup 27 subtable" IJ.ss01
Substitution2: "'case' Case-Sensitive Forms in Latin lookup 20 subtable" IJ.case
Substitution2: "'c2sc' Capitals to Small Capitals in Latin lookup 18 subtable" ij.sc
AlternateSubs2: "'aalt' Access All Alternates in Latin lookup 1 subtable" ij.sc IJ.case IJ.ss01 IJ.ss02
EndChar

StartChar: Iacute
Encoding: 205 205 41
Width: 1727
GlyphClass: 2
Flags: MW
HStem: 32 182<132 379 290 379 379 423.5 584 782 835 869 1087 1121> 240 233<1287 1349> 244 100<619 772 619 782 619 772> 244 225<324 382 324 382 619 782> 374 95<619 772> 498 170<290 379 290 290 584 584 584 782 835 835 835 867 1088 1088 1088 1121>
VStem: 132 158<214 498 214 668> 324 165<323.5 388.5 323.5 469 323.5 469> 526 58<314.5 397.5> 782 53<214 244 244 244 469 498 214 498> 869 218<214 442 214 442> 1121 58<313.5 399 313.5 498> 1216 205<322.5 390> 1456 139<313.5 399>
LayerCount: 2
Fore
SplineSet
1627 0 m 1x87f4
 1627 700 l 1
 100 700 l 1
 100 0 l 1
 1627 0 l 1x87f4
132 32 m 1
 132 668 l 1
 1595 668 l 1
 1595 32 l 1
 132 32 l 1
1456 356 m 0
 1456 442 1401 503 1318 503 c 0
 1235 503 1179 442 1179 356 c 0
 1179 271 1235 211 1318 211 c 0
 1401 211 1456 271 1456 356 c 0
526 356 m 0
 526 439 468 498 379 498 c 2
 290 498 l 1
 290 214 l 1
 379 214 l 2
 468 214 526 273 526 356 c 0
619 469 m 1x0840
 782 469 l 1x0840
 782 498 l 1
 584 498 l 1
 584 214 l 1
 782 214 l 1x84c0
 782 244 l 1
 619 244 l 1
 619 344 l 1
 772 344 l 1x2040
 772 374 l 1
 619 374 l 1
 619 469 l 1x0840
1121 498 m 1x8470
 1088 498 l 1
 977 362 l 1
 867 498 l 1
 835 498 l 1
 835 214 l 1
 869 214 l 1
 869 442 l 1
 971 318 l 1
 985 318 l 1
 1087 442 l 1
 1087 214 l 1
 1121 214 l 1
 1121 498 l 1x8470
1216 356 m 0x4008
 1216 424 1256 473 1318 473 c 0
 1380 473 1421 424 1421 356 c 0
 1421 289 1380 240 1318 240 c 0
 1256 240 1216 289 1216 356 c 0x4008
489 356 m 0x11
 489 291 449 244 382 244 c 2
 324 244 l 1
 324 469 l 1
 382 469 l 2
 449 469 489 421 489 356 c 0x11
EndSplineSet
Substitution2: "'ss01' Style Set 1 in Latin lookup 30 subtable" Iacute.ss01
Substitution2: "'salt' Stylistic Alternatives in Latin lookup 27 subtable" Iacute.ss01
Substitution2: "'case' Case-Sensitive Forms in Latin lookup 20 subtable" Iacute.case
Substitution2: "'c2sc' Capitals to Small Capitals in Latin lookup 18 subtable" iacute.sc
AlternateSubs2: "'aalt' Access All Alternates in Latin lookup 1 subtable" iacute.sc Iacute.case Iacute.ss01
EndChar

StartChar: Icircumflex
Encoding: 206 206 42
Width: 1727
GlyphClass: 2
Flags: MW
HStem: 32 182<132 379 290 379 379 423.5 584 782 835 869 1087 1121> 240 233<1287 1349> 244 100<619 772 619 782 619 772> 244 225<324 382 324 382 619 782> 374 95<619 772> 498 170<290 379 290 290 584 584 584 782 835 835 835 867 1088 1088 1088 1121>
VStem: 132 158<214 498 214 668> 324 165<323.5 388.5 323.5 469 323.5 469> 526 58<314.5 397.5> 782 53<214 244 244 244 469 498 214 498> 869 218<214 442 214 442> 1121 58<313.5 399 313.5 498> 1216 205<322.5 390> 1456 139<313.5 399>
LayerCount: 2
Fore
SplineSet
1627 0 m 1x87f4
 1627 700 l 1
 100 700 l 1
 100 0 l 1
 1627 0 l 1x87f4
132 32 m 1
 132 668 l 1
 1595 668 l 1
 1595 32 l 1
 132 32 l 1
1456 356 m 0
 1456 442 1401 503 1318 503 c 0
 1235 503 1179 442 1179 356 c 0
 1179 271 1235 211 1318 211 c 0
 1401 211 1456 271 1456 356 c 0
526 356 m 0
 526 439 468 498 379 498 c 2
 290 498 l 1
 290 214 l 1
 379 214 l 2
 468 214 526 273 526 356 c 0
619 469 m 1x0840
 782 469 l 1x0840
 782 498 l 1
 584 498 l 1
 584 214 l 1
 782 214 l 1x84c0
 782 244 l 1
 619 244 l 1
 619 344 l 1
 772 344 l 1x2040
 772 374 l 1
 619 374 l 1
 619 469 l 1x0840
1121 498 m 1x8470
 1088 498 l 1
 977 362 l 1
 867 498 l 1
 835 498 l 1
 835 214 l 1
 869 214 l 1
 869 442 l 1
 971 318 l 1
 985 318 l 1
 1087 442 l 1
 1087 214 l 1
 1121 214 l 1
 1121 498 l 1x8470
1216 356 m 0x4008
 1216 424 1256 473 1318 473 c 0
 1380 473 1421 424 1421 356 c 0
 1421 289 1380 240 1318 240 c 0
 1256 240 1216 289 1216 356 c 0x4008
489 356 m 0x11
 489 291 449 244 382 244 c 2
 324 244 l 1
 324 469 l 1
 382 469 l 2
 449 469 489 421 489 356 c 0x11
EndSplineSet
Substitution2: "'ss01' Style Set 1 in Latin lookup 30 subtable" Icircumflex.ss01
Substitution2: "'salt' Stylistic Alternatives in Latin lookup 27 subtable" Icircumflex.ss01
Substitution2: "'case' Case-Sensitive Forms in Latin lookup 20 subtable" Icircumflex.case
Substitution2: "'c2sc' Capitals to Small Capitals in Latin lookup 18 subtable" icircumflex.sc
AlternateSubs2: "'aalt' Access All Alternates in Latin lookup 1 subtable" icircumflex.sc Icircumflex.case Icircumflex.ss01
EndChar

StartChar: Idieresis
Encoding: 207 207 43
Width: 1727
GlyphClass: 2
Flags: MW
HStem: 32 182<132 379 290 379 379 423.5 584 782 835 869 1087 1121> 240 233<1287 1349> 244 100<619 772 619 782 619 772> 244 225<324 382 324 382 619 782> 374 95<619 772> 498 170<290 379 290 290 584 584 584 782 835 835 835 867 1088 1088 1088 1121>
VStem: 132 158<214 498 214 668> 324 165<323.5 388.5 323.5 469 323.5 469> 526 58<314.5 397.5> 782 53<214 244 244 244 469 498 214 498> 869 218<214 442 214 442> 1121 58<313.5 399 313.5 498> 1216 205<322.5 390> 1456 139<313.5 399>
LayerCount: 2
Fore
SplineSet
1627 0 m 1x87f4
 1627 700 l 1
 100 700 l 1
 100 0 l 1
 1627 0 l 1x87f4
132 32 m 1
 132 668 l 1
 1595 668 l 1
 1595 32 l 1
 132 32 l 1
1456 356 m 0
 1456 442 1401 503 1318 503 c 0
 1235 503 1179 442 1179 356 c 0
 1179 271 1235 211 1318 211 c 0
 1401 211 1456 271 1456 356 c 0
526 356 m 0
 526 439 468 498 379 498 c 2
 290 498 l 1
 290 214 l 1
 379 214 l 2
 468 214 526 273 526 356 c 0
619 469 m 1x0840
 782 469 l 1x0840
 782 498 l 1
 584 498 l 1
 584 214 l 1
 782 214 l 1x84c0
 782 244 l 1
 619 244 l 1
 619 344 l 1
 772 344 l 1x2040
 772 374 l 1
 619 374 l 1
 619 469 l 1x0840
1121 498 m 1x8470
 1088 498 l 1
 977 362 l 1
 867 498 l 1
 835 498 l 1
 835 214 l 1
 869 214 l 1
 869 442 l 1
 971 318 l 1
 985 318 l 1
 1087 442 l 1
 1087 214 l 1
 1121 214 l 1
 1121 498 l 1x8470
1216 356 m 0x4008
 1216 424 1256 473 1318 473 c 0
 1380 473 1421 424 1421 356 c 0
 1421 289 1380 240 1318 240 c 0
 1256 240 1216 289 1216 356 c 0x4008
489 356 m 0x11
 489 291 449 244 382 244 c 2
 324 244 l 1
 324 469 l 1
 382 469 l 2
 449 469 489 421 489 356 c 0x11
EndSplineSet
Substitution2: "'ss01' Style Set 1 in Latin lookup 30 subtable" Idieresis.ss01
Substitution2: "'salt' Stylistic Alternatives in Latin lookup 27 subtable" Idieresis.ss01
Substitution2: "'case' Case-Sensitive Forms in Latin lookup 20 subtable" Idieresis.case
Substitution2: "'c2sc' Capitals to Small Capitals in Latin lookup 18 subtable" idieresis.sc
AlternateSubs2: "'aalt' Access All Alternates in Latin lookup 1 subtable" idieresis.sc Idieresis.case Idieresis.ss01
EndChar

StartChar: Idotaccent
Encoding: 304 304 44
Width: 1727
GlyphClass: 2
Flags: MW
HStem: 32 182<132 379 290 379 379 423.5 584 782 835 869 1087 1121> 240 233<1287 1349> 244 100<619 772 619 782 619 772> 244 225<324 382 324 382 619 782> 374 95<619 772> 498 170<290 379 290 290 584 584 584 782 835 835 835 867 1088 1088 1088 1121>
VStem: 132 158<214 498 214 668> 324 165<323.5 388.5 323.5 469 323.5 469> 526 58<314.5 397.5> 782 53<214 244 244 244 469 498 214 498> 869 218<214 442 214 442> 1121 58<313.5 399 313.5 498> 1216 205<322.5 390> 1456 139<313.5 399>
LayerCount: 2
Fore
SplineSet
1627 0 m 1x87f4
 1627 700 l 1
 100 700 l 1
 100 0 l 1
 1627 0 l 1x87f4
132 32 m 1
 132 668 l 1
 1595 668 l 1
 1595 32 l 1
 132 32 l 1
1456 356 m 0
 1456 442 1401 503 1318 503 c 0
 1235 503 1179 442 1179 356 c 0
 1179 271 1235 211 1318 211 c 0
 1401 211 1456 271 1456 356 c 0
526 356 m 0
 526 439 468 498 379 498 c 2
 290 498 l 1
 290 214 l 1
 379 214 l 2
 468 214 526 273 526 356 c 0
619 469 m 1x0840
 782 469 l 1x0840
 782 498 l 1
 584 498 l 1
 584 214 l 1
 782 214 l 1x84c0
 782 244 l 1
 619 244 l 1
 619 344 l 1
 772 344 l 1x2040
 772 374 l 1
 619 374 l 1
 619 469 l 1x0840
1121 498 m 1x8470
 1088 498 l 1
 977 362 l 1
 867 498 l 1
 835 498 l 1
 835 214 l 1
 869 214 l 1
 869 442 l 1
 971 318 l 1
 985 318 l 1
 1087 442 l 1
 1087 214 l 1
 1121 214 l 1
 1121 498 l 1x8470
1216 356 m 0x4008
 1216 424 1256 473 1318 473 c 0
 1380 473 1421 424 1421 356 c 0
 1421 289 1380 240 1318 240 c 0
 1256 240 1216 289 1216 356 c 0x4008
489 356 m 0x11
 489 291 449 244 382 244 c 2
 324 244 l 1
 324 469 l 1
 382 469 l 2
 449 469 489 421 489 356 c 0x11
EndSplineSet
Substitution2: "'ss01' Style Set 1 in Latin lookup 30 subtable" Idotaccent.ss01
Substitution2: "'salt' Stylistic Alternatives in Latin lookup 27 subtable" Idotaccent.ss01
Substitution2: "'case' Case-Sensitive Forms in Latin lookup 20 subtable" Idotaccent.case
Substitution2: "'c2sc' Capitals to Small Capitals in Latin lookup 18 subtable" i.sc.loclTRK
AlternateSubs2: "'aalt' Access All Alternates in Latin lookup 1 subtable" i.sc.loclTRK Idotaccent.case Idotaccent.ss01
EndChar

StartChar: Igrave
Encoding: 204 204 45
Width: 1727
GlyphClass: 2
Flags: MW
HStem: 32 182<132 379 290 379 379 423.5 584 782 835 869 1087 1121> 240 233<1287 1349> 244 100<619 772 619 782 619 772> 244 225<324 382 324 382 619 782> 374 95<619 772> 498 170<290 379 290 290 584 584 584 782 835 835 835 867 1088 1088 1088 1121>
VStem: 132 158<214 498 214 668> 324 165<323.5 388.5 323.5 469 323.5 469> 526 58<314.5 397.5> 782 53<214 244 244 244 469 498 214 498> 869 218<214 442 214 442> 1121 58<313.5 399 313.5 498> 1216 205<322.5 390> 1456 139<313.5 399>
LayerCount: 2
Fore
SplineSet
1627 0 m 1x87f4
 1627 700 l 1
 100 700 l 1
 100 0 l 1
 1627 0 l 1x87f4
132 32 m 1
 132 668 l 1
 1595 668 l 1
 1595 32 l 1
 132 32 l 1
1456 356 m 0
 1456 442 1401 503 1318 503 c 0
 1235 503 1179 442 1179 356 c 0
 1179 271 1235 211 1318 211 c 0
 1401 211 1456 271 1456 356 c 0
526 356 m 0
 526 439 468 498 379 498 c 2
 290 498 l 1
 290 214 l 1
 379 214 l 2
 468 214 526 273 526 356 c 0
619 469 m 1x0840
 782 469 l 1x0840
 782 498 l 1
 584 498 l 1
 584 214 l 1
 782 214 l 1x84c0
 782 244 l 1
 619 244 l 1
 619 344 l 1
 772 344 l 1x2040
 772 374 l 1
 619 374 l 1
 619 469 l 1x0840
1121 498 m 1x8470
 1088 498 l 1
 977 362 l 1
 867 498 l 1
 835 498 l 1
 835 214 l 1
 869 214 l 1
 869 442 l 1
 971 318 l 1
 985 318 l 1
 1087 442 l 1
 1087 214 l 1
 1121 214 l 1
 1121 498 l 1x8470
1216 356 m 0x4008
 1216 424 1256 473 1318 473 c 0
 1380 473 1421 424 1421 356 c 0
 1421 289 1380 240 1318 240 c 0
 1256 240 1216 289 1216 356 c 0x4008
489 356 m 0x11
 489 291 449 244 382 244 c 2
 324 244 l 1
 324 469 l 1
 382 469 l 2
 449 469 489 421 489 356 c 0x11
EndSplineSet
Substitution2: "'ss01' Style Set 1 in Latin lookup 30 subtable" Igrave.ss01
Substitution2: "'salt' Stylistic Alternatives in Latin lookup 27 subtable" Igrave.ss01
Substitution2: "'case' Case-Sensitive Forms in Latin lookup 20 subtable" Igrave.case
Substitution2: "'c2sc' Capitals to Small Capitals in Latin lookup 18 subtable" igrave.sc
AlternateSubs2: "'aalt' Access All Alternates in Latin lookup 1 subtable" igrave.sc Igrave.case Igrave.ss01
EndChar

StartChar: Imacron
Encoding: 298 298 46
Width: 1727
GlyphClass: 2
Flags: MW
HStem: 32 182<132 379 290 379 379 423.5 584 782 835 869 1087 1121> 240 233<1287 1349> 244 100<619 772 619 782 619 772> 244 225<324 382 324 382 619 782> 374 95<619 772> 498 170<290 379 290 290 584 584 584 782 835 835 835 867 1088 1088 1088 1121>
VStem: 132 158<214 498 214 668> 324 165<323.5 388.5 323.5 469 323.5 469> 526 58<314.5 397.5> 782 53<214 244 244 244 469 498 214 498> 869 218<214 442 214 442> 1121 58<313.5 399 313.5 498> 1216 205<322.5 390> 1456 139<313.5 399>
LayerCount: 2
Fore
SplineSet
1627 0 m 1x87f4
 1627 700 l 1
 100 700 l 1
 100 0 l 1
 1627 0 l 1x87f4
132 32 m 1
 132 668 l 1
 1595 668 l 1
 1595 32 l 1
 132 32 l 1
1456 356 m 0
 1456 442 1401 503 1318 503 c 0
 1235 503 1179 442 1179 356 c 0
 1179 271 1235 211 1318 211 c 0
 1401 211 1456 271 1456 356 c 0
526 356 m 0
 526 439 468 498 379 498 c 2
 290 498 l 1
 290 214 l 1
 379 214 l 2
 468 214 526 273 526 356 c 0
619 469 m 1x0840
 782 469 l 1x0840
 782 498 l 1
 584 498 l 1
 584 214 l 1
 782 214 l 1x84c0
 782 244 l 1
 619 244 l 1
 619 344 l 1
 772 344 l 1x2040
 772 374 l 1
 619 374 l 1
 619 469 l 1x0840
1121 498 m 1x8470
 1088 498 l 1
 977 362 l 1
 867 498 l 1
 835 498 l 1
 835 214 l 1
 869 214 l 1
 869 442 l 1
 971 318 l 1
 985 318 l 1
 1087 442 l 1
 1087 214 l 1
 1121 214 l 1
 1121 498 l 1x8470
1216 356 m 0x4008
 1216 424 1256 473 1318 473 c 0
 1380 473 1421 424 1421 356 c 0
 1421 289 1380 240 1318 240 c 0
 1256 240 1216 289 1216 356 c 0x4008
489 356 m 0x11
 489 291 449 244 382 244 c 2
 324 244 l 1
 324 469 l 1
 382 469 l 2
 449 469 489 421 489 356 c 0x11
EndSplineSet
Substitution2: "'ss01' Style Set 1 in Latin lookup 30 subtable" Imacron.ss01
Substitution2: "'salt' Stylistic Alternatives in Latin lookup 27 subtable" Imacron.ss01
Substitution2: "'case' Case-Sensitive Forms in Latin lookup 20 subtable" Imacron.case
Substitution2: "'c2sc' Capitals to Small Capitals in Latin lookup 18 subtable" imacron.sc
AlternateSubs2: "'aalt' Access All Alternates in Latin lookup 1 subtable" imacron.sc Imacron.case Imacron.ss01
EndChar

StartChar: Iogonek
Encoding: 302 302 47
Width: 1727
GlyphClass: 2
Flags: MW
HStem: 32 182<132 379 290 379 379 423.5 584 782 835 869 1087 1121> 240 233<1287 1349> 244 100<619 772 619 782 619 772> 244 225<324 382 324 382 619 782> 374 95<619 772> 498 170<290 379 290 290 584 584 584 782 835 835 835 867 1088 1088 1088 1121>
VStem: 132 158<214 498 214 668> 324 165<323.5 388.5 323.5 469 323.5 469> 526 58<314.5 397.5> 782 53<214 244 244 244 469 498 214 498> 869 218<214 442 214 442> 1121 58<313.5 399 313.5 498> 1216 205<322.5 390> 1456 139<313.5 399>
LayerCount: 2
Fore
SplineSet
1627 0 m 1x87f4
 1627 700 l 1
 100 700 l 1
 100 0 l 1
 1627 0 l 1x87f4
132 32 m 1
 132 668 l 1
 1595 668 l 1
 1595 32 l 1
 132 32 l 1
1456 356 m 0
 1456 442 1401 503 1318 503 c 0
 1235 503 1179 442 1179 356 c 0
 1179 271 1235 211 1318 211 c 0
 1401 211 1456 271 1456 356 c 0
526 356 m 0
 526 439 468 498 379 498 c 2
 290 498 l 1
 290 214 l 1
 379 214 l 2
 468 214 526 273 526 356 c 0
619 469 m 1x0840
 782 469 l 1x0840
 782 498 l 1
 584 498 l 1
 584 214 l 1
 782 214 l 1x84c0
 782 244 l 1
 619 244 l 1
 619 344 l 1
 772 344 l 1x2040
 772 374 l 1
 619 374 l 1
 619 469 l 1x0840
1121 498 m 1x8470
 1088 498 l 1
 977 362 l 1
 867 498 l 1
 835 498 l 1
 835 214 l 1
 869 214 l 1
 869 442 l 1
 971 318 l 1
 985 318 l 1
 1087 442 l 1
 1087 214 l 1
 1121 214 l 1
 1121 498 l 1x8470
1216 356 m 0x4008
 1216 424 1256 473 1318 473 c 0
 1380 473 1421 424 1421 356 c 0
 1421 289 1380 240 1318 240 c 0
 1256 240 1216 289 1216 356 c 0x4008
489 356 m 0x11
 489 291 449 244 382 244 c 2
 324 244 l 1
 324 469 l 1
 382 469 l 2
 449 469 489 421 489 356 c 0x11
EndSplineSet
Substitution2: "'ss01' Style Set 1 in Latin lookup 30 subtable" Iogonek.ss01
Substitution2: "'salt' Stylistic Alternatives in Latin lookup 27 subtable" Iogonek.ss01
Substitution2: "'case' Case-Sensitive Forms in Latin lookup 20 subtable" Iogonek.case
Substitution2: "'c2sc' Capitals to Small Capitals in Latin lookup 18 subtable" iogonek.sc
AlternateSubs2: "'aalt' Access All Alternates in Latin lookup 1 subtable" iogonek.sc Iogonek.case Iogonek.ss01
EndChar

StartChar: J
Encoding: 74 74 48
Width: 544
GlyphClass: 2
Flags: MW
HStem: -9 57<182 251.5 182 270.5> 680 20G<377 444 444 444>
VStem: 377 67<203 208 208 700>
LayerCount: 2
Fore
SplineSet
61 82 m 1
 112 60 161 48 203 48 c 0
 300 48 377 113 377 203 c 2
 377 700 l 1
 444 700 l 1
 444 208 l 2
 444 82 339 -9 202 -9 c 0
 156 -9 106 -2 61 14 c 1
 61 82 l 1
EndSplineSet
Substitution2: "'ss02' Style Set 2 in Latin lookup 31 subtable" J.ss02
Substitution2: "'c2sc' Capitals to Small Capitals in Latin lookup 18 subtable" j.sc
AlternateSubs2: "'aalt' Access All Alternates in Latin lookup 1 subtable" j.sc J.ss02
EndChar

StartChar: K
Encoding: 75 75 49
Width: 699
GlyphClass: 2
Flags: MW
HStem: 0 21G<106 173 106 106 571 654 571 571> 328 57<173 352 173 352> 680 20G<106 173 173 173 571 648 648 648>
VStem: 106 67<0 328 0 385 385 700>
LayerCount: 2
Fore
SplineSet
571 0 m 1
 352 328 l 1
 173 328 l 1
 173 0 l 1
 106 0 l 1
 106 700 l 1
 173 700 l 1
 173 385 l 1
 352 385 l 1
 571 700 l 1
 648 700 l 1
 409 357 l 1
 654 0 l 1
 571 0 l 1
EndSplineSet
Substitution2: "'c2sc' Capitals to Small Capitals in Latin lookup 18 subtable" k.sc
Substitution2: "'aalt' Access All Alternates in Latin lookup 0 subtable" k.sc
EndChar

StartChar: Kcommaaccent
Encoding: 310 310 50
Width: 1727
GlyphClass: 2
Flags: MW
HStem: 32 182<132 379 290 379 379 423.5 584 782 835 869 1087 1121> 240 233<1287 1349> 244 100<619 772 619 782 619 772> 244 225<324 382 324 382 619 782> 374 95<619 772> 498 170<290 379 290 290 584 584 584 782 835 835 835 867 1088 1088 1088 1121>
VStem: 132 158<214 498 214 668> 324 165<323.5 388.5 323.5 469 323.5 469> 526 58<314.5 397.5> 782 53<214 244 244 244 469 498 214 498> 869 218<214 442 214 442> 1121 58<313.5 399 313.5 498> 1216 205<322.5 390> 1456 139<313.5 399>
LayerCount: 2
Fore
SplineSet
1627 0 m 1x87f4
 1627 700 l 1
 100 700 l 1
 100 0 l 1
 1627 0 l 1x87f4
132 32 m 1
 132 668 l 1
 1595 668 l 1
 1595 32 l 1
 132 32 l 1
1456 356 m 0
 1456 442 1401 503 1318 503 c 0
 1235 503 1179 442 1179 356 c 0
 1179 271 1235 211 1318 211 c 0
 1401 211 1456 271 1456 356 c 0
526 356 m 0
 526 439 468 498 379 498 c 2
 290 498 l 1
 290 214 l 1
 379 214 l 2
 468 214 526 273 526 356 c 0
619 469 m 1x0840
 782 469 l 1x0840
 782 498 l 1
 584 498 l 1
 584 214 l 1
 782 214 l 1x84c0
 782 244 l 1
 619 244 l 1
 619 344 l 1
 772 344 l 1x2040
 772 374 l 1
 619 374 l 1
 619 469 l 1x0840
1121 498 m 1x8470
 1088 498 l 1
 977 362 l 1
 867 498 l 1
 835 498 l 1
 835 214 l 1
 869 214 l 1
 869 442 l 1
 971 318 l 1
 985 318 l 1
 1087 442 l 1
 1087 214 l 1
 1121 214 l 1
 1121 498 l 1x8470
1216 356 m 0x4008
 1216 424 1256 473 1318 473 c 0
 1380 473 1421 424 1421 356 c 0
 1421 289 1380 240 1318 240 c 0
 1256 240 1216 289 1216 356 c 0x4008
489 356 m 0x11
 489 291 449 244 382 244 c 2
 324 244 l 1
 324 469 l 1
 382 469 l 2
 449 469 489 421 489 356 c 0x11
EndSplineSet
Substitution2: "'c2sc' Capitals to Small Capitals in Latin lookup 18 subtable" kcommaaccent.sc
Substitution2: "'aalt' Access All Alternates in Latin lookup 0 subtable" kcommaaccent.sc
EndChar

StartChar: L
Encoding: 76 76 51
Width: 622
GlyphClass: 2
Flags: MW
HStem: 0 57<173 555 173 555> 680 20G<106 173 173 173>
VStem: 106 67<57 57 57 700>
LayerCount: 2
Fore
SplineSet
173 57 m 1
 555 57 l 1
 555 0 l 1
 106 0 l 1
 106 700 l 1
 173 700 l 1
 173 57 l 1
EndSplineSet
Substitution2: "'c2sc' Capitals to Small Capitals in Latin lookup 18 subtable" l.sc
Substitution2: "'aalt' Access All Alternates in Latin lookup 0 subtable" l.sc
EndChar

StartChar: Lacute
Encoding: 313 313 52
Width: 1727
GlyphClass: 2
Flags: MW
HStem: 32 182<132 379 290 379 379 423.5 584 782 835 869 1087 1121> 240 233<1287 1349> 244 100<619 772 619 782 619 772> 244 225<324 382 324 382 619 782> 374 95<619 772> 498 170<290 379 290 290 584 584 584 782 835 835 835 867 1088 1088 1088 1121>
VStem: 132 158<214 498 214 668> 324 165<323.5 388.5 323.5 469 323.5 469> 526 58<314.5 397.5> 782 53<214 244 244 244 469 498 214 498> 869 218<214 442 214 442> 1121 58<313.5 399 313.5 498> 1216 205<322.5 390> 1456 139<313.5 399>
LayerCount: 2
Fore
SplineSet
1627 0 m 1x87f4
 1627 700 l 1
 100 700 l 1
 100 0 l 1
 1627 0 l 1x87f4
132 32 m 1
 132 668 l 1
 1595 668 l 1
 1595 32 l 1
 132 32 l 1
1456 356 m 0
 1456 442 1401 503 1318 503 c 0
 1235 503 1179 442 1179 356 c 0
 1179 271 1235 211 1318 211 c 0
 1401 211 1456 271 1456 356 c 0
526 356 m 0
 526 439 468 498 379 498 c 2
 290 498 l 1
 290 214 l 1
 379 214 l 2
 468 214 526 273 526 356 c 0
619 469 m 1x0840
 782 469 l 1x0840
 782 498 l 1
 584 498 l 1
 584 214 l 1
 782 214 l 1x84c0
 782 244 l 1
 619 244 l 1
 619 344 l 1
 772 344 l 1x2040
 772 374 l 1
 619 374 l 1
 619 469 l 1x0840
1121 498 m 1x8470
 1088 498 l 1
 977 362 l 1
 867 498 l 1
 835 498 l 1
 835 214 l 1
 869 214 l 1
 869 442 l 1
 971 318 l 1
 985 318 l 1
 1087 442 l 1
 1087 214 l 1
 1121 214 l 1
 1121 498 l 1x8470
1216 356 m 0x4008
 1216 424 1256 473 1318 473 c 0
 1380 473 1421 424 1421 356 c 0
 1421 289 1380 240 1318 240 c 0
 1256 240 1216 289 1216 356 c 0x4008
489 356 m 0x11
 489 291 449 244 382 244 c 2
 324 244 l 1
 324 469 l 1
 382 469 l 2
 449 469 489 421 489 356 c 0x11
EndSplineSet
Substitution2: "'c2sc' Capitals to Small Capitals in Latin lookup 18 subtable" lacute.sc
Substitution2: "'aalt' Access All Alternates in Latin lookup 0 subtable" lacute.sc
EndChar

StartChar: Lcaron
Encoding: 317 317 53
Width: 1727
GlyphClass: 2
Flags: MW
HStem: 32 182<132 379 290 379 379 423.5 584 782 835 869 1087 1121> 240 233<1287 1349> 244 100<619 772 619 782 619 772> 244 225<324 382 324 382 619 782> 374 95<619 772> 498 170<290 379 290 290 584 584 584 782 835 835 835 867 1088 1088 1088 1121>
VStem: 132 158<214 498 214 668> 324 165<323.5 388.5 323.5 469 323.5 469> 526 58<314.5 397.5> 782 53<214 244 244 244 469 498 214 498> 869 218<214 442 214 442> 1121 58<313.5 399 313.5 498> 1216 205<322.5 390> 1456 139<313.5 399>
LayerCount: 2
Fore
SplineSet
1627 0 m 1x87f4
 1627 700 l 1
 100 700 l 1
 100 0 l 1
 1627 0 l 1x87f4
132 32 m 1
 132 668 l 1
 1595 668 l 1
 1595 32 l 1
 132 32 l 1
1456 356 m 0
 1456 442 1401 503 1318 503 c 0
 1235 503 1179 442 1179 356 c 0
 1179 271 1235 211 1318 211 c 0
 1401 211 1456 271 1456 356 c 0
526 356 m 0
 526 439 468 498 379 498 c 2
 290 498 l 1
 290 214 l 1
 379 214 l 2
 468 214 526 273 526 356 c 0
619 469 m 1x0840
 782 469 l 1x0840
 782 498 l 1
 584 498 l 1
 584 214 l 1
 782 214 l 1x84c0
 782 244 l 1
 619 244 l 1
 619 344 l 1
 772 344 l 1x2040
 772 374 l 1
 619 374 l 1
 619 469 l 1x0840
1121 498 m 1x8470
 1088 498 l 1
 977 362 l 1
 867 498 l 1
 835 498 l 1
 835 214 l 1
 869 214 l 1
 869 442 l 1
 971 318 l 1
 985 318 l 1
 1087 442 l 1
 1087 214 l 1
 1121 214 l 1
 1121 498 l 1x8470
1216 356 m 0x4008
 1216 424 1256 473 1318 473 c 0
 1380 473 1421 424 1421 356 c 0
 1421 289 1380 240 1318 240 c 0
 1256 240 1216 289 1216 356 c 0x4008
489 356 m 0x11
 489 291 449 244 382 244 c 2
 324 244 l 1
 324 469 l 1
 382 469 l 2
 449 469 489 421 489 356 c 0x11
EndSplineSet
Substitution2: "'c2sc' Capitals to Small Capitals in Latin lookup 18 subtable" lcaron.sc
Substitution2: "'aalt' Access All Alternates in Latin lookup 0 subtable" lcaron.sc
EndChar

StartChar: Lcommaaccent
Encoding: 315 315 54
Width: 1727
GlyphClass: 2
Flags: MW
HStem: 32 182<132 379 290 379 379 423.5 584 782 835 869 1087 1121> 240 233<1287 1349> 244 100<619 772 619 782 619 772> 244 225<324 382 324 382 619 782> 374 95<619 772> 498 170<290 379 290 290 584 584 584 782 835 835 835 867 1088 1088 1088 1121>
VStem: 132 158<214 498 214 668> 324 165<323.5 388.5 323.5 469 323.5 469> 526 58<314.5 397.5> 782 53<214 244 244 244 469 498 214 498> 869 218<214 442 214 442> 1121 58<313.5 399 313.5 498> 1216 205<322.5 390> 1456 139<313.5 399>
LayerCount: 2
Fore
SplineSet
1627 0 m 1x87f4
 1627 700 l 1
 100 700 l 1
 100 0 l 1
 1627 0 l 1x87f4
132 32 m 1
 132 668 l 1
 1595 668 l 1
 1595 32 l 1
 132 32 l 1
1456 356 m 0
 1456 442 1401 503 1318 503 c 0
 1235 503 1179 442 1179 356 c 0
 1179 271 1235 211 1318 211 c 0
 1401 211 1456 271 1456 356 c 0
526 356 m 0
 526 439 468 498 379 498 c 2
 290 498 l 1
 290 214 l 1
 379 214 l 2
 468 214 526 273 526 356 c 0
619 469 m 1x0840
 782 469 l 1x0840
 782 498 l 1
 584 498 l 1
 584 214 l 1
 782 214 l 1x84c0
 782 244 l 1
 619 244 l 1
 619 344 l 1
 772 344 l 1x2040
 772 374 l 1
 619 374 l 1
 619 469 l 1x0840
1121 498 m 1x8470
 1088 498 l 1
 977 362 l 1
 867 498 l 1
 835 498 l 1
 835 214 l 1
 869 214 l 1
 869 442 l 1
 971 318 l 1
 985 318 l 1
 1087 442 l 1
 1087 214 l 1
 1121 214 l 1
 1121 498 l 1x8470
1216 356 m 0x4008
 1216 424 1256 473 1318 473 c 0
 1380 473 1421 424 1421 356 c 0
 1421 289 1380 240 1318 240 c 0
 1256 240 1216 289 1216 356 c 0x4008
489 356 m 0x11
 489 291 449 244 382 244 c 2
 324 244 l 1
 324 469 l 1
 382 469 l 2
 449 469 489 421 489 356 c 0x11
EndSplineSet
Substitution2: "'c2sc' Capitals to Small Capitals in Latin lookup 18 subtable" lcommaaccent.sc
Substitution2: "'aalt' Access All Alternates in Latin lookup 0 subtable" lcommaaccent.sc
EndChar

StartChar: Lslash
Encoding: 321 321 55
Width: 1727
GlyphClass: 2
Flags: MW
HStem: 32 182<132 379 290 379 379 423.5 584 782 835 869 1087 1121> 240 233<1287 1349> 244 100<619 772 619 782 619 772> 244 225<324 382 324 382 619 782> 374 95<619 772> 498 170<290 379 290 290 584 584 584 782 835 835 835 867 1088 1088 1088 1121>
VStem: 132 158<214 498 214 668> 324 165<323.5 388.5 323.5 469 323.5 469> 526 58<314.5 397.5> 782 53<214 244 244 244 469 498 214 498> 869 218<214 442 214 442> 1121 58<313.5 399 313.5 498> 1216 205<322.5 390> 1456 139<313.5 399>
LayerCount: 2
Fore
SplineSet
1627 0 m 1x87f4
 1627 700 l 1
 100 700 l 1
 100 0 l 1
 1627 0 l 1x87f4
132 32 m 1
 132 668 l 1
 1595 668 l 1
 1595 32 l 1
 132 32 l 1
1456 356 m 0
 1456 442 1401 503 1318 503 c 0
 1235 503 1179 442 1179 356 c 0
 1179 271 1235 211 1318 211 c 0
 1401 211 1456 271 1456 356 c 0
526 356 m 0
 526 439 468 498 379 498 c 2
 290 498 l 1
 290 214 l 1
 379 214 l 2
 468 214 526 273 526 356 c 0
619 469 m 1x0840
 782 469 l 1x0840
 782 498 l 1
 584 498 l 1
 584 214 l 1
 782 214 l 1x84c0
 782 244 l 1
 619 244 l 1
 619 344 l 1
 772 344 l 1x2040
 772 374 l 1
 619 374 l 1
 619 469 l 1x0840
1121 498 m 1x8470
 1088 498 l 1
 977 362 l 1
 867 498 l 1
 835 498 l 1
 835 214 l 1
 869 214 l 1
 869 442 l 1
 971 318 l 1
 985 318 l 1
 1087 442 l 1
 1087 214 l 1
 1121 214 l 1
 1121 498 l 1x8470
1216 356 m 0x4008
 1216 424 1256 473 1318 473 c 0
 1380 473 1421 424 1421 356 c 0
 1421 289 1380 240 1318 240 c 0
 1256 240 1216 289 1216 356 c 0x4008
489 356 m 0x11
 489 291 449 244 382 244 c 2
 324 244 l 1
 324 469 l 1
 382 469 l 2
 449 469 489 421 489 356 c 0x11
EndSplineSet
Substitution2: "'c2sc' Capitals to Small Capitals in Latin lookup 18 subtable" lslash.sc
Substitution2: "'aalt' Access All Alternates in Latin lookup 0 subtable" lslash.sc
EndChar

StartChar: M
Encoding: 77 77 56
Width: 869
GlyphClass: 2
Flags: MW
HStem: 0 21G<106 173 106 106 697 763 697 697> 680 20G<106 165 165 165 704 763 763 763>
VStem: 106 67<0 584 0 700> 697 66<0 586 586 586>
LayerCount: 2
Fore
SplineSet
704 700 m 1
 763 700 l 1
 763 0 l 1
 697 0 l 1
 697 586 l 1
 441 220 l 1
 428 220 l 1
 173 584 l 1
 173 0 l 1
 106 0 l 1
 106 700 l 1
 165 700 l 1
 435 310 l 1
 704 700 l 1
EndSplineSet
Substitution2: "'c2sc' Capitals to Small Capitals in Latin lookup 18 subtable" m.sc
Substitution2: "'aalt' Access All Alternates in Latin lookup 0 subtable" m.sc
EndChar

StartChar: N
Encoding: 78 78 57
Width: 752
GlyphClass: 2
Flags: MW
HStem: 0 21G<106 173 106 106 583 646 583 583> 680 20G<106 169 169 169 579 646 646 646>
VStem: 106 67<0 586 0 700> 579 67<108 700 0 700>
LayerCount: 2
Fore
SplineSet
579 700 m 1
 646 700 l 1
 646 0 l 1
 583 0 l 1
 173 586 l 1
 173 0 l 1
 106 0 l 1
 106 700 l 1
 169 700 l 1
 579 108 l 1
 579 700 l 1
EndSplineSet
Substitution2: "'c2sc' Capitals to Small Capitals in Latin lookup 18 subtable" n.sc
Substitution2: "'aalt' Access All Alternates in Latin lookup 0 subtable" n.sc
EndChar

StartChar: Nacute
Encoding: 323 323 58
Width: 1727
GlyphClass: 2
Flags: MW
HStem: 32 182<132 379 290 379 379 423.5 584 782 835 869 1087 1121> 240 233<1287 1349> 244 100<619 772 619 782 619 772> 244 225<324 382 324 382 619 782> 374 95<619 772> 498 170<290 379 290 290 584 584 584 782 835 835 835 867 1088 1088 1088 1121>
VStem: 132 158<214 498 214 668> 324 165<323.5 388.5 323.5 469 323.5 469> 526 58<314.5 397.5> 782 53<214 244 244 244 469 498 214 498> 869 218<214 442 214 442> 1121 58<313.5 399 313.5 498> 1216 205<322.5 390> 1456 139<313.5 399>
LayerCount: 2
Fore
SplineSet
1627 0 m 1x87f4
 1627 700 l 1
 100 700 l 1
 100 0 l 1
 1627 0 l 1x87f4
132 32 m 1
 132 668 l 1
 1595 668 l 1
 1595 32 l 1
 132 32 l 1
1456 356 m 0
 1456 442 1401 503 1318 503 c 0
 1235 503 1179 442 1179 356 c 0
 1179 271 1235 211 1318 211 c 0
 1401 211 1456 271 1456 356 c 0
526 356 m 0
 526 439 468 498 379 498 c 2
 290 498 l 1
 290 214 l 1
 379 214 l 2
 468 214 526 273 526 356 c 0
619 469 m 1x0840
 782 469 l 1x0840
 782 498 l 1
 584 498 l 1
 584 214 l 1
 782 214 l 1x84c0
 782 244 l 1
 619 244 l 1
 619 344 l 1
 772 344 l 1x2040
 772 374 l 1
 619 374 l 1
 619 469 l 1x0840
1121 498 m 1x8470
 1088 498 l 1
 977 362 l 1
 867 498 l 1
 835 498 l 1
 835 214 l 1
 869 214 l 1
 869 442 l 1
 971 318 l 1
 985 318 l 1
 1087 442 l 1
 1087 214 l 1
 1121 214 l 1
 1121 498 l 1x8470
1216 356 m 0x4008
 1216 424 1256 473 1318 473 c 0
 1380 473 1421 424 1421 356 c 0
 1421 289 1380 240 1318 240 c 0
 1256 240 1216 289 1216 356 c 0x4008
489 356 m 0x11
 489 291 449 244 382 244 c 2
 324 244 l 1
 324 469 l 1
 382 469 l 2
 449 469 489 421 489 356 c 0x11
EndSplineSet
Substitution2: "'c2sc' Capitals to Small Capitals in Latin lookup 18 subtable" nacute.sc
Substitution2: "'aalt' Access All Alternates in Latin lookup 0 subtable" nacute.sc
EndChar

StartChar: Ncaron
Encoding: 327 327 59
Width: 1727
GlyphClass: 2
Flags: MW
HStem: 32 182<132 379 290 379 379 423.5 584 782 835 869 1087 1121> 240 233<1287 1349> 244 100<619 772 619 782 619 772> 244 225<324 382 324 382 619 782> 374 95<619 772> 498 170<290 379 290 290 584 584 584 782 835 835 835 867 1088 1088 1088 1121>
VStem: 132 158<214 498 214 668> 324 165<323.5 388.5 323.5 469 323.5 469> 526 58<314.5 397.5> 782 53<214 244 244 244 469 498 214 498> 869 218<214 442 214 442> 1121 58<313.5 399 313.5 498> 1216 205<322.5 390> 1456 139<313.5 399>
LayerCount: 2
Fore
SplineSet
1627 0 m 1x87f4
 1627 700 l 1
 100 700 l 1
 100 0 l 1
 1627 0 l 1x87f4
132 32 m 1
 132 668 l 1
 1595 668 l 1
 1595 32 l 1
 132 32 l 1
1456 356 m 0
 1456 442 1401 503 1318 503 c 0
 1235 503 1179 442 1179 356 c 0
 1179 271 1235 211 1318 211 c 0
 1401 211 1456 271 1456 356 c 0
526 356 m 0
 526 439 468 498 379 498 c 2
 290 498 l 1
 290 214 l 1
 379 214 l 2
 468 214 526 273 526 356 c 0
619 469 m 1x0840
 782 469 l 1x0840
 782 498 l 1
 584 498 l 1
 584 214 l 1
 782 214 l 1x84c0
 782 244 l 1
 619 244 l 1
 619 344 l 1
 772 344 l 1x2040
 772 374 l 1
 619 374 l 1
 619 469 l 1x0840
1121 498 m 1x8470
 1088 498 l 1
 977 362 l 1
 867 498 l 1
 835 498 l 1
 835 214 l 1
 869 214 l 1
 869 442 l 1
 971 318 l 1
 985 318 l 1
 1087 442 l 1
 1087 214 l 1
 1121 214 l 1
 1121 498 l 1x8470
1216 356 m 0x4008
 1216 424 1256 473 1318 473 c 0
 1380 473 1421 424 1421 356 c 0
 1421 289 1380 240 1318 240 c 0
 1256 240 1216 289 1216 356 c 0x4008
489 356 m 0x11
 489 291 449 244 382 244 c 2
 324 244 l 1
 324 469 l 1
 382 469 l 2
 449 469 489 421 489 356 c 0x11
EndSplineSet
Substitution2: "'c2sc' Capitals to Small Capitals in Latin lookup 18 subtable" ncaron.sc
Substitution2: "'aalt' Access All Alternates in Latin lookup 0 subtable" ncaron.sc
EndChar

StartChar: Ncommaaccent
Encoding: 325 325 60
Width: 1727
GlyphClass: 2
Flags: MW
HStem: 32 182<132 379 290 379 379 423.5 584 782 835 869 1087 1121> 240 233<1287 1349> 244 100<619 772 619 782 619 772> 244 225<324 382 324 382 619 782> 374 95<619 772> 498 170<290 379 290 290 584 584 584 782 835 835 835 867 1088 1088 1088 1121>
VStem: 132 158<214 498 214 668> 324 165<323.5 388.5 323.5 469 323.5 469> 526 58<314.5 397.5> 782 53<214 244 244 244 469 498 214 498> 869 218<214 442 214 442> 1121 58<313.5 399 313.5 498> 1216 205<322.5 390> 1456 139<313.5 399>
LayerCount: 2
Fore
SplineSet
1627 0 m 1x87f4
 1627 700 l 1
 100 700 l 1
 100 0 l 1
 1627 0 l 1x87f4
132 32 m 1
 132 668 l 1
 1595 668 l 1
 1595 32 l 1
 132 32 l 1
1456 356 m 0
 1456 442 1401 503 1318 503 c 0
 1235 503 1179 442 1179 356 c 0
 1179 271 1235 211 1318 211 c 0
 1401 211 1456 271 1456 356 c 0
526 356 m 0
 526 439 468 498 379 498 c 2
 290 498 l 1
 290 214 l 1
 379 214 l 2
 468 214 526 273 526 356 c 0
619 469 m 1x0840
 782 469 l 1x0840
 782 498 l 1
 584 498 l 1
 584 214 l 1
 782 214 l 1x84c0
 782 244 l 1
 619 244 l 1
 619 344 l 1
 772 344 l 1x2040
 772 374 l 1
 619 374 l 1
 619 469 l 1x0840
1121 498 m 1x8470
 1088 498 l 1
 977 362 l 1
 867 498 l 1
 835 498 l 1
 835 214 l 1
 869 214 l 1
 869 442 l 1
 971 318 l 1
 985 318 l 1
 1087 442 l 1
 1087 214 l 1
 1121 214 l 1
 1121 498 l 1x8470
1216 356 m 0x4008
 1216 424 1256 473 1318 473 c 0
 1380 473 1421 424 1421 356 c 0
 1421 289 1380 240 1318 240 c 0
 1256 240 1216 289 1216 356 c 0x4008
489 356 m 0x11
 489 291 449 244 382 244 c 2
 324 244 l 1
 324 469 l 1
 382 469 l 2
 449 469 489 421 489 356 c 0x11
EndSplineSet
Substitution2: "'c2sc' Capitals to Small Capitals in Latin lookup 18 subtable" ncommaaccent.sc
Substitution2: "'aalt' Access All Alternates in Latin lookup 0 subtable" ncommaaccent.sc
EndChar

StartChar: Eng
Encoding: 330 330 61
Width: 1727
GlyphClass: 2
Flags: MW
HStem: 32 182<132 379 290 379 379 423.5 584 782 835 869 1087 1121> 240 233<1287 1349> 244 100<619 772 619 782 619 772> 244 225<324 382 324 382 619 782> 374 95<619 772> 498 170<290 379 290 290 584 584 584 782 835 835 835 867 1088 1088 1088 1121>
VStem: 132 158<214 498 214 668> 324 165<323.5 388.5 323.5 469 323.5 469> 526 58<314.5 397.5> 782 53<214 244 244 244 469 498 214 498> 869 218<214 442 214 442> 1121 58<313.5 399 313.5 498> 1216 205<322.5 390> 1456 139<313.5 399>
LayerCount: 2
Fore
SplineSet
1627 0 m 1x87f4
 1627 700 l 1
 100 700 l 1
 100 0 l 1
 1627 0 l 1x87f4
132 32 m 1
 132 668 l 1
 1595 668 l 1
 1595 32 l 1
 132 32 l 1
1456 356 m 0
 1456 442 1401 503 1318 503 c 0
 1235 503 1179 442 1179 356 c 0
 1179 271 1235 211 1318 211 c 0
 1401 211 1456 271 1456 356 c 0
526 356 m 0
 526 439 468 498 379 498 c 2
 290 498 l 1
 290 214 l 1
 379 214 l 2
 468 214 526 273 526 356 c 0
619 469 m 1x0840
 782 469 l 1x0840
 782 498 l 1
 584 498 l 1
 584 214 l 1
 782 214 l 1x84c0
 782 244 l 1
 619 244 l 1
 619 344 l 1
 772 344 l 1x2040
 772 374 l 1
 619 374 l 1
 619 469 l 1x0840
1121 498 m 1x8470
 1088 498 l 1
 977 362 l 1
 867 498 l 1
 835 498 l 1
 835 214 l 1
 869 214 l 1
 869 442 l 1
 971 318 l 1
 985 318 l 1
 1087 442 l 1
 1087 214 l 1
 1121 214 l 1
 1121 498 l 1x8470
1216 356 m 0x4008
 1216 424 1256 473 1318 473 c 0
 1380 473 1421 424 1421 356 c 0
 1421 289 1380 240 1318 240 c 0
 1256 240 1216 289 1216 356 c 0x4008
489 356 m 0x11
 489 291 449 244 382 244 c 2
 324 244 l 1
 324 469 l 1
 382 469 l 2
 449 469 489 421 489 356 c 0x11
EndSplineSet
Substitution2: "'c2sc' Capitals to Small Capitals in Latin lookup 18 subtable" eng.sc
Substitution2: "'aalt' Access All Alternates in Latin lookup 0 subtable" eng.sc
EndChar

StartChar: Ntilde
Encoding: 209 209 62
Width: 1727
GlyphClass: 2
Flags: MW
HStem: 32 182<132 379 290 379 379 423.5 584 782 835 869 1087 1121> 240 233<1287 1349> 244 100<619 772 619 782 619 772> 244 225<324 382 324 382 619 782> 374 95<619 772> 498 170<290 379 290 290 584 584 584 782 835 835 835 867 1088 1088 1088 1121>
VStem: 132 158<214 498 214 668> 324 165<323.5 388.5 323.5 469 323.5 469> 526 58<314.5 397.5> 782 53<214 244 244 244 469 498 214 498> 869 218<214 442 214 442> 1121 58<313.5 399 313.5 498> 1216 205<322.5 390> 1456 139<313.5 399>
LayerCount: 2
Fore
SplineSet
1627 0 m 1x87f4
 1627 700 l 1
 100 700 l 1
 100 0 l 1
 1627 0 l 1x87f4
132 32 m 1
 132 668 l 1
 1595 668 l 1
 1595 32 l 1
 132 32 l 1
1456 356 m 0
 1456 442 1401 503 1318 503 c 0
 1235 503 1179 442 1179 356 c 0
 1179 271 1235 211 1318 211 c 0
 1401 211 1456 271 1456 356 c 0
526 356 m 0
 526 439 468 498 379 498 c 2
 290 498 l 1
 290 214 l 1
 379 214 l 2
 468 214 526 273 526 356 c 0
619 469 m 1x0840
 782 469 l 1x0840
 782 498 l 1
 584 498 l 1
 584 214 l 1
 782 214 l 1x84c0
 782 244 l 1
 619 244 l 1
 619 344 l 1
 772 344 l 1x2040
 772 374 l 1
 619 374 l 1
 619 469 l 1x0840
1121 498 m 1x8470
 1088 498 l 1
 977 362 l 1
 867 498 l 1
 835 498 l 1
 835 214 l 1
 869 214 l 1
 869 442 l 1
 971 318 l 1
 985 318 l 1
 1087 442 l 1
 1087 214 l 1
 1121 214 l 1
 1121 498 l 1x8470
1216 356 m 0x4008
 1216 424 1256 473 1318 473 c 0
 1380 473 1421 424 1421 356 c 0
 1421 289 1380 240 1318 240 c 0
 1256 240 1216 289 1216 356 c 0x4008
489 356 m 0x11
 489 291 449 244 382 244 c 2
 324 244 l 1
 324 469 l 1
 382 469 l 2
 449 469 489 421 489 356 c 0x11
EndSplineSet
Substitution2: "'c2sc' Capitals to Small Capitals in Latin lookup 18 subtable" ntilde.sc
Substitution2: "'aalt' Access All Alternates in Latin lookup 0 subtable" ntilde.sc
EndChar

StartChar: O
Encoding: 79 79 63
Width: 815
GlyphClass: 2
Flags: MW
HStem: -10 57<326.5 489 326.5 509.5> 654 57<326.5 489>
VStem: 70 69<262 437.5 262 454.5> 676 69<262 437.5>
LayerCount: 2
Fore
SplineSet
408 711 m 0
 611 711 745 560 745 349 c 0
 745 141 611 -10 408 -10 c 0
 204 -10 70 141 70 349 c 0
 70 560 204 711 408 711 c 0
408 654 m 0
 245 654 139 526 139 349 c 0
 139 175 245 47 408 47 c 0
 570 47 676 175 676 349 c 0
 676 526 570 654 408 654 c 0
EndSplineSet
Substitution2: "Single Substitution lookup 44 subtable" ordmasculine
Substitution2: "'c2sc' Capitals to Small Capitals in Latin lookup 18 subtable" o.sc
AlternateSubs2: "'aalt' Access All Alternates in Latin lookup 1 subtable" ordmasculine o.sc
EndChar

StartChar: Oacute
Encoding: 211 211 64
Width: 1727
GlyphClass: 2
Flags: MW
HStem: 32 182<132 379 290 379 379 423.5 584 782 835 869 1087 1121> 240 233<1287 1349> 244 100<619 772 619 782 619 772> 244 225<324 382 324 382 619 782> 374 95<619 772> 498 170<290 379 290 290 584 584 584 782 835 835 835 867 1088 1088 1088 1121>
VStem: 132 158<214 498 214 668> 324 165<323.5 388.5 323.5 469 323.5 469> 526 58<314.5 397.5> 782 53<214 244 244 244 469 498 214 498> 869 218<214 442 214 442> 1121 58<313.5 399 313.5 498> 1216 205<322.5 390> 1456 139<313.5 399>
LayerCount: 2
Fore
SplineSet
1627 0 m 1x87f4
 1627 700 l 1
 100 700 l 1
 100 0 l 1
 1627 0 l 1x87f4
132 32 m 1
 132 668 l 1
 1595 668 l 1
 1595 32 l 1
 132 32 l 1
1456 356 m 0
 1456 442 1401 503 1318 503 c 0
 1235 503 1179 442 1179 356 c 0
 1179 271 1235 211 1318 211 c 0
 1401 211 1456 271 1456 356 c 0
526 356 m 0
 526 439 468 498 379 498 c 2
 290 498 l 1
 290 214 l 1
 379 214 l 2
 468 214 526 273 526 356 c 0
619 469 m 1x0840
 782 469 l 1x0840
 782 498 l 1
 584 498 l 1
 584 214 l 1
 782 214 l 1x84c0
 782 244 l 1
 619 244 l 1
 619 344 l 1
 772 344 l 1x2040
 772 374 l 1
 619 374 l 1
 619 469 l 1x0840
1121 498 m 1x8470
 1088 498 l 1
 977 362 l 1
 867 498 l 1
 835 498 l 1
 835 214 l 1
 869 214 l 1
 869 442 l 1
 971 318 l 1
 985 318 l 1
 1087 442 l 1
 1087 214 l 1
 1121 214 l 1
 1121 498 l 1x8470
1216 356 m 0x4008
 1216 424 1256 473 1318 473 c 0
 1380 473 1421 424 1421 356 c 0
 1421 289 1380 240 1318 240 c 0
 1256 240 1216 289 1216 356 c 0x4008
489 356 m 0x11
 489 291 449 244 382 244 c 2
 324 244 l 1
 324 469 l 1
 382 469 l 2
 449 469 489 421 489 356 c 0x11
EndSplineSet
Substitution2: "'c2sc' Capitals to Small Capitals in Latin lookup 18 subtable" oacute.sc
Substitution2: "'aalt' Access All Alternates in Latin lookup 0 subtable" oacute.sc
EndChar

StartChar: Ocircumflex
Encoding: 212 212 65
Width: 1727
GlyphClass: 2
Flags: MW
HStem: 32 182<132 379 290 379 379 423.5 584 782 835 869 1087 1121> 240 233<1287 1349> 244 100<619 772 619 782 619 772> 244 225<324 382 324 382 619 782> 374 95<619 772> 498 170<290 379 290 290 584 584 584 782 835 835 835 867 1088 1088 1088 1121>
VStem: 132 158<214 498 214 668> 324 165<323.5 388.5 323.5 469 323.5 469> 526 58<314.5 397.5> 782 53<214 244 244 244 469 498 214 498> 869 218<214 442 214 442> 1121 58<313.5 399 313.5 498> 1216 205<322.5 390> 1456 139<313.5 399>
LayerCount: 2
Fore
SplineSet
1627 0 m 1x87f4
 1627 700 l 1
 100 700 l 1
 100 0 l 1
 1627 0 l 1x87f4
132 32 m 1
 132 668 l 1
 1595 668 l 1
 1595 32 l 1
 132 32 l 1
1456 356 m 0
 1456 442 1401 503 1318 503 c 0
 1235 503 1179 442 1179 356 c 0
 1179 271 1235 211 1318 211 c 0
 1401 211 1456 271 1456 356 c 0
526 356 m 0
 526 439 468 498 379 498 c 2
 290 498 l 1
 290 214 l 1
 379 214 l 2
 468 214 526 273 526 356 c 0
619 469 m 1x0840
 782 469 l 1x0840
 782 498 l 1
 584 498 l 1
 584 214 l 1
 782 214 l 1x84c0
 782 244 l 1
 619 244 l 1
 619 344 l 1
 772 344 l 1x2040
 772 374 l 1
 619 374 l 1
 619 469 l 1x0840
1121 498 m 1x8470
 1088 498 l 1
 977 362 l 1
 867 498 l 1
 835 498 l 1
 835 214 l 1
 869 214 l 1
 869 442 l 1
 971 318 l 1
 985 318 l 1
 1087 442 l 1
 1087 214 l 1
 1121 214 l 1
 1121 498 l 1x8470
1216 356 m 0x4008
 1216 424 1256 473 1318 473 c 0
 1380 473 1421 424 1421 356 c 0
 1421 289 1380 240 1318 240 c 0
 1256 240 1216 289 1216 356 c 0x4008
489 356 m 0x11
 489 291 449 244 382 244 c 2
 324 244 l 1
 324 469 l 1
 382 469 l 2
 449 469 489 421 489 356 c 0x11
EndSplineSet
Substitution2: "'c2sc' Capitals to Small Capitals in Latin lookup 18 subtable" ocircumflex.sc
Substitution2: "'aalt' Access All Alternates in Latin lookup 0 subtable" ocircumflex.sc
EndChar

StartChar: Odieresis
Encoding: 214 214 66
Width: 1727
GlyphClass: 2
Flags: MW
HStem: 32 182<132 379 290 379 379 423.5 584 782 835 869 1087 1121> 240 233<1287 1349> 244 100<619 772 619 782 619 772> 244 225<324 382 324 382 619 782> 374 95<619 772> 498 170<290 379 290 290 584 584 584 782 835 835 835 867 1088 1088 1088 1121>
VStem: 132 158<214 498 214 668> 324 165<323.5 388.5 323.5 469 323.5 469> 526 58<314.5 397.5> 782 53<214 244 244 244 469 498 214 498> 869 218<214 442 214 442> 1121 58<313.5 399 313.5 498> 1216 205<322.5 390> 1456 139<313.5 399>
LayerCount: 2
Fore
SplineSet
1627 0 m 1x87f4
 1627 700 l 1
 100 700 l 1
 100 0 l 1
 1627 0 l 1x87f4
132 32 m 1
 132 668 l 1
 1595 668 l 1
 1595 32 l 1
 132 32 l 1
1456 356 m 0
 1456 442 1401 503 1318 503 c 0
 1235 503 1179 442 1179 356 c 0
 1179 271 1235 211 1318 211 c 0
 1401 211 1456 271 1456 356 c 0
526 356 m 0
 526 439 468 498 379 498 c 2
 290 498 l 1
 290 214 l 1
 379 214 l 2
 468 214 526 273 526 356 c 0
619 469 m 1x0840
 782 469 l 1x0840
 782 498 l 1
 584 498 l 1
 584 214 l 1
 782 214 l 1x84c0
 782 244 l 1
 619 244 l 1
 619 344 l 1
 772 344 l 1x2040
 772 374 l 1
 619 374 l 1
 619 469 l 1x0840
1121 498 m 1x8470
 1088 498 l 1
 977 362 l 1
 867 498 l 1
 835 498 l 1
 835 214 l 1
 869 214 l 1
 869 442 l 1
 971 318 l 1
 985 318 l 1
 1087 442 l 1
 1087 214 l 1
 1121 214 l 1
 1121 498 l 1x8470
1216 356 m 0x4008
 1216 424 1256 473 1318 473 c 0
 1380 473 1421 424 1421 356 c 0
 1421 289 1380 240 1318 240 c 0
 1256 240 1216 289 1216 356 c 0x4008
489 356 m 0x11
 489 291 449 244 382 244 c 2
 324 244 l 1
 324 469 l 1
 382 469 l 2
 449 469 489 421 489 356 c 0x11
EndSplineSet
Substitution2: "'c2sc' Capitals to Small Capitals in Latin lookup 18 subtable" odieresis.sc
Substitution2: "'aalt' Access All Alternates in Latin lookup 0 subtable" odieresis.sc
EndChar

StartChar: Ograve
Encoding: 210 210 67
Width: 1727
GlyphClass: 2
Flags: MW
HStem: 32 182<132 379 290 379 379 423.5 584 782 835 869 1087 1121> 240 233<1287 1349> 244 100<619 772 619 782 619 772> 244 225<324 382 324 382 619 782> 374 95<619 772> 498 170<290 379 290 290 584 584 584 782 835 835 835 867 1088 1088 1088 1121>
VStem: 132 158<214 498 214 668> 324 165<323.5 388.5 323.5 469 323.5 469> 526 58<314.5 397.5> 782 53<214 244 244 244 469 498 214 498> 869 218<214 442 214 442> 1121 58<313.5 399 313.5 498> 1216 205<322.5 390> 1456 139<313.5 399>
LayerCount: 2
Fore
SplineSet
1627 0 m 1x87f4
 1627 700 l 1
 100 700 l 1
 100 0 l 1
 1627 0 l 1x87f4
132 32 m 1
 132 668 l 1
 1595 668 l 1
 1595 32 l 1
 132 32 l 1
1456 356 m 0
 1456 442 1401 503 1318 503 c 0
 1235 503 1179 442 1179 356 c 0
 1179 271 1235 211 1318 211 c 0
 1401 211 1456 271 1456 356 c 0
526 356 m 0
 526 439 468 498 379 498 c 2
 290 498 l 1
 290 214 l 1
 379 214 l 2
 468 214 526 273 526 356 c 0
619 469 m 1x0840
 782 469 l 1x0840
 782 498 l 1
 584 498 l 1
 584 214 l 1
 782 214 l 1x84c0
 782 244 l 1
 619 244 l 1
 619 344 l 1
 772 344 l 1x2040
 772 374 l 1
 619 374 l 1
 619 469 l 1x0840
1121 498 m 1x8470
 1088 498 l 1
 977 362 l 1
 867 498 l 1
 835 498 l 1
 835 214 l 1
 869 214 l 1
 869 442 l 1
 971 318 l 1
 985 318 l 1
 1087 442 l 1
 1087 214 l 1
 1121 214 l 1
 1121 498 l 1x8470
1216 356 m 0x4008
 1216 424 1256 473 1318 473 c 0
 1380 473 1421 424 1421 356 c 0
 1421 289 1380 240 1318 240 c 0
 1256 240 1216 289 1216 356 c 0x4008
489 356 m 0x11
 489 291 449 244 382 244 c 2
 324 244 l 1
 324 469 l 1
 382 469 l 2
 449 469 489 421 489 356 c 0x11
EndSplineSet
Substitution2: "'c2sc' Capitals to Small Capitals in Latin lookup 18 subtable" ograve.sc
Substitution2: "'aalt' Access All Alternates in Latin lookup 0 subtable" ograve.sc
EndChar

StartChar: Ohungarumlaut
Encoding: 336 336 68
Width: 1727
GlyphClass: 2
Flags: MW
HStem: 32 182<132 379 290 379 379 423.5 584 782 835 869 1087 1121> 240 233<1287 1349> 244 100<619 772 619 782 619 772> 244 225<324 382 324 382 619 782> 374 95<619 772> 498 170<290 379 290 290 584 584 584 782 835 835 835 867 1088 1088 1088 1121>
VStem: 132 158<214 498 214 668> 324 165<323.5 388.5 323.5 469 323.5 469> 526 58<314.5 397.5> 782 53<214 244 244 244 469 498 214 498> 869 218<214 442 214 442> 1121 58<313.5 399 313.5 498> 1216 205<322.5 390> 1456 139<313.5 399>
LayerCount: 2
Fore
SplineSet
1627 0 m 1x87f4
 1627 700 l 1
 100 700 l 1
 100 0 l 1
 1627 0 l 1x87f4
132 32 m 1
 132 668 l 1
 1595 668 l 1
 1595 32 l 1
 132 32 l 1
1456 356 m 0
 1456 442 1401 503 1318 503 c 0
 1235 503 1179 442 1179 356 c 0
 1179 271 1235 211 1318 211 c 0
 1401 211 1456 271 1456 356 c 0
526 356 m 0
 526 439 468 498 379 498 c 2
 290 498 l 1
 290 214 l 1
 379 214 l 2
 468 214 526 273 526 356 c 0
619 469 m 1x0840
 782 469 l 1x0840
 782 498 l 1
 584 498 l 1
 584 214 l 1
 782 214 l 1x84c0
 782 244 l 1
 619 244 l 1
 619 344 l 1
 772 344 l 1x2040
 772 374 l 1
 619 374 l 1
 619 469 l 1x0840
1121 498 m 1x8470
 1088 498 l 1
 977 362 l 1
 867 498 l 1
 835 498 l 1
 835 214 l 1
 869 214 l 1
 869 442 l 1
 971 318 l 1
 985 318 l 1
 1087 442 l 1
 1087 214 l 1
 1121 214 l 1
 1121 498 l 1x8470
1216 356 m 0x4008
 1216 424 1256 473 1318 473 c 0
 1380 473 1421 424 1421 356 c 0
 1421 289 1380 240 1318 240 c 0
 1256 240 1216 289 1216 356 c 0x4008
489 356 m 0x11
 489 291 449 244 382 244 c 2
 324 244 l 1
 324 469 l 1
 382 469 l 2
 449 469 489 421 489 356 c 0x11
EndSplineSet
Substitution2: "'c2sc' Capitals to Small Capitals in Latin lookup 18 subtable" ohungarumlaut.sc
Substitution2: "'aalt' Access All Alternates in Latin lookup 0 subtable" ohungarumlaut.sc
EndChar

StartChar: Omacron
Encoding: 332 332 69
Width: 1727
GlyphClass: 2
Flags: MW
HStem: 32 182<132 379 290 379 379 423.5 584 782 835 869 1087 1121> 240 233<1287 1349> 244 100<619 772 619 782 619 772> 244 225<324 382 324 382 619 782> 374 95<619 772> 498 170<290 379 290 290 584 584 584 782 835 835 835 867 1088 1088 1088 1121>
VStem: 132 158<214 498 214 668> 324 165<323.5 388.5 323.5 469 323.5 469> 526 58<314.5 397.5> 782 53<214 244 244 244 469 498 214 498> 869 218<214 442 214 442> 1121 58<313.5 399 313.5 498> 1216 205<322.5 390> 1456 139<313.5 399>
LayerCount: 2
Fore
SplineSet
1627 0 m 1x87f4
 1627 700 l 1
 100 700 l 1
 100 0 l 1
 1627 0 l 1x87f4
132 32 m 1
 132 668 l 1
 1595 668 l 1
 1595 32 l 1
 132 32 l 1
1456 356 m 0
 1456 442 1401 503 1318 503 c 0
 1235 503 1179 442 1179 356 c 0
 1179 271 1235 211 1318 211 c 0
 1401 211 1456 271 1456 356 c 0
526 356 m 0
 526 439 468 498 379 498 c 2
 290 498 l 1
 290 214 l 1
 379 214 l 2
 468 214 526 273 526 356 c 0
619 469 m 1x0840
 782 469 l 1x0840
 782 498 l 1
 584 498 l 1
 584 214 l 1
 782 214 l 1x84c0
 782 244 l 1
 619 244 l 1
 619 344 l 1
 772 344 l 1x2040
 772 374 l 1
 619 374 l 1
 619 469 l 1x0840
1121 498 m 1x8470
 1088 498 l 1
 977 362 l 1
 867 498 l 1
 835 498 l 1
 835 214 l 1
 869 214 l 1
 869 442 l 1
 971 318 l 1
 985 318 l 1
 1087 442 l 1
 1087 214 l 1
 1121 214 l 1
 1121 498 l 1x8470
1216 356 m 0x4008
 1216 424 1256 473 1318 473 c 0
 1380 473 1421 424 1421 356 c 0
 1421 289 1380 240 1318 240 c 0
 1256 240 1216 289 1216 356 c 0x4008
489 356 m 0x11
 489 291 449 244 382 244 c 2
 324 244 l 1
 324 469 l 1
 382 469 l 2
 449 469 489 421 489 356 c 0x11
EndSplineSet
Substitution2: "'c2sc' Capitals to Small Capitals in Latin lookup 18 subtable" omacron.sc
Substitution2: "'aalt' Access All Alternates in Latin lookup 0 subtable" omacron.sc
EndChar

StartChar: Oslash
Encoding: 216 216 70
Width: 1727
GlyphClass: 2
Flags: MW
HStem: 32 182<132 379 290 379 379 423.5 584 782 835 869 1087 1121> 240 233<1287 1349> 244 100<619 772 619 782 619 772> 244 225<324 382 324 382 619 782> 374 95<619 772> 498 170<290 379 290 290 584 584 584 782 835 835 835 867 1088 1088 1088 1121>
VStem: 132 158<214 498 214 668> 324 165<323.5 388.5 323.5 469 323.5 469> 526 58<314.5 397.5> 782 53<214 244 244 244 469 498 214 498> 869 218<214 442 214 442> 1121 58<313.5 399 313.5 498> 1216 205<322.5 390> 1456 139<313.5 399>
LayerCount: 2
Fore
SplineSet
1627 0 m 1x87f4
 1627 700 l 1
 100 700 l 1
 100 0 l 1
 1627 0 l 1x87f4
132 32 m 1
 132 668 l 1
 1595 668 l 1
 1595 32 l 1
 132 32 l 1
1456 356 m 0
 1456 442 1401 503 1318 503 c 0
 1235 503 1179 442 1179 356 c 0
 1179 271 1235 211 1318 211 c 0
 1401 211 1456 271 1456 356 c 0
526 356 m 0
 526 439 468 498 379 498 c 2
 290 498 l 1
 290 214 l 1
 379 214 l 2
 468 214 526 273 526 356 c 0
619 469 m 1x0840
 782 469 l 1x0840
 782 498 l 1
 584 498 l 1
 584 214 l 1
 782 214 l 1x84c0
 782 244 l 1
 619 244 l 1
 619 344 l 1
 772 344 l 1x2040
 772 374 l 1
 619 374 l 1
 619 469 l 1x0840
1121 498 m 1x8470
 1088 498 l 1
 977 362 l 1
 867 498 l 1
 835 498 l 1
 835 214 l 1
 869 214 l 1
 869 442 l 1
 971 318 l 1
 985 318 l 1
 1087 442 l 1
 1087 214 l 1
 1121 214 l 1
 1121 498 l 1x8470
1216 356 m 0x4008
 1216 424 1256 473 1318 473 c 0
 1380 473 1421 424 1421 356 c 0
 1421 289 1380 240 1318 240 c 0
 1256 240 1216 289 1216 356 c 0x4008
489 356 m 0x11
 489 291 449 244 382 244 c 2
 324 244 l 1
 324 469 l 1
 382 469 l 2
 449 469 489 421 489 356 c 0x11
EndSplineSet
Substitution2: "'c2sc' Capitals to Small Capitals in Latin lookup 18 subtable" oslash.sc
Substitution2: "'aalt' Access All Alternates in Latin lookup 0 subtable" oslash.sc
EndChar

StartChar: Otilde
Encoding: 213 213 71
Width: 1727
GlyphClass: 2
Flags: MW
HStem: 32 182<132 379 290 379 379 423.5 584 782 835 869 1087 1121> 240 233<1287 1349> 244 100<619 772 619 782 619 772> 244 225<324 382 324 382 619 782> 374 95<619 772> 498 170<290 379 290 290 584 584 584 782 835 835 835 867 1088 1088 1088 1121>
VStem: 132 158<214 498 214 668> 324 165<323.5 388.5 323.5 469 323.5 469> 526 58<314.5 397.5> 782 53<214 244 244 244 469 498 214 498> 869 218<214 442 214 442> 1121 58<313.5 399 313.5 498> 1216 205<322.5 390> 1456 139<313.5 399>
LayerCount: 2
Fore
SplineSet
1627 0 m 1x87f4
 1627 700 l 1
 100 700 l 1
 100 0 l 1
 1627 0 l 1x87f4
132 32 m 1
 132 668 l 1
 1595 668 l 1
 1595 32 l 1
 132 32 l 1
1456 356 m 0
 1456 442 1401 503 1318 503 c 0
 1235 503 1179 442 1179 356 c 0
 1179 271 1235 211 1318 211 c 0
 1401 211 1456 271 1456 356 c 0
526 356 m 0
 526 439 468 498 379 498 c 2
 290 498 l 1
 290 214 l 1
 379 214 l 2
 468 214 526 273 526 356 c 0
619 469 m 1x0840
 782 469 l 1x0840
 782 498 l 1
 584 498 l 1
 584 214 l 1
 782 214 l 1x84c0
 782 244 l 1
 619 244 l 1
 619 344 l 1
 772 344 l 1x2040
 772 374 l 1
 619 374 l 1
 619 469 l 1x0840
1121 498 m 1x8470
 1088 498 l 1
 977 362 l 1
 867 498 l 1
 835 498 l 1
 835 214 l 1
 869 214 l 1
 869 442 l 1
 971 318 l 1
 985 318 l 1
 1087 442 l 1
 1087 214 l 1
 1121 214 l 1
 1121 498 l 1x8470
1216 356 m 0x4008
 1216 424 1256 473 1318 473 c 0
 1380 473 1421 424 1421 356 c 0
 1421 289 1380 240 1318 240 c 0
 1256 240 1216 289 1216 356 c 0x4008
489 356 m 0x11
 489 291 449 244 382 244 c 2
 324 244 l 1
 324 469 l 1
 382 469 l 2
 449 469 489 421 489 356 c 0x11
EndSplineSet
Substitution2: "'c2sc' Capitals to Small Capitals in Latin lookup 18 subtable" otilde.sc
Substitution2: "'aalt' Access All Alternates in Latin lookup 0 subtable" otilde.sc
EndChar

StartChar: OE
Encoding: 338 338 72
Width: 1122
GlyphClass: 2
Flags: MW
HStem: 0 57<421 428 428 574 641 1057> 336 56<641 1034 641 1034> 644 56<641 1057 641 641>
VStem: 70 70<265 435 265 451.5> 574 67<57 336 392 643 643 643>
LayerCount: 2
Fore
SplineSet
1057 644 m 1
 641 644 l 1
 641 392 l 1
 1034 392 l 1
 1034 336 l 1
 641 336 l 1
 641 57 l 1
 1057 57 l 1
 1057 0 l 1
 428 0 l 2
 208 0 70 147 70 350 c 0
 70 553 208 700 428 700 c 2
 1057 700 l 1
 1057 644 l 1
574 57 m 1
 574 643 l 1
 421 643 l 2
 245 643 140 520 140 350 c 0
 140 180 245 57 421 57 c 2
 574 57 l 1
EndSplineSet
Substitution2: "'c2sc' Capitals to Small Capitals in Latin lookup 18 subtable" oe.sc
Substitution2: "'aalt' Access All Alternates in Latin lookup 0 subtable" oe.sc
EndChar

StartChar: P
Encoding: 80 80 73
Width: 687
GlyphClass: 2
Flags: MW
HStem: 0 21G<106 173 106 106> 309 57<173 417 173 417> 644 56<173 417 173 173>
VStem: 106 67<0 309 0 366 366 644> 573 68<467 543.5>
LayerCount: 2
Fore
SplineSet
417 700 m 2
 553 700 641 614 641 506 c 0
 641 388 553 309 417 309 c 2
 173 309 l 1
 173 0 l 1
 106 0 l 1
 106 700 l 1
 417 700 l 2
417 366 m 2
 515 366 573 428 573 506 c 0
 573 581 515 644 417 644 c 2
 173 644 l 1
 173 366 l 1
 417 366 l 2
EndSplineSet
Substitution2: "'c2sc' Capitals to Small Capitals in Latin lookup 18 subtable" p.sc
Substitution2: "'aalt' Access All Alternates in Latin lookup 0 subtable" p.sc
EndChar

StartChar: Thorn
Encoding: 222 222 74
Width: 688
GlyphClass: 2
Flags: MW
HStem: 0 21G<106 173 106 106> 164 57<173 418 173 418> 499 58<173 418 173 418> 499 201<106 418 106 173>
VStem: 106 67<0 164 0 221 221 499 557 700> 574 67<323 399.5>
LayerCount: 2
Fore
SplineSet
418 557 m 2xec
 554 557 641 470 641 362 c 0
 641 244 554 164 418 164 c 2
 173 164 l 1
 173 0 l 1
 106 0 l 1
 106 700 l 1
 173 700 l 1xdc
 173 557 l 1
 418 557 l 2xec
418 221 m 2
 516 221 574 284 574 362 c 0
 574 437 516 499 418 499 c 2
 173 499 l 1
 173 221 l 1
 418 221 l 2
EndSplineSet
Substitution2: "'c2sc' Capitals to Small Capitals in Latin lookup 18 subtable" thorn.sc
Substitution2: "'aalt' Access All Alternates in Latin lookup 0 subtable" thorn.sc
EndChar

StartChar: Q
Encoding: 81 81 75
Width: 815
GlyphClass: 2
Flags: MW
HStem: -10 57<326.5 443 326.5 453> 654 57<326.5 489>
VStem: 70 69<262 437.5 262 454.5> 676 69<311.5 437.5>
LayerCount: 2
Fore
SplineSet
781 20 m 1
 744 -25 l 1
 631 70 l 1
 574 19 498 -10 408 -10 c 0
 204 -10 70 141 70 349 c 0
 70 560 204 711 408 711 c 0
 611 711 745 560 745 349 c 0
 745 256 718 175 671 113 c 1
 781 20 l 1
408 47 m 0
 478 47 537 71 582 111 c 1
 385 277 l 1
 422 322 l 1
 620 155 l 1
 656 207 676 274 676 349 c 0
 676 526 570 654 408 654 c 0
 245 654 139 526 139 349 c 0
 139 175 245 47 408 47 c 0
EndSplineSet
Substitution2: "'ss03' Style Set 3 in Latin lookup 32 subtable" Q.ss03
Substitution2: "'c2sc' Capitals to Small Capitals in Latin lookup 18 subtable" q.sc
AlternateSubs2: "'aalt' Access All Alternates in Latin lookup 1 subtable" q.sc Q.ss03
EndChar

StartChar: R
Encoding: 82 82 76
Width: 709
GlyphClass: 2
Flags: MW
HStem: 0 21G<106 173 106 106 586 665 586 586> 331 55<173 401 173 421> 645 55<173 173 173 421>
VStem: 106 67<0 331 0 386 386 645> 565 68<481.5 556.5>
LayerCount: 2
Fore
SplineSet
665 0 m 1
 586 0 l 1
 401 331 l 1
 173 331 l 1
 173 0 l 1
 106 0 l 1
 106 700 l 1
 421 700 l 2
 545 700 633 625 633 520 c 0
 633 423 566 352 467 335 c 1
 665 0 l 1
173 645 m 1
 173 386 l 1
 421 386 l 2
 505 386 565 443 565 520 c 0
 565 593 505 645 421 645 c 2
 173 645 l 1
EndSplineSet
Substitution2: "'ss04' Style Set 4 in Latin lookup 33 subtable" R.ss04
Substitution2: "'c2sc' Capitals to Small Capitals in Latin lookup 18 subtable" r.sc
AlternateSubs2: "'aalt' Access All Alternates in Latin lookup 1 subtable" r.sc R.ss04
EndChar

StartChar: Racute
Encoding: 340 340 77
Width: 1727
GlyphClass: 2
Flags: MW
HStem: 32 182<132 379 290 379 379 423.5 584 782 835 869 1087 1121> 240 233<1287 1349> 244 100<619 772 619 782 619 772> 244 225<324 382 324 382 619 782> 374 95<619 772> 498 170<290 379 290 290 584 584 584 782 835 835 835 867 1088 1088 1088 1121>
VStem: 132 158<214 498 214 668> 324 165<323.5 388.5 323.5 469 323.5 469> 526 58<314.5 397.5> 782 53<214 244 244 244 469 498 214 498> 869 218<214 442 214 442> 1121 58<313.5 399 313.5 498> 1216 205<322.5 390> 1456 139<313.5 399>
LayerCount: 2
Fore
SplineSet
1627 0 m 1x87f4
 1627 700 l 1
 100 700 l 1
 100 0 l 1
 1627 0 l 1x87f4
132 32 m 1
 132 668 l 1
 1595 668 l 1
 1595 32 l 1
 132 32 l 1
1456 356 m 0
 1456 442 1401 503 1318 503 c 0
 1235 503 1179 442 1179 356 c 0
 1179 271 1235 211 1318 211 c 0
 1401 211 1456 271 1456 356 c 0
526 356 m 0
 526 439 468 498 379 498 c 2
 290 498 l 1
 290 214 l 1
 379 214 l 2
 468 214 526 273 526 356 c 0
619 469 m 1x0840
 782 469 l 1x0840
 782 498 l 1
 584 498 l 1
 584 214 l 1
 782 214 l 1x84c0
 782 244 l 1
 619 244 l 1
 619 344 l 1
 772 344 l 1x2040
 772 374 l 1
 619 374 l 1
 619 469 l 1x0840
1121 498 m 1x8470
 1088 498 l 1
 977 362 l 1
 867 498 l 1
 835 498 l 1
 835 214 l 1
 869 214 l 1
 869 442 l 1
 971 318 l 1
 985 318 l 1
 1087 442 l 1
 1087 214 l 1
 1121 214 l 1
 1121 498 l 1x8470
1216 356 m 0x4008
 1216 424 1256 473 1318 473 c 0
 1380 473 1421 424 1421 356 c 0
 1421 289 1380 240 1318 240 c 0
 1256 240 1216 289 1216 356 c 0x4008
489 356 m 0x11
 489 291 449 244 382 244 c 2
 324 244 l 1
 324 469 l 1
 382 469 l 2
 449 469 489 421 489 356 c 0x11
EndSplineSet
Substitution2: "'ss04' Style Set 4 in Latin lookup 33 subtable" Racute.ss04
Substitution2: "'c2sc' Capitals to Small Capitals in Latin lookup 18 subtable" racute.sc
AlternateSubs2: "'aalt' Access All Alternates in Latin lookup 1 subtable" racute.sc Racute.ss04
EndChar

StartChar: Rcaron
Encoding: 344 344 78
Width: 1727
GlyphClass: 2
Flags: MW
HStem: 32 182<132 379 290 379 379 423.5 584 782 835 869 1087 1121> 240 233<1287 1349> 244 100<619 772 619 782 619 772> 244 225<324 382 324 382 619 782> 374 95<619 772> 498 170<290 379 290 290 584 584 584 782 835 835 835 867 1088 1088 1088 1121>
VStem: 132 158<214 498 214 668> 324 165<323.5 388.5 323.5 469 323.5 469> 526 58<314.5 397.5> 782 53<214 244 244 244 469 498 214 498> 869 218<214 442 214 442> 1121 58<313.5 399 313.5 498> 1216 205<322.5 390> 1456 139<313.5 399>
LayerCount: 2
Fore
SplineSet
1627 0 m 1x87f4
 1627 700 l 1
 100 700 l 1
 100 0 l 1
 1627 0 l 1x87f4
132 32 m 1
 132 668 l 1
 1595 668 l 1
 1595 32 l 1
 132 32 l 1
1456 356 m 0
 1456 442 1401 503 1318 503 c 0
 1235 503 1179 442 1179 356 c 0
 1179 271 1235 211 1318 211 c 0
 1401 211 1456 271 1456 356 c 0
526 356 m 0
 526 439 468 498 379 498 c 2
 290 498 l 1
 290 214 l 1
 379 214 l 2
 468 214 526 273 526 356 c 0
619 469 m 1x0840
 782 469 l 1x0840
 782 498 l 1
 584 498 l 1
 584 214 l 1
 782 214 l 1x84c0
 782 244 l 1
 619 244 l 1
 619 344 l 1
 772 344 l 1x2040
 772 374 l 1
 619 374 l 1
 619 469 l 1x0840
1121 498 m 1x8470
 1088 498 l 1
 977 362 l 1
 867 498 l 1
 835 498 l 1
 835 214 l 1
 869 214 l 1
 869 442 l 1
 971 318 l 1
 985 318 l 1
 1087 442 l 1
 1087 214 l 1
 1121 214 l 1
 1121 498 l 1x8470
1216 356 m 0x4008
 1216 424 1256 473 1318 473 c 0
 1380 473 1421 424 1421 356 c 0
 1421 289 1380 240 1318 240 c 0
 1256 240 1216 289 1216 356 c 0x4008
489 356 m 0x11
 489 291 449 244 382 244 c 2
 324 244 l 1
 324 469 l 1
 382 469 l 2
 449 469 489 421 489 356 c 0x11
EndSplineSet
Substitution2: "'ss04' Style Set 4 in Latin lookup 33 subtable" Rcaron.ss04
Substitution2: "'c2sc' Capitals to Small Capitals in Latin lookup 18 subtable" rcaron.sc
AlternateSubs2: "'aalt' Access All Alternates in Latin lookup 1 subtable" rcaron.sc Rcaron.ss04
EndChar

StartChar: Rcommaaccent
Encoding: 342 342 79
Width: 1727
GlyphClass: 2
Flags: MW
HStem: 32 182<132 379 290 379 379 423.5 584 782 835 869 1087 1121> 240 233<1287 1349> 244 100<619 772 619 782 619 772> 244 225<324 382 324 382 619 782> 374 95<619 772> 498 170<290 379 290 290 584 584 584 782 835 835 835 867 1088 1088 1088 1121>
VStem: 132 158<214 498 214 668> 324 165<323.5 388.5 323.5 469 323.5 469> 526 58<314.5 397.5> 782 53<214 244 244 244 469 498 214 498> 869 218<214 442 214 442> 1121 58<313.5 399 313.5 498> 1216 205<322.5 390> 1456 139<313.5 399>
LayerCount: 2
Fore
SplineSet
1627 0 m 1x87f4
 1627 700 l 1
 100 700 l 1
 100 0 l 1
 1627 0 l 1x87f4
132 32 m 1
 132 668 l 1
 1595 668 l 1
 1595 32 l 1
 132 32 l 1
1456 356 m 0
 1456 442 1401 503 1318 503 c 0
 1235 503 1179 442 1179 356 c 0
 1179 271 1235 211 1318 211 c 0
 1401 211 1456 271 1456 356 c 0
526 356 m 0
 526 439 468 498 379 498 c 2
 290 498 l 1
 290 214 l 1
 379 214 l 2
 468 214 526 273 526 356 c 0
619 469 m 1x0840
 782 469 l 1x0840
 782 498 l 1
 584 498 l 1
 584 214 l 1
 782 214 l 1x84c0
 782 244 l 1
 619 244 l 1
 619 344 l 1
 772 344 l 1x2040
 772 374 l 1
 619 374 l 1
 619 469 l 1x0840
1121 498 m 1x8470
 1088 498 l 1
 977 362 l 1
 867 498 l 1
 835 498 l 1
 835 214 l 1
 869 214 l 1
 869 442 l 1
 971 318 l 1
 985 318 l 1
 1087 442 l 1
 1087 214 l 1
 1121 214 l 1
 1121 498 l 1x8470
1216 356 m 0x4008
 1216 424 1256 473 1318 473 c 0
 1380 473 1421 424 1421 356 c 0
 1421 289 1380 240 1318 240 c 0
 1256 240 1216 289 1216 356 c 0x4008
489 356 m 0x11
 489 291 449 244 382 244 c 2
 324 244 l 1
 324 469 l 1
 382 469 l 2
 449 469 489 421 489 356 c 0x11
EndSplineSet
Substitution2: "'ss04' Style Set 4 in Latin lookup 33 subtable" Rcommaaccent.ss04
Substitution2: "'c2sc' Capitals to Small Capitals in Latin lookup 18 subtable" rcommaaccent.sc
AlternateSubs2: "'aalt' Access All Alternates in Latin lookup 1 subtable" rcommaaccent.sc Rcommaaccent.ss04
EndChar

StartChar: S
Encoding: 83 83 80
Width: 675
GlyphClass: 2
Flags: MW
HStem: -9 56<295.5 407.5 295.5 430> 654 57<286.5 391>
VStem: 101 65<488.5 565 488.5 582> 538 64<141 227.5>
LayerCount: 2
Fore
SplineSet
143 259 m 1
 152 122 234 47 357 47 c 0
 458 47 538 97 538 185 c 0
 538 270 466 296 343 327 c 0
 196 365 101 399 101 521 c 0
 101 643 192 711 335 711 c 0
 480 711 579 638 592 480 c 1
 523 480 l 1
 512 601 444 654 338 654 c 0
 235 654 166 606 166 524 c 0
 166 453 201 426 358 384 c 0
 478 352 602 320 602 187 c 0
 602 69 504 -9 356 -9 c 0
 188 -9 81 92 73 259 c 1
 143 259 l 1
EndSplineSet
Substitution2: "'c2sc' Capitals to Small Capitals in Latin lookup 18 subtable" s.sc
Substitution2: "'aalt' Access All Alternates in Latin lookup 0 subtable" s.sc
EndChar

StartChar: Sacute
Encoding: 346 346 81
Width: 1727
GlyphClass: 2
Flags: MW
HStem: 32 182<132 379 290 379 379 423.5 584 782 835 869 1087 1121> 240 233<1287 1349> 244 100<619 772 619 782 619 772> 244 225<324 382 324 382 619 782> 374 95<619 772> 498 170<290 379 290 290 584 584 584 782 835 835 835 867 1088 1088 1088 1121>
VStem: 132 158<214 498 214 668> 324 165<323.5 388.5 323.5 469 323.5 469> 526 58<314.5 397.5> 782 53<214 244 244 244 469 498 214 498> 869 218<214 442 214 442> 1121 58<313.5 399 313.5 498> 1216 205<322.5 390> 1456 139<313.5 399>
LayerCount: 2
Fore
SplineSet
1627 0 m 1x87f4
 1627 700 l 1
 100 700 l 1
 100 0 l 1
 1627 0 l 1x87f4
132 32 m 1
 132 668 l 1
 1595 668 l 1
 1595 32 l 1
 132 32 l 1
1456 356 m 0
 1456 442 1401 503 1318 503 c 0
 1235 503 1179 442 1179 356 c 0
 1179 271 1235 211 1318 211 c 0
 1401 211 1456 271 1456 356 c 0
526 356 m 0
 526 439 468 498 379 498 c 2
 290 498 l 1
 290 214 l 1
 379 214 l 2
 468 214 526 273 526 356 c 0
619 469 m 1x0840
 782 469 l 1x0840
 782 498 l 1
 584 498 l 1
 584 214 l 1
 782 214 l 1x84c0
 782 244 l 1
 619 244 l 1
 619 344 l 1
 772 344 l 1x2040
 772 374 l 1
 619 374 l 1
 619 469 l 1x0840
1121 498 m 1x8470
 1088 498 l 1
 977 362 l 1
 867 498 l 1
 835 498 l 1
 835 214 l 1
 869 214 l 1
 869 442 l 1
 971 318 l 1
 985 318 l 1
 1087 442 l 1
 1087 214 l 1
 1121 214 l 1
 1121 498 l 1x8470
1216 356 m 0x4008
 1216 424 1256 473 1318 473 c 0
 1380 473 1421 424 1421 356 c 0
 1421 289 1380 240 1318 240 c 0
 1256 240 1216 289 1216 356 c 0x4008
489 356 m 0x11
 489 291 449 244 382 244 c 2
 324 244 l 1
 324 469 l 1
 382 469 l 2
 449 469 489 421 489 356 c 0x11
EndSplineSet
Substitution2: "'c2sc' Capitals to Small Capitals in Latin lookup 18 subtable" sacute.sc
Substitution2: "'aalt' Access All Alternates in Latin lookup 0 subtable" sacute.sc
EndChar

StartChar: Scaron
Encoding: 352 352 82
Width: 1727
GlyphClass: 2
Flags: MW
HStem: 32 182<132 379 290 379 379 423.5 584 782 835 869 1087 1121> 240 233<1287 1349> 244 100<619 772 619 782 619 772> 244 225<324 382 324 382 619 782> 374 95<619 772> 498 170<290 379 290 290 584 584 584 782 835 835 835 867 1088 1088 1088 1121>
VStem: 132 158<214 498 214 668> 324 165<323.5 388.5 323.5 469 323.5 469> 526 58<314.5 397.5> 782 53<214 244 244 244 469 498 214 498> 869 218<214 442 214 442> 1121 58<313.5 399 313.5 498> 1216 205<322.5 390> 1456 139<313.5 399>
LayerCount: 2
Fore
SplineSet
1627 0 m 1x87f4
 1627 700 l 1
 100 700 l 1
 100 0 l 1
 1627 0 l 1x87f4
132 32 m 1
 132 668 l 1
 1595 668 l 1
 1595 32 l 1
 132 32 l 1
1456 356 m 0
 1456 442 1401 503 1318 503 c 0
 1235 503 1179 442 1179 356 c 0
 1179 271 1235 211 1318 211 c 0
 1401 211 1456 271 1456 356 c 0
526 356 m 0
 526 439 468 498 379 498 c 2
 290 498 l 1
 290 214 l 1
 379 214 l 2
 468 214 526 273 526 356 c 0
619 469 m 1x0840
 782 469 l 1x0840
 782 498 l 1
 584 498 l 1
 584 214 l 1
 782 214 l 1x84c0
 782 244 l 1
 619 244 l 1
 619 344 l 1
 772 344 l 1x2040
 772 374 l 1
 619 374 l 1
 619 469 l 1x0840
1121 498 m 1x8470
 1088 498 l 1
 977 362 l 1
 867 498 l 1
 835 498 l 1
 835 214 l 1
 869 214 l 1
 869 442 l 1
 971 318 l 1
 985 318 l 1
 1087 442 l 1
 1087 214 l 1
 1121 214 l 1
 1121 498 l 1x8470
1216 356 m 0x4008
 1216 424 1256 473 1318 473 c 0
 1380 473 1421 424 1421 356 c 0
 1421 289 1380 240 1318 240 c 0
 1256 240 1216 289 1216 356 c 0x4008
489 356 m 0x11
 489 291 449 244 382 244 c 2
 324 244 l 1
 324 469 l 1
 382 469 l 2
 449 469 489 421 489 356 c 0x11
EndSplineSet
Substitution2: "'c2sc' Capitals to Small Capitals in Latin lookup 18 subtable" scaron.sc
Substitution2: "'aalt' Access All Alternates in Latin lookup 0 subtable" scaron.sc
EndChar

StartChar: Scedilla
Encoding: 350 350 83
Width: 1727
GlyphClass: 2
Flags: MW
HStem: 32 182<132 379 290 379 379 423.5 584 782 835 869 1087 1121> 240 233<1287 1349> 244 100<619 772 619 782 619 772> 244 225<324 382 324 382 619 782> 374 95<619 772> 498 170<290 379 290 290 584 584 584 782 835 835 835 867 1088 1088 1088 1121>
VStem: 132 158<214 498 214 668> 324 165<323.5 388.5 323.5 469 323.5 469> 526 58<314.5 397.5> 782 53<214 244 244 244 469 498 214 498> 869 218<214 442 214 442> 1121 58<313.5 399 313.5 498> 1216 205<322.5 390> 1456 139<313.5 399>
LayerCount: 2
Fore
SplineSet
1627 0 m 1x87f4
 1627 700 l 1
 100 700 l 1
 100 0 l 1
 1627 0 l 1x87f4
132 32 m 1
 132 668 l 1
 1595 668 l 1
 1595 32 l 1
 132 32 l 1
1456 356 m 0
 1456 442 1401 503 1318 503 c 0
 1235 503 1179 442 1179 356 c 0
 1179 271 1235 211 1318 211 c 0
 1401 211 1456 271 1456 356 c 0
526 356 m 0
 526 439 468 498 379 498 c 2
 290 498 l 1
 290 214 l 1
 379 214 l 2
 468 214 526 273 526 356 c 0
619 469 m 1x0840
 782 469 l 1x0840
 782 498 l 1
 584 498 l 1
 584 214 l 1
 782 214 l 1x84c0
 782 244 l 1
 619 244 l 1
 619 344 l 1
 772 344 l 1x2040
 772 374 l 1
 619 374 l 1
 619 469 l 1x0840
1121 498 m 1x8470
 1088 498 l 1
 977 362 l 1
 867 498 l 1
 835 498 l 1
 835 214 l 1
 869 214 l 1
 869 442 l 1
 971 318 l 1
 985 318 l 1
 1087 442 l 1
 1087 214 l 1
 1121 214 l 1
 1121 498 l 1x8470
1216 356 m 0x4008
 1216 424 1256 473 1318 473 c 0
 1380 473 1421 424 1421 356 c 0
 1421 289 1380 240 1318 240 c 0
 1256 240 1216 289 1216 356 c 0x4008
489 356 m 0x11
 489 291 449 244 382 244 c 2
 324 244 l 1
 324 469 l 1
 382 469 l 2
 449 469 489 421 489 356 c 0x11
EndSplineSet
Substitution2: "'c2sc' Capitals to Small Capitals in Latin lookup 18 subtable" scedilla.sc
Substitution2: "'locl' Localized Forms in Latin lookup 4 subtable" Scommaaccent
Substitution2: "'locl' Localized Forms in Latin lookup 3 subtable" Scommaaccent
AlternateSubs2: "'aalt' Access All Alternates in Latin lookup 1 subtable" Scommaaccent scedilla.sc
EndChar

StartChar: Scommaaccent
Encoding: 536 536 84
Width: 1727
GlyphClass: 2
Flags: MW
HStem: 32 182<132 379 290 379 379 423.5 584 782 835 869 1087 1121> 240 233<1287 1349> 244 100<619 772 619 782 619 772> 244 225<324 382 324 382 619 782> 374 95<619 772> 498 170<290 379 290 290 584 584 584 782 835 835 835 867 1088 1088 1088 1121>
VStem: 132 158<214 498 214 668> 324 165<323.5 388.5 323.5 469 323.5 469> 526 58<314.5 397.5> 782 53<214 244 244 244 469 498 214 498> 869 218<214 442 214 442> 1121 58<313.5 399 313.5 498> 1216 205<322.5 390> 1456 139<313.5 399>
LayerCount: 2
Fore
SplineSet
1627 0 m 1x87f4
 1627 700 l 1
 100 700 l 1
 100 0 l 1
 1627 0 l 1x87f4
132 32 m 1
 132 668 l 1
 1595 668 l 1
 1595 32 l 1
 132 32 l 1
1456 356 m 0
 1456 442 1401 503 1318 503 c 0
 1235 503 1179 442 1179 356 c 0
 1179 271 1235 211 1318 211 c 0
 1401 211 1456 271 1456 356 c 0
526 356 m 0
 526 439 468 498 379 498 c 2
 290 498 l 1
 290 214 l 1
 379 214 l 2
 468 214 526 273 526 356 c 0
619 469 m 1x0840
 782 469 l 1x0840
 782 498 l 1
 584 498 l 1
 584 214 l 1
 782 214 l 1x84c0
 782 244 l 1
 619 244 l 1
 619 344 l 1
 772 344 l 1x2040
 772 374 l 1
 619 374 l 1
 619 469 l 1x0840
1121 498 m 1x8470
 1088 498 l 1
 977 362 l 1
 867 498 l 1
 835 498 l 1
 835 214 l 1
 869 214 l 1
 869 442 l 1
 971 318 l 1
 985 318 l 1
 1087 442 l 1
 1087 214 l 1
 1121 214 l 1
 1121 498 l 1x8470
1216 356 m 0x4008
 1216 424 1256 473 1318 473 c 0
 1380 473 1421 424 1421 356 c 0
 1421 289 1380 240 1318 240 c 0
 1256 240 1216 289 1216 356 c 0x4008
489 356 m 0x11
 489 291 449 244 382 244 c 2
 324 244 l 1
 324 469 l 1
 382 469 l 2
 449 469 489 421 489 356 c 0x11
EndSplineSet
Substitution2: "'c2sc' Capitals to Small Capitals in Latin lookup 18 subtable" scommaaccent.sc
Substitution2: "'aalt' Access All Alternates in Latin lookup 0 subtable" scommaaccent.sc
EndChar

StartChar: T
Encoding: 84 84 85
Width: 602
GlyphClass: 2
Flags: MW
HStem: 0 21G<268 334 268 268> 643 57<26 268 26 576 334 576 334 334>
VStem: 268 66<0 643 0 643>
LayerCount: 2
Fore
SplineSet
576 700 m 1
 576 643 l 1
 334 643 l 1
 334 0 l 1
 268 0 l 1
 268 643 l 1
 26 643 l 1
 26 700 l 1
 576 700 l 1
EndSplineSet
Substitution2: "'c2sc' Capitals to Small Capitals in Latin lookup 18 subtable" t.sc
Substitution2: "'aalt' Access All Alternates in Latin lookup 0 subtable" t.sc
EndChar

StartChar: Tbar
Encoding: 358 358 86
Width: 1727
GlyphClass: 2
Flags: MW
HStem: 32 182<132 379 290 379 379 423.5 584 782 835 869 1087 1121> 240 233<1287 1349> 244 100<619 772 619 782 619 772> 244 225<324 382 324 382 619 782> 374 95<619 772> 498 170<290 379 290 290 584 584 584 782 835 835 835 867 1088 1088 1088 1121>
VStem: 132 158<214 498 214 668> 324 165<323.5 388.5 323.5 469 323.5 469> 526 58<314.5 397.5> 782 53<214 244 244 244 469 498 214 498> 869 218<214 442 214 442> 1121 58<313.5 399 313.5 498> 1216 205<322.5 390> 1456 139<313.5 399>
LayerCount: 2
Fore
SplineSet
1627 0 m 1x87f4
 1627 700 l 1
 100 700 l 1
 100 0 l 1
 1627 0 l 1x87f4
132 32 m 1
 132 668 l 1
 1595 668 l 1
 1595 32 l 1
 132 32 l 1
1456 356 m 0
 1456 442 1401 503 1318 503 c 0
 1235 503 1179 442 1179 356 c 0
 1179 271 1235 211 1318 211 c 0
 1401 211 1456 271 1456 356 c 0
526 356 m 0
 526 439 468 498 379 498 c 2
 290 498 l 1
 290 214 l 1
 379 214 l 2
 468 214 526 273 526 356 c 0
619 469 m 1x0840
 782 469 l 1x0840
 782 498 l 1
 584 498 l 1
 584 214 l 1
 782 214 l 1x84c0
 782 244 l 1
 619 244 l 1
 619 344 l 1
 772 344 l 1x2040
 772 374 l 1
 619 374 l 1
 619 469 l 1x0840
1121 498 m 1x8470
 1088 498 l 1
 977 362 l 1
 867 498 l 1
 835 498 l 1
 835 214 l 1
 869 214 l 1
 869 442 l 1
 971 318 l 1
 985 318 l 1
 1087 442 l 1
 1087 214 l 1
 1121 214 l 1
 1121 498 l 1x8470
1216 356 m 0x4008
 1216 424 1256 473 1318 473 c 0
 1380 473 1421 424 1421 356 c 0
 1421 289 1380 240 1318 240 c 0
 1256 240 1216 289 1216 356 c 0x4008
489 356 m 0x11
 489 291 449 244 382 244 c 2
 324 244 l 1
 324 469 l 1
 382 469 l 2
 449 469 489 421 489 356 c 0x11
EndSplineSet
Substitution2: "'c2sc' Capitals to Small Capitals in Latin lookup 18 subtable" tbar.sc
Substitution2: "'aalt' Access All Alternates in Latin lookup 0 subtable" tbar.sc
EndChar

StartChar: Tcaron
Encoding: 356 356 87
Width: 1727
GlyphClass: 2
Flags: MW
HStem: 32 182<132 379 290 379 379 423.5 584 782 835 869 1087 1121> 240 233<1287 1349> 244 100<619 772 619 782 619 772> 244 225<324 382 324 382 619 782> 374 95<619 772> 498 170<290 379 290 290 584 584 584 782 835 835 835 867 1088 1088 1088 1121>
VStem: 132 158<214 498 214 668> 324 165<323.5 388.5 323.5 469 323.5 469> 526 58<314.5 397.5> 782 53<214 244 244 244 469 498 214 498> 869 218<214 442 214 442> 1121 58<313.5 399 313.5 498> 1216 205<322.5 390> 1456 139<313.5 399>
LayerCount: 2
Fore
SplineSet
1627 0 m 1x87f4
 1627 700 l 1
 100 700 l 1
 100 0 l 1
 1627 0 l 1x87f4
132 32 m 1
 132 668 l 1
 1595 668 l 1
 1595 32 l 1
 132 32 l 1
1456 356 m 0
 1456 442 1401 503 1318 503 c 0
 1235 503 1179 442 1179 356 c 0
 1179 271 1235 211 1318 211 c 0
 1401 211 1456 271 1456 356 c 0
526 356 m 0
 526 439 468 498 379 498 c 2
 290 498 l 1
 290 214 l 1
 379 214 l 2
 468 214 526 273 526 356 c 0
619 469 m 1x0840
 782 469 l 1x0840
 782 498 l 1
 584 498 l 1
 584 214 l 1
 782 214 l 1x84c0
 782 244 l 1
 619 244 l 1
 619 344 l 1
 772 344 l 1x2040
 772 374 l 1
 619 374 l 1
 619 469 l 1x0840
1121 498 m 1x8470
 1088 498 l 1
 977 362 l 1
 867 498 l 1
 835 498 l 1
 835 214 l 1
 869 214 l 1
 869 442 l 1
 971 318 l 1
 985 318 l 1
 1087 442 l 1
 1087 214 l 1
 1121 214 l 1
 1121 498 l 1x8470
1216 356 m 0x4008
 1216 424 1256 473 1318 473 c 0
 1380 473 1421 424 1421 356 c 0
 1421 289 1380 240 1318 240 c 0
 1256 240 1216 289 1216 356 c 0x4008
489 356 m 0x11
 489 291 449 244 382 244 c 2
 324 244 l 1
 324 469 l 1
 382 469 l 2
 449 469 489 421 489 356 c 0x11
EndSplineSet
Substitution2: "'c2sc' Capitals to Small Capitals in Latin lookup 18 subtable" tcaron.sc
Substitution2: "'aalt' Access All Alternates in Latin lookup 0 subtable" tcaron.sc
EndChar

StartChar: uni0162
Encoding: 354 354 88
Width: 1727
GlyphClass: 2
Flags: MW
HStem: 32 182<132 379 290 379 379 423.5 584 782 835 869 1087 1121> 240 233<1287 1349> 244 100<619 772 619 782 619 772> 244 225<324 382 324 382 619 782> 374 95<619 772> 498 170<290 379 290 290 584 584 584 782 835 835 835 867 1088 1088 1088 1121>
VStem: 132 158<214 498 214 668> 324 165<323.5 388.5 323.5 469 323.5 469> 526 58<314.5 397.5> 782 53<214 244 244 244 469 498 214 498> 869 218<214 442 214 442> 1121 58<313.5 399 313.5 498> 1216 205<322.5 390> 1456 139<313.5 399>
LayerCount: 2
Fore
SplineSet
1627 0 m 1x87f4
 1627 700 l 1
 100 700 l 1
 100 0 l 1
 1627 0 l 1x87f4
132 32 m 1
 132 668 l 1
 1595 668 l 1
 1595 32 l 1
 132 32 l 1
1456 356 m 0
 1456 442 1401 503 1318 503 c 0
 1235 503 1179 442 1179 356 c 0
 1179 271 1235 211 1318 211 c 0
 1401 211 1456 271 1456 356 c 0
526 356 m 0
 526 439 468 498 379 498 c 2
 290 498 l 1
 290 214 l 1
 379 214 l 2
 468 214 526 273 526 356 c 0
619 469 m 1x0840
 782 469 l 1x0840
 782 498 l 1
 584 498 l 1
 584 214 l 1
 782 214 l 1x84c0
 782 244 l 1
 619 244 l 1
 619 344 l 1
 772 344 l 1x2040
 772 374 l 1
 619 374 l 1
 619 469 l 1x0840
1121 498 m 1x8470
 1088 498 l 1
 977 362 l 1
 867 498 l 1
 835 498 l 1
 835 214 l 1
 869 214 l 1
 869 442 l 1
 971 318 l 1
 985 318 l 1
 1087 442 l 1
 1087 214 l 1
 1121 214 l 1
 1121 498 l 1x8470
1216 356 m 0x4008
 1216 424 1256 473 1318 473 c 0
 1380 473 1421 424 1421 356 c 0
 1421 289 1380 240 1318 240 c 0
 1256 240 1216 289 1216 356 c 0x4008
489 356 m 0x11
 489 291 449 244 382 244 c 2
 324 244 l 1
 324 469 l 1
 382 469 l 2
 449 469 489 421 489 356 c 0x11
EndSplineSet
Substitution2: "'c2sc' Capitals to Small Capitals in Latin lookup 18 subtable" uni0163.sc
Substitution2: "'locl' Localized Forms in Latin lookup 4 subtable" uni021A
Substitution2: "'locl' Localized Forms in Latin lookup 3 subtable" uni021A
AlternateSubs2: "'aalt' Access All Alternates in Latin lookup 1 subtable" uni021A uni0163.sc
EndChar

StartChar: uni021A
Encoding: 538 538 89
Width: 1727
GlyphClass: 2
Flags: MW
HStem: 32 182<132 379 290 379 379 423.5 584 782 835 869 1087 1121> 240 233<1287 1349> 244 100<619 772 619 782 619 772> 244 225<324 382 324 382 619 782> 374 95<619 772> 498 170<290 379 290 290 584 584 584 782 835 835 835 867 1088 1088 1088 1121>
VStem: 132 158<214 498 214 668> 324 165<323.5 388.5 323.5 469 323.5 469> 526 58<314.5 397.5> 782 53<214 244 244 244 469 498 214 498> 869 218<214 442 214 442> 1121 58<313.5 399 313.5 498> 1216 205<322.5 390> 1456 139<313.5 399>
LayerCount: 2
Fore
SplineSet
1627 0 m 1x87f4
 1627 700 l 1
 100 700 l 1
 100 0 l 1
 1627 0 l 1x87f4
132 32 m 1
 132 668 l 1
 1595 668 l 1
 1595 32 l 1
 132 32 l 1
1456 356 m 0
 1456 442 1401 503 1318 503 c 0
 1235 503 1179 442 1179 356 c 0
 1179 271 1235 211 1318 211 c 0
 1401 211 1456 271 1456 356 c 0
526 356 m 0
 526 439 468 498 379 498 c 2
 290 498 l 1
 290 214 l 1
 379 214 l 2
 468 214 526 273 526 356 c 0
619 469 m 1x0840
 782 469 l 1x0840
 782 498 l 1
 584 498 l 1
 584 214 l 1
 782 214 l 1x84c0
 782 244 l 1
 619 244 l 1
 619 344 l 1
 772 344 l 1x2040
 772 374 l 1
 619 374 l 1
 619 469 l 1x0840
1121 498 m 1x8470
 1088 498 l 1
 977 362 l 1
 867 498 l 1
 835 498 l 1
 835 214 l 1
 869 214 l 1
 869 442 l 1
 971 318 l 1
 985 318 l 1
 1087 442 l 1
 1087 214 l 1
 1121 214 l 1
 1121 498 l 1x8470
1216 356 m 0x4008
 1216 424 1256 473 1318 473 c 0
 1380 473 1421 424 1421 356 c 0
 1421 289 1380 240 1318 240 c 0
 1256 240 1216 289 1216 356 c 0x4008
489 356 m 0x11
 489 291 449 244 382 244 c 2
 324 244 l 1
 324 469 l 1
 382 469 l 2
 449 469 489 421 489 356 c 0x11
EndSplineSet
Substitution2: "'c2sc' Capitals to Small Capitals in Latin lookup 18 subtable" uni021B.sc
Substitution2: "'aalt' Access All Alternates in Latin lookup 0 subtable" uni021B.sc
EndChar

StartChar: U
Encoding: 85 85 90
Width: 748
GlyphClass: 2
Flags: MW
HStem: -9 56<313 434.5 313 453.5> 680 20G<100 166 166 166 581 648 648 648>
VStem: 100 66<264 700> 581 67<260 264 264 700>
LayerCount: 2
Fore
SplineSet
581 700 m 1
 648 700 l 1
 648 264 l 2
 648 91 533 -9 374 -9 c 0
 214 -9 100 91 100 264 c 2
 100 700 l 1
 166 700 l 1
 166 260 l 2
 166 126 252 47 374 47 c 0
 495 47 581 126 581 260 c 2
 581 700 l 1
EndSplineSet
Substitution2: "'c2sc' Capitals to Small Capitals in Latin lookup 18 subtable" u.sc
Substitution2: "'aalt' Access All Alternates in Latin lookup 0 subtable" u.sc
EndChar

StartChar: Uacute
Encoding: 218 218 91
Width: 1727
GlyphClass: 2
Flags: MW
HStem: 32 182<132 379 290 379 379 423.5 584 782 835 869 1087 1121> 240 233<1287 1349> 244 100<619 772 619 782 619 772> 244 225<324 382 324 382 619 782> 374 95<619 772> 498 170<290 379 290 290 584 584 584 782 835 835 835 867 1088 1088 1088 1121>
VStem: 132 158<214 498 214 668> 324 165<323.5 388.5 323.5 469 323.5 469> 526 58<314.5 397.5> 782 53<214 244 244 244 469 498 214 498> 869 218<214 442 214 442> 1121 58<313.5 399 313.5 498> 1216 205<322.5 390> 1456 139<313.5 399>
LayerCount: 2
Fore
SplineSet
1627 0 m 1x87f4
 1627 700 l 1
 100 700 l 1
 100 0 l 1
 1627 0 l 1x87f4
132 32 m 1
 132 668 l 1
 1595 668 l 1
 1595 32 l 1
 132 32 l 1
1456 356 m 0
 1456 442 1401 503 1318 503 c 0
 1235 503 1179 442 1179 356 c 0
 1179 271 1235 211 1318 211 c 0
 1401 211 1456 271 1456 356 c 0
526 356 m 0
 526 439 468 498 379 498 c 2
 290 498 l 1
 290 214 l 1
 379 214 l 2
 468 214 526 273 526 356 c 0
619 469 m 1x0840
 782 469 l 1x0840
 782 498 l 1
 584 498 l 1
 584 214 l 1
 782 214 l 1x84c0
 782 244 l 1
 619 244 l 1
 619 344 l 1
 772 344 l 1x2040
 772 374 l 1
 619 374 l 1
 619 469 l 1x0840
1121 498 m 1x8470
 1088 498 l 1
 977 362 l 1
 867 498 l 1
 835 498 l 1
 835 214 l 1
 869 214 l 1
 869 442 l 1
 971 318 l 1
 985 318 l 1
 1087 442 l 1
 1087 214 l 1
 1121 214 l 1
 1121 498 l 1x8470
1216 356 m 0x4008
 1216 424 1256 473 1318 473 c 0
 1380 473 1421 424 1421 356 c 0
 1421 289 1380 240 1318 240 c 0
 1256 240 1216 289 1216 356 c 0x4008
489 356 m 0x11
 489 291 449 244 382 244 c 2
 324 244 l 1
 324 469 l 1
 382 469 l 2
 449 469 489 421 489 356 c 0x11
EndSplineSet
Substitution2: "'c2sc' Capitals to Small Capitals in Latin lookup 18 subtable" uacute.sc
Substitution2: "'aalt' Access All Alternates in Latin lookup 0 subtable" uacute.sc
EndChar

StartChar: Ucircumflex
Encoding: 219 219 92
Width: 1727
GlyphClass: 2
Flags: MW
HStem: 32 182<132 379 290 379 379 423.5 584 782 835 869 1087 1121> 240 233<1287 1349> 244 100<619 772 619 782 619 772> 244 225<324 382 324 382 619 782> 374 95<619 772> 498 170<290 379 290 290 584 584 584 782 835 835 835 867 1088 1088 1088 1121>
VStem: 132 158<214 498 214 668> 324 165<323.5 388.5 323.5 469 323.5 469> 526 58<314.5 397.5> 782 53<214 244 244 244 469 498 214 498> 869 218<214 442 214 442> 1121 58<313.5 399 313.5 498> 1216 205<322.5 390> 1456 139<313.5 399>
LayerCount: 2
Fore
SplineSet
1627 0 m 1x87f4
 1627 700 l 1
 100 700 l 1
 100 0 l 1
 1627 0 l 1x87f4
132 32 m 1
 132 668 l 1
 1595 668 l 1
 1595 32 l 1
 132 32 l 1
1456 356 m 0
 1456 442 1401 503 1318 503 c 0
 1235 503 1179 442 1179 356 c 0
 1179 271 1235 211 1318 211 c 0
 1401 211 1456 271 1456 356 c 0
526 356 m 0
 526 439 468 498 379 498 c 2
 290 498 l 1
 290 214 l 1
 379 214 l 2
 468 214 526 273 526 356 c 0
619 469 m 1x0840
 782 469 l 1x0840
 782 498 l 1
 584 498 l 1
 584 214 l 1
 782 214 l 1x84c0
 782 244 l 1
 619 244 l 1
 619 344 l 1
 772 344 l 1x2040
 772 374 l 1
 619 374 l 1
 619 469 l 1x0840
1121 498 m 1x8470
 1088 498 l 1
 977 362 l 1
 867 498 l 1
 835 498 l 1
 835 214 l 1
 869 214 l 1
 869 442 l 1
 971 318 l 1
 985 318 l 1
 1087 442 l 1
 1087 214 l 1
 1121 214 l 1
 1121 498 l 1x8470
1216 356 m 0x4008
 1216 424 1256 473 1318 473 c 0
 1380 473 1421 424 1421 356 c 0
 1421 289 1380 240 1318 240 c 0
 1256 240 1216 289 1216 356 c 0x4008
489 356 m 0x11
 489 291 449 244 382 244 c 2
 324 244 l 1
 324 469 l 1
 382 469 l 2
 449 469 489 421 489 356 c 0x11
EndSplineSet
Substitution2: "'c2sc' Capitals to Small Capitals in Latin lookup 18 subtable" ucircumflex.sc
Substitution2: "'aalt' Access All Alternates in Latin lookup 0 subtable" ucircumflex.sc
EndChar

StartChar: Udieresis
Encoding: 220 220 93
Width: 1727
GlyphClass: 2
Flags: MW
HStem: 32 182<132 379 290 379 379 423.5 584 782 835 869 1087 1121> 240 233<1287 1349> 244 100<619 772 619 782 619 772> 244 225<324 382 324 382 619 782> 374 95<619 772> 498 170<290 379 290 290 584 584 584 782 835 835 835 867 1088 1088 1088 1121>
VStem: 132 158<214 498 214 668> 324 165<323.5 388.5 323.5 469 323.5 469> 526 58<314.5 397.5> 782 53<214 244 244 244 469 498 214 498> 869 218<214 442 214 442> 1121 58<313.5 399 313.5 498> 1216 205<322.5 390> 1456 139<313.5 399>
LayerCount: 2
Fore
SplineSet
1627 0 m 1x87f4
 1627 700 l 1
 100 700 l 1
 100 0 l 1
 1627 0 l 1x87f4
132 32 m 1
 132 668 l 1
 1595 668 l 1
 1595 32 l 1
 132 32 l 1
1456 356 m 0
 1456 442 1401 503 1318 503 c 0
 1235 503 1179 442 1179 356 c 0
 1179 271 1235 211 1318 211 c 0
 1401 211 1456 271 1456 356 c 0
526 356 m 0
 526 439 468 498 379 498 c 2
 290 498 l 1
 290 214 l 1
 379 214 l 2
 468 214 526 273 526 356 c 0
619 469 m 1x0840
 782 469 l 1x0840
 782 498 l 1
 584 498 l 1
 584 214 l 1
 782 214 l 1x84c0
 782 244 l 1
 619 244 l 1
 619 344 l 1
 772 344 l 1x2040
 772 374 l 1
 619 374 l 1
 619 469 l 1x0840
1121 498 m 1x8470
 1088 498 l 1
 977 362 l 1
 867 498 l 1
 835 498 l 1
 835 214 l 1
 869 214 l 1
 869 442 l 1
 971 318 l 1
 985 318 l 1
 1087 442 l 1
 1087 214 l 1
 1121 214 l 1
 1121 498 l 1x8470
1216 356 m 0x4008
 1216 424 1256 473 1318 473 c 0
 1380 473 1421 424 1421 356 c 0
 1421 289 1380 240 1318 240 c 0
 1256 240 1216 289 1216 356 c 0x4008
489 356 m 0x11
 489 291 449 244 382 244 c 2
 324 244 l 1
 324 469 l 1
 382 469 l 2
 449 469 489 421 489 356 c 0x11
EndSplineSet
Substitution2: "'c2sc' Capitals to Small Capitals in Latin lookup 18 subtable" udieresis.sc
Substitution2: "'aalt' Access All Alternates in Latin lookup 0 subtable" udieresis.sc
EndChar

StartChar: Ugrave
Encoding: 217 217 94
Width: 1727
GlyphClass: 2
Flags: MW
HStem: 32 182<132 379 290 379 379 423.5 584 782 835 869 1087 1121> 240 233<1287 1349> 244 100<619 772 619 782 619 772> 244 225<324 382 324 382 619 782> 374 95<619 772> 498 170<290 379 290 290 584 584 584 782 835 835 835 867 1088 1088 1088 1121>
VStem: 132 158<214 498 214 668> 324 165<323.5 388.5 323.5 469 323.5 469> 526 58<314.5 397.5> 782 53<214 244 244 244 469 498 214 498> 869 218<214 442 214 442> 1121 58<313.5 399 313.5 498> 1216 205<322.5 390> 1456 139<313.5 399>
LayerCount: 2
Fore
SplineSet
1627 0 m 1x87f4
 1627 700 l 1
 100 700 l 1
 100 0 l 1
 1627 0 l 1x87f4
132 32 m 1
 132 668 l 1
 1595 668 l 1
 1595 32 l 1
 132 32 l 1
1456 356 m 0
 1456 442 1401 503 1318 503 c 0
 1235 503 1179 442 1179 356 c 0
 1179 271 1235 211 1318 211 c 0
 1401 211 1456 271 1456 356 c 0
526 356 m 0
 526 439 468 498 379 498 c 2
 290 498 l 1
 290 214 l 1
 379 214 l 2
 468 214 526 273 526 356 c 0
619 469 m 1x0840
 782 469 l 1x0840
 782 498 l 1
 584 498 l 1
 584 214 l 1
 782 214 l 1x84c0
 782 244 l 1
 619 244 l 1
 619 344 l 1
 772 344 l 1x2040
 772 374 l 1
 619 374 l 1
 619 469 l 1x0840
1121 498 m 1x8470
 1088 498 l 1
 977 362 l 1
 867 498 l 1
 835 498 l 1
 835 214 l 1
 869 214 l 1
 869 442 l 1
 971 318 l 1
 985 318 l 1
 1087 442 l 1
 1087 214 l 1
 1121 214 l 1
 1121 498 l 1x8470
1216 356 m 0x4008
 1216 424 1256 473 1318 473 c 0
 1380 473 1421 424 1421 356 c 0
 1421 289 1380 240 1318 240 c 0
 1256 240 1216 289 1216 356 c 0x4008
489 356 m 0x11
 489 291 449 244 382 244 c 2
 324 244 l 1
 324 469 l 1
 382 469 l 2
 449 469 489 421 489 356 c 0x11
EndSplineSet
Substitution2: "'c2sc' Capitals to Small Capitals in Latin lookup 18 subtable" ugrave.sc
Substitution2: "'aalt' Access All Alternates in Latin lookup 0 subtable" ugrave.sc
EndChar

StartChar: Uhungarumlaut
Encoding: 368 368 95
Width: 1727
GlyphClass: 2
Flags: MW
HStem: 32 182<132 379 290 379 379 423.5 584 782 835 869 1087 1121> 240 233<1287 1349> 244 100<619 772 619 782 619 772> 244 225<324 382 324 382 619 782> 374 95<619 772> 498 170<290 379 290 290 584 584 584 782 835 835 835 867 1088 1088 1088 1121>
VStem: 132 158<214 498 214 668> 324 165<323.5 388.5 323.5 469 323.5 469> 526 58<314.5 397.5> 782 53<214 244 244 244 469 498 214 498> 869 218<214 442 214 442> 1121 58<313.5 399 313.5 498> 1216 205<322.5 390> 1456 139<313.5 399>
LayerCount: 2
Fore
SplineSet
1627 0 m 1x87f4
 1627 700 l 1
 100 700 l 1
 100 0 l 1
 1627 0 l 1x87f4
132 32 m 1
 132 668 l 1
 1595 668 l 1
 1595 32 l 1
 132 32 l 1
1456 356 m 0
 1456 442 1401 503 1318 503 c 0
 1235 503 1179 442 1179 356 c 0
 1179 271 1235 211 1318 211 c 0
 1401 211 1456 271 1456 356 c 0
526 356 m 0
 526 439 468 498 379 498 c 2
 290 498 l 1
 290 214 l 1
 379 214 l 2
 468 214 526 273 526 356 c 0
619 469 m 1x0840
 782 469 l 1x0840
 782 498 l 1
 584 498 l 1
 584 214 l 1
 782 214 l 1x84c0
 782 244 l 1
 619 244 l 1
 619 344 l 1
 772 344 l 1x2040
 772 374 l 1
 619 374 l 1
 619 469 l 1x0840
1121 498 m 1x8470
 1088 498 l 1
 977 362 l 1
 867 498 l 1
 835 498 l 1
 835 214 l 1
 869 214 l 1
 869 442 l 1
 971 318 l 1
 985 318 l 1
 1087 442 l 1
 1087 214 l 1
 1121 214 l 1
 1121 498 l 1x8470
1216 356 m 0x4008
 1216 424 1256 473 1318 473 c 0
 1380 473 1421 424 1421 356 c 0
 1421 289 1380 240 1318 240 c 0
 1256 240 1216 289 1216 356 c 0x4008
489 356 m 0x11
 489 291 449 244 382 244 c 2
 324 244 l 1
 324 469 l 1
 382 469 l 2
 449 469 489 421 489 356 c 0x11
EndSplineSet
Substitution2: "'c2sc' Capitals to Small Capitals in Latin lookup 18 subtable" uhungarumlaut.sc
Substitution2: "'aalt' Access All Alternates in Latin lookup 0 subtable" uhungarumlaut.sc
EndChar

StartChar: Umacron
Encoding: 362 362 96
Width: 1727
GlyphClass: 2
Flags: MW
HStem: 32 182<132 379 290 379 379 423.5 584 782 835 869 1087 1121> 240 233<1287 1349> 244 100<619 772 619 782 619 772> 244 225<324 382 324 382 619 782> 374 95<619 772> 498 170<290 379 290 290 584 584 584 782 835 835 835 867 1088 1088 1088 1121>
VStem: 132 158<214 498 214 668> 324 165<323.5 388.5 323.5 469 323.5 469> 526 58<314.5 397.5> 782 53<214 244 244 244 469 498 214 498> 869 218<214 442 214 442> 1121 58<313.5 399 313.5 498> 1216 205<322.5 390> 1456 139<313.5 399>
LayerCount: 2
Fore
SplineSet
1627 0 m 1x87f4
 1627 700 l 1
 100 700 l 1
 100 0 l 1
 1627 0 l 1x87f4
132 32 m 1
 132 668 l 1
 1595 668 l 1
 1595 32 l 1
 132 32 l 1
1456 356 m 0
 1456 442 1401 503 1318 503 c 0
 1235 503 1179 442 1179 356 c 0
 1179 271 1235 211 1318 211 c 0
 1401 211 1456 271 1456 356 c 0
526 356 m 0
 526 439 468 498 379 498 c 2
 290 498 l 1
 290 214 l 1
 379 214 l 2
 468 214 526 273 526 356 c 0
619 469 m 1x0840
 782 469 l 1x0840
 782 498 l 1
 584 498 l 1
 584 214 l 1
 782 214 l 1x84c0
 782 244 l 1
 619 244 l 1
 619 344 l 1
 772 344 l 1x2040
 772 374 l 1
 619 374 l 1
 619 469 l 1x0840
1121 498 m 1x8470
 1088 498 l 1
 977 362 l 1
 867 498 l 1
 835 498 l 1
 835 214 l 1
 869 214 l 1
 869 442 l 1
 971 318 l 1
 985 318 l 1
 1087 442 l 1
 1087 214 l 1
 1121 214 l 1
 1121 498 l 1x8470
1216 356 m 0x4008
 1216 424 1256 473 1318 473 c 0
 1380 473 1421 424 1421 356 c 0
 1421 289 1380 240 1318 240 c 0
 1256 240 1216 289 1216 356 c 0x4008
489 356 m 0x11
 489 291 449 244 382 244 c 2
 324 244 l 1
 324 469 l 1
 382 469 l 2
 449 469 489 421 489 356 c 0x11
EndSplineSet
Substitution2: "'c2sc' Capitals to Small Capitals in Latin lookup 18 subtable" umacron.sc
Substitution2: "'aalt' Access All Alternates in Latin lookup 0 subtable" umacron.sc
EndChar

StartChar: Uogonek
Encoding: 370 370 97
Width: 1727
GlyphClass: 2
Flags: MW
HStem: 32 182<132 379 290 379 379 423.5 584 782 835 869 1087 1121> 240 233<1287 1349> 244 100<619 772 619 782 619 772> 244 225<324 382 324 382 619 782> 374 95<619 772> 498 170<290 379 290 290 584 584 584 782 835 835 835 867 1088 1088 1088 1121>
VStem: 132 158<214 498 214 668> 324 165<323.5 388.5 323.5 469 323.5 469> 526 58<314.5 397.5> 782 53<214 244 244 244 469 498 214 498> 869 218<214 442 214 442> 1121 58<313.5 399 313.5 498> 1216 205<322.5 390> 1456 139<313.5 399>
LayerCount: 2
Fore
SplineSet
1627 0 m 1x87f4
 1627 700 l 1
 100 700 l 1
 100 0 l 1
 1627 0 l 1x87f4
132 32 m 1
 132 668 l 1
 1595 668 l 1
 1595 32 l 1
 132 32 l 1
1456 356 m 0
 1456 442 1401 503 1318 503 c 0
 1235 503 1179 442 1179 356 c 0
 1179 271 1235 211 1318 211 c 0
 1401 211 1456 271 1456 356 c 0
526 356 m 0
 526 439 468 498 379 498 c 2
 290 498 l 1
 290 214 l 1
 379 214 l 2
 468 214 526 273 526 356 c 0
619 469 m 1x0840
 782 469 l 1x0840
 782 498 l 1
 584 498 l 1
 584 214 l 1
 782 214 l 1x84c0
 782 244 l 1
 619 244 l 1
 619 344 l 1
 772 344 l 1x2040
 772 374 l 1
 619 374 l 1
 619 469 l 1x0840
1121 498 m 1x8470
 1088 498 l 1
 977 362 l 1
 867 498 l 1
 835 498 l 1
 835 214 l 1
 869 214 l 1
 869 442 l 1
 971 318 l 1
 985 318 l 1
 1087 442 l 1
 1087 214 l 1
 1121 214 l 1
 1121 498 l 1x8470
1216 356 m 0x4008
 1216 424 1256 473 1318 473 c 0
 1380 473 1421 424 1421 356 c 0
 1421 289 1380 240 1318 240 c 0
 1256 240 1216 289 1216 356 c 0x4008
489 356 m 0x11
 489 291 449 244 382 244 c 2
 324 244 l 1
 324 469 l 1
 382 469 l 2
 449 469 489 421 489 356 c 0x11
EndSplineSet
Substitution2: "'c2sc' Capitals to Small Capitals in Latin lookup 18 subtable" uogonek.sc
Substitution2: "'aalt' Access All Alternates in Latin lookup 0 subtable" uogonek.sc
EndChar

StartChar: Uring
Encoding: 366 366 98
Width: 1727
GlyphClass: 2
Flags: MW
HStem: 32 182<132 379 290 379 379 423.5 584 782 835 869 1087 1121> 240 233<1287 1349> 244 100<619 772 619 782 619 772> 244 225<324 382 324 382 619 782> 374 95<619 772> 498 170<290 379 290 290 584 584 584 782 835 835 835 867 1088 1088 1088 1121>
VStem: 132 158<214 498 214 668> 324 165<323.5 388.5 323.5 469 323.5 469> 526 58<314.5 397.5> 782 53<214 244 244 244 469 498 214 498> 869 218<214 442 214 442> 1121 58<313.5 399 313.5 498> 1216 205<322.5 390> 1456 139<313.5 399>
LayerCount: 2
Fore
SplineSet
1627 0 m 1x87f4
 1627 700 l 1
 100 700 l 1
 100 0 l 1
 1627 0 l 1x87f4
132 32 m 1
 132 668 l 1
 1595 668 l 1
 1595 32 l 1
 132 32 l 1
1456 356 m 0
 1456 442 1401 503 1318 503 c 0
 1235 503 1179 442 1179 356 c 0
 1179 271 1235 211 1318 211 c 0
 1401 211 1456 271 1456 356 c 0
526 356 m 0
 526 439 468 498 379 498 c 2
 290 498 l 1
 290 214 l 1
 379 214 l 2
 468 214 526 273 526 356 c 0
619 469 m 1x0840
 782 469 l 1x0840
 782 498 l 1
 584 498 l 1
 584 214 l 1
 782 214 l 1x84c0
 782 244 l 1
 619 244 l 1
 619 344 l 1
 772 344 l 1x2040
 772 374 l 1
 619 374 l 1
 619 469 l 1x0840
1121 498 m 1x8470
 1088 498 l 1
 977 362 l 1
 867 498 l 1
 835 498 l 1
 835 214 l 1
 869 214 l 1
 869 442 l 1
 971 318 l 1
 985 318 l 1
 1087 442 l 1
 1087 214 l 1
 1121 214 l 1
 1121 498 l 1x8470
1216 356 m 0x4008
 1216 424 1256 473 1318 473 c 0
 1380 473 1421 424 1421 356 c 0
 1421 289 1380 240 1318 240 c 0
 1256 240 1216 289 1216 356 c 0x4008
489 356 m 0x11
 489 291 449 244 382 244 c 2
 324 244 l 1
 324 469 l 1
 382 469 l 2
 449 469 489 421 489 356 c 0x11
EndSplineSet
Substitution2: "'c2sc' Capitals to Small Capitals in Latin lookup 18 subtable" uring.sc
Substitution2: "'aalt' Access All Alternates in Latin lookup 0 subtable" uring.sc
EndChar

StartChar: V
Encoding: 86 86 99
Width: 704
GlyphClass: 2
Flags: MW
HStem: 0 21G<323 382 323 323> 0 87<352 352 352 382 323 352> 680 20G<45 116 116 116 589 659 659 659>
VStem: 45 614<700 700>
LayerCount: 2
Fore
SplineSet
589 700 m 1xb0
 659 700 l 1
 382 0 l 1
 323 0 l 1
 45 700 l 1
 116 700 l 1
 352 87 l 1x70
 589 700 l 1xb0
EndSplineSet
Substitution2: "'c2sc' Capitals to Small Capitals in Latin lookup 18 subtable" v.sc
Substitution2: "'aalt' Access All Alternates in Latin lookup 0 subtable" v.sc
EndChar

StartChar: W
Encoding: 87 87 100
Width: 1018
GlyphClass: 2
Flags: MW
HStem: 0 21G<253 316 253 253 702 765 702 702> 0 96<284 284 284 316 253 284> 680 20G<45 113 113 113 483 535 535 535 905 973 973 973>
VStem: 45 928<700 700>
LayerCount: 2
Fore
SplineSet
905 700 m 1xb0
 973 700 l 1
 765 0 l 1
 702 0 l 1
 508 594 l 1
 316 0 l 1
 253 0 l 1
 45 700 l 1
 113 700 l 1
 284 96 l 1
 483 700 l 1
 535 700 l 1
 734 96 l 1x70
 905 700 l 1xb0
EndSplineSet
Substitution2: "'c2sc' Capitals to Small Capitals in Latin lookup 18 subtable" w.sc
Substitution2: "'aalt' Access All Alternates in Latin lookup 0 subtable" w.sc
EndChar

StartChar: Wacute
Encoding: 7810 7810 101
Width: 1727
GlyphClass: 2
Flags: MW
HStem: 32 182<132 379 290 379 379 423.5 584 782 835 869 1087 1121> 240 233<1287 1349> 244 100<619 772 619 782 619 772> 244 225<324 382 324 382 619 782> 374 95<619 772> 498 170<290 379 290 290 584 584 584 782 835 835 835 867 1088 1088 1088 1121>
VStem: 132 158<214 498 214 668> 324 165<323.5 388.5 323.5 469 323.5 469> 526 58<314.5 397.5> 782 53<214 244 244 244 469 498 214 498> 869 218<214 442 214 442> 1121 58<313.5 399 313.5 498> 1216 205<322.5 390> 1456 139<313.5 399>
LayerCount: 2
Fore
SplineSet
1627 0 m 1x87f4
 1627 700 l 1
 100 700 l 1
 100 0 l 1
 1627 0 l 1x87f4
132 32 m 1
 132 668 l 1
 1595 668 l 1
 1595 32 l 1
 132 32 l 1
1456 356 m 0
 1456 442 1401 503 1318 503 c 0
 1235 503 1179 442 1179 356 c 0
 1179 271 1235 211 1318 211 c 0
 1401 211 1456 271 1456 356 c 0
526 356 m 0
 526 439 468 498 379 498 c 2
 290 498 l 1
 290 214 l 1
 379 214 l 2
 468 214 526 273 526 356 c 0
619 469 m 1x0840
 782 469 l 1x0840
 782 498 l 1
 584 498 l 1
 584 214 l 1
 782 214 l 1x84c0
 782 244 l 1
 619 244 l 1
 619 344 l 1
 772 344 l 1x2040
 772 374 l 1
 619 374 l 1
 619 469 l 1x0840
1121 498 m 1x8470
 1088 498 l 1
 977 362 l 1
 867 498 l 1
 835 498 l 1
 835 214 l 1
 869 214 l 1
 869 442 l 1
 971 318 l 1
 985 318 l 1
 1087 442 l 1
 1087 214 l 1
 1121 214 l 1
 1121 498 l 1x8470
1216 356 m 0x4008
 1216 424 1256 473 1318 473 c 0
 1380 473 1421 424 1421 356 c 0
 1421 289 1380 240 1318 240 c 0
 1256 240 1216 289 1216 356 c 0x4008
489 356 m 0x11
 489 291 449 244 382 244 c 2
 324 244 l 1
 324 469 l 1
 382 469 l 2
 449 469 489 421 489 356 c 0x11
EndSplineSet
Substitution2: "'c2sc' Capitals to Small Capitals in Latin lookup 18 subtable" wacute.sc
Substitution2: "'aalt' Access All Alternates in Latin lookup 0 subtable" wacute.sc
EndChar

StartChar: Wcircumflex
Encoding: 372 372 102
Width: 1727
GlyphClass: 2
Flags: MW
HStem: 32 182<132 379 290 379 379 423.5 584 782 835 869 1087 1121> 240 233<1287 1349> 244 100<619 772 619 782 619 772> 244 225<324 382 324 382 619 782> 374 95<619 772> 498 170<290 379 290 290 584 584 584 782 835 835 835 867 1088 1088 1088 1121>
VStem: 132 158<214 498 214 668> 324 165<323.5 388.5 323.5 469 323.5 469> 526 58<314.5 397.5> 782 53<214 244 244 244 469 498 214 498> 869 218<214 442 214 442> 1121 58<313.5 399 313.5 498> 1216 205<322.5 390> 1456 139<313.5 399>
LayerCount: 2
Fore
SplineSet
1627 0 m 1x87f4
 1627 700 l 1
 100 700 l 1
 100 0 l 1
 1627 0 l 1x87f4
132 32 m 1
 132 668 l 1
 1595 668 l 1
 1595 32 l 1
 132 32 l 1
1456 356 m 0
 1456 442 1401 503 1318 503 c 0
 1235 503 1179 442 1179 356 c 0
 1179 271 1235 211 1318 211 c 0
 1401 211 1456 271 1456 356 c 0
526 356 m 0
 526 439 468 498 379 498 c 2
 290 498 l 1
 290 214 l 1
 379 214 l 2
 468 214 526 273 526 356 c 0
619 469 m 1x0840
 782 469 l 1x0840
 782 498 l 1
 584 498 l 1
 584 214 l 1
 782 214 l 1x84c0
 782 244 l 1
 619 244 l 1
 619 344 l 1
 772 344 l 1x2040
 772 374 l 1
 619 374 l 1
 619 469 l 1x0840
1121 498 m 1x8470
 1088 498 l 1
 977 362 l 1
 867 498 l 1
 835 498 l 1
 835 214 l 1
 869 214 l 1
 869 442 l 1
 971 318 l 1
 985 318 l 1
 1087 442 l 1
 1087 214 l 1
 1121 214 l 1
 1121 498 l 1x8470
1216 356 m 0x4008
 1216 424 1256 473 1318 473 c 0
 1380 473 1421 424 1421 356 c 0
 1421 289 1380 240 1318 240 c 0
 1256 240 1216 289 1216 356 c 0x4008
489 356 m 0x11
 489 291 449 244 382 244 c 2
 324 244 l 1
 324 469 l 1
 382 469 l 2
 449 469 489 421 489 356 c 0x11
EndSplineSet
Substitution2: "'c2sc' Capitals to Small Capitals in Latin lookup 18 subtable" wcircumflex.sc
Substitution2: "'aalt' Access All Alternates in Latin lookup 0 subtable" wcircumflex.sc
EndChar

StartChar: Wdieresis
Encoding: 7812 7812 103
Width: 1727
GlyphClass: 2
Flags: MW
HStem: 32 182<132 379 290 379 379 423.5 584 782 835 869 1087 1121> 240 233<1287 1349> 244 100<619 772 619 782 619 772> 244 225<324 382 324 382 619 782> 374 95<619 772> 498 170<290 379 290 290 584 584 584 782 835 835 835 867 1088 1088 1088 1121>
VStem: 132 158<214 498 214 668> 324 165<323.5 388.5 323.5 469 323.5 469> 526 58<314.5 397.5> 782 53<214 244 244 244 469 498 214 498> 869 218<214 442 214 442> 1121 58<313.5 399 313.5 498> 1216 205<322.5 390> 1456 139<313.5 399>
LayerCount: 2
Fore
SplineSet
1627 0 m 1x87f4
 1627 700 l 1
 100 700 l 1
 100 0 l 1
 1627 0 l 1x87f4
132 32 m 1
 132 668 l 1
 1595 668 l 1
 1595 32 l 1
 132 32 l 1
1456 356 m 0
 1456 442 1401 503 1318 503 c 0
 1235 503 1179 442 1179 356 c 0
 1179 271 1235 211 1318 211 c 0
 1401 211 1456 271 1456 356 c 0
526 356 m 0
 526 439 468 498 379 498 c 2
 290 498 l 1
 290 214 l 1
 379 214 l 2
 468 214 526 273 526 356 c 0
619 469 m 1x0840
 782 469 l 1x0840
 782 498 l 1
 584 498 l 1
 584 214 l 1
 782 214 l 1x84c0
 782 244 l 1
 619 244 l 1
 619 344 l 1
 772 344 l 1x2040
 772 374 l 1
 619 374 l 1
 619 469 l 1x0840
1121 498 m 1x8470
 1088 498 l 1
 977 362 l 1
 867 498 l 1
 835 498 l 1
 835 214 l 1
 869 214 l 1
 869 442 l 1
 971 318 l 1
 985 318 l 1
 1087 442 l 1
 1087 214 l 1
 1121 214 l 1
 1121 498 l 1x8470
1216 356 m 0x4008
 1216 424 1256 473 1318 473 c 0
 1380 473 1421 424 1421 356 c 0
 1421 289 1380 240 1318 240 c 0
 1256 240 1216 289 1216 356 c 0x4008
489 356 m 0x11
 489 291 449 244 382 244 c 2
 324 244 l 1
 324 469 l 1
 382 469 l 2
 449 469 489 421 489 356 c 0x11
EndSplineSet
Substitution2: "'c2sc' Capitals to Small Capitals in Latin lookup 18 subtable" wdieresis.sc
Substitution2: "'aalt' Access All Alternates in Latin lookup 0 subtable" wdieresis.sc
EndChar

StartChar: Wgrave
Encoding: 7808 7808 104
Width: 1727
GlyphClass: 2
Flags: MW
HStem: 32 182<132 379 290 379 379 423.5 584 782 835 869 1087 1121> 240 233<1287 1349> 244 100<619 772 619 782 619 772> 244 225<324 382 324 382 619 782> 374 95<619 772> 498 170<290 379 290 290 584 584 584 782 835 835 835 867 1088 1088 1088 1121>
VStem: 132 158<214 498 214 668> 324 165<323.5 388.5 323.5 469 323.5 469> 526 58<314.5 397.5> 782 53<214 244 244 244 469 498 214 498> 869 218<214 442 214 442> 1121 58<313.5 399 313.5 498> 1216 205<322.5 390> 1456 139<313.5 399>
LayerCount: 2
Fore
SplineSet
1627 0 m 1x87f4
 1627 700 l 1
 100 700 l 1
 100 0 l 1
 1627 0 l 1x87f4
132 32 m 1
 132 668 l 1
 1595 668 l 1
 1595 32 l 1
 132 32 l 1
1456 356 m 0
 1456 442 1401 503 1318 503 c 0
 1235 503 1179 442 1179 356 c 0
 1179 271 1235 211 1318 211 c 0
 1401 211 1456 271 1456 356 c 0
526 356 m 0
 526 439 468 498 379 498 c 2
 290 498 l 1
 290 214 l 1
 379 214 l 2
 468 214 526 273 526 356 c 0
619 469 m 1x0840
 782 469 l 1x0840
 782 498 l 1
 584 498 l 1
 584 214 l 1
 782 214 l 1x84c0
 782 244 l 1
 619 244 l 1
 619 344 l 1
 772 344 l 1x2040
 772 374 l 1
 619 374 l 1
 619 469 l 1x0840
1121 498 m 1x8470
 1088 498 l 1
 977 362 l 1
 867 498 l 1
 835 498 l 1
 835 214 l 1
 869 214 l 1
 869 442 l 1
 971 318 l 1
 985 318 l 1
 1087 442 l 1
 1087 214 l 1
 1121 214 l 1
 1121 498 l 1x8470
1216 356 m 0x4008
 1216 424 1256 473 1318 473 c 0
 1380 473 1421 424 1421 356 c 0
 1421 289 1380 240 1318 240 c 0
 1256 240 1216 289 1216 356 c 0x4008
489 356 m 0x11
 489 291 449 244 382 244 c 2
 324 244 l 1
 324 469 l 1
 382 469 l 2
 449 469 489 421 489 356 c 0x11
EndSplineSet
Substitution2: "'c2sc' Capitals to Small Capitals in Latin lookup 18 subtable" wgrave.sc
Substitution2: "'aalt' Access All Alternates in Latin lookup 0 subtable" wgrave.sc
EndChar

StartChar: X
Encoding: 88 88 105
Width: 681
GlyphClass: 2
Flags: MW
HStem: 0 21G<45 121 45 45 560 636 560 560> 680 20G<53 129 129 129 552 629 629 629>
VStem: 45 591<0 0>
LayerCount: 2
Fore
SplineSet
636 0 m 1
 560 0 l 1
 341 308 l 1
 121 0 l 1
 45 0 l 1
 302 351 l 1
 53 700 l 1
 129 700 l 1
 341 394 l 1
 552 700 l 1
 629 700 l 1
 380 351 l 1
 636 0 l 1
EndSplineSet
Substitution2: "'c2sc' Capitals to Small Capitals in Latin lookup 18 subtable" x.sc
Substitution2: "'aalt' Access All Alternates in Latin lookup 0 subtable" x.sc
EndChar

StartChar: Y
Encoding: 89 89 106
Width: 697
GlyphClass: 2
Flags: MW
HStem: 0 21G<316 382 316 316> 680 20G<45 119 119 119 578 652 652 652>
VStem: 316 66<0 274 0 274>
LayerCount: 2
Fore
SplineSet
652 700 m 1
 382 274 l 1
 382 0 l 1
 316 0 l 1
 316 274 l 1
 45 700 l 1
 119 700 l 1
 349 326 l 1
 578 700 l 1
 652 700 l 1
EndSplineSet
Substitution2: "'c2sc' Capitals to Small Capitals in Latin lookup 18 subtable" y.sc
Substitution2: "'aalt' Access All Alternates in Latin lookup 0 subtable" y.sc
EndChar

StartChar: Yacute
Encoding: 221 221 107
Width: 1727
GlyphClass: 2
Flags: MW
HStem: 32 182<132 379 290 379 379 423.5 584 782 835 869 1087 1121> 240 233<1287 1349> 244 100<619 772 619 782 619 772> 244 225<324 382 324 382 619 782> 374 95<619 772> 498 170<290 379 290 290 584 584 584 782 835 835 835 867 1088 1088 1088 1121>
VStem: 132 158<214 498 214 668> 324 165<323.5 388.5 323.5 469 323.5 469> 526 58<314.5 397.5> 782 53<214 244 244 244 469 498 214 498> 869 218<214 442 214 442> 1121 58<313.5 399 313.5 498> 1216 205<322.5 390> 1456 139<313.5 399>
LayerCount: 2
Fore
SplineSet
1627 0 m 1x87f4
 1627 700 l 1
 100 700 l 1
 100 0 l 1
 1627 0 l 1x87f4
132 32 m 1
 132 668 l 1
 1595 668 l 1
 1595 32 l 1
 132 32 l 1
1456 356 m 0
 1456 442 1401 503 1318 503 c 0
 1235 503 1179 442 1179 356 c 0
 1179 271 1235 211 1318 211 c 0
 1401 211 1456 271 1456 356 c 0
526 356 m 0
 526 439 468 498 379 498 c 2
 290 498 l 1
 290 214 l 1
 379 214 l 2
 468 214 526 273 526 356 c 0
619 469 m 1x0840
 782 469 l 1x0840
 782 498 l 1
 584 498 l 1
 584 214 l 1
 782 214 l 1x84c0
 782 244 l 1
 619 244 l 1
 619 344 l 1
 772 344 l 1x2040
 772 374 l 1
 619 374 l 1
 619 469 l 1x0840
1121 498 m 1x8470
 1088 498 l 1
 977 362 l 1
 867 498 l 1
 835 498 l 1
 835 214 l 1
 869 214 l 1
 869 442 l 1
 971 318 l 1
 985 318 l 1
 1087 442 l 1
 1087 214 l 1
 1121 214 l 1
 1121 498 l 1x8470
1216 356 m 0x4008
 1216 424 1256 473 1318 473 c 0
 1380 473 1421 424 1421 356 c 0
 1421 289 1380 240 1318 240 c 0
 1256 240 1216 289 1216 356 c 0x4008
489 356 m 0x11
 489 291 449 244 382 244 c 2
 324 244 l 1
 324 469 l 1
 382 469 l 2
 449 469 489 421 489 356 c 0x11
EndSplineSet
Substitution2: "'c2sc' Capitals to Small Capitals in Latin lookup 18 subtable" yacute.sc
Substitution2: "'aalt' Access All Alternates in Latin lookup 0 subtable" yacute.sc
EndChar

StartChar: Ycircumflex
Encoding: 374 374 108
Width: 1727
GlyphClass: 2
Flags: MW
HStem: 32 182<132 379 290 379 379 423.5 584 782 835 869 1087 1121> 240 233<1287 1349> 244 100<619 772 619 782 619 772> 244 225<324 382 324 382 619 782> 374 95<619 772> 498 170<290 379 290 290 584 584 584 782 835 835 835 867 1088 1088 1088 1121>
VStem: 132 158<214 498 214 668> 324 165<323.5 388.5 323.5 469 323.5 469> 526 58<314.5 397.5> 782 53<214 244 244 244 469 498 214 498> 869 218<214 442 214 442> 1121 58<313.5 399 313.5 498> 1216 205<322.5 390> 1456 139<313.5 399>
LayerCount: 2
Fore
SplineSet
1627 0 m 1x87f4
 1627 700 l 1
 100 700 l 1
 100 0 l 1
 1627 0 l 1x87f4
132 32 m 1
 132 668 l 1
 1595 668 l 1
 1595 32 l 1
 132 32 l 1
1456 356 m 0
 1456 442 1401 503 1318 503 c 0
 1235 503 1179 442 1179 356 c 0
 1179 271 1235 211 1318 211 c 0
 1401 211 1456 271 1456 356 c 0
526 356 m 0
 526 439 468 498 379 498 c 2
 290 498 l 1
 290 214 l 1
 379 214 l 2
 468 214 526 273 526 356 c 0
619 469 m 1x0840
 782 469 l 1x0840
 782 498 l 1
 584 498 l 1
 584 214 l 1
 782 214 l 1x84c0
 782 244 l 1
 619 244 l 1
 619 344 l 1
 772 344 l 1x2040
 772 374 l 1
 619 374 l 1
 619 469 l 1x0840
1121 498 m 1x8470
 1088 498 l 1
 977 362 l 1
 867 498 l 1
 835 498 l 1
 835 214 l 1
 869 214 l 1
 869 442 l 1
 971 318 l 1
 985 318 l 1
 1087 442 l 1
 1087 214 l 1
 1121 214 l 1
 1121 498 l 1x8470
1216 356 m 0x4008
 1216 424 1256 473 1318 473 c 0
 1380 473 1421 424 1421 356 c 0
 1421 289 1380 240 1318 240 c 0
 1256 240 1216 289 1216 356 c 0x4008
489 356 m 0x11
 489 291 449 244 382 244 c 2
 324 244 l 1
 324 469 l 1
 382 469 l 2
 449 469 489 421 489 356 c 0x11
EndSplineSet
Substitution2: "'c2sc' Capitals to Small Capitals in Latin lookup 18 subtable" ycircumflex.sc
Substitution2: "'aalt' Access All Alternates in Latin lookup 0 subtable" ycircumflex.sc
EndChar

StartChar: Ydieresis
Encoding: 376 376 109
Width: 1727
GlyphClass: 2
Flags: MW
HStem: 32 182<132 379 290 379 379 423.5 584 782 835 869 1087 1121> 240 233<1287 1349> 244 100<619 772 619 782 619 772> 244 225<324 382 324 382 619 782> 374 95<619 772> 498 170<290 379 290 290 584 584 584 782 835 835 835 867 1088 1088 1088 1121>
VStem: 132 158<214 498 214 668> 324 165<323.5 388.5 323.5 469 323.5 469> 526 58<314.5 397.5> 782 53<214 244 244 244 469 498 214 498> 869 218<214 442 214 442> 1121 58<313.5 399 313.5 498> 1216 205<322.5 390> 1456 139<313.5 399>
LayerCount: 2
Fore
SplineSet
1627 0 m 1x87f4
 1627 700 l 1
 100 700 l 1
 100 0 l 1
 1627 0 l 1x87f4
132 32 m 1
 132 668 l 1
 1595 668 l 1
 1595 32 l 1
 132 32 l 1
1456 356 m 0
 1456 442 1401 503 1318 503 c 0
 1235 503 1179 442 1179 356 c 0
 1179 271 1235 211 1318 211 c 0
 1401 211 1456 271 1456 356 c 0
526 356 m 0
 526 439 468 498 379 498 c 2
 290 498 l 1
 290 214 l 1
 379 214 l 2
 468 214 526 273 526 356 c 0
619 469 m 1x0840
 782 469 l 1x0840
 782 498 l 1
 584 498 l 1
 584 214 l 1
 782 214 l 1x84c0
 782 244 l 1
 619 244 l 1
 619 344 l 1
 772 344 l 1x2040
 772 374 l 1
 619 374 l 1
 619 469 l 1x0840
1121 498 m 1x8470
 1088 498 l 1
 977 362 l 1
 867 498 l 1
 835 498 l 1
 835 214 l 1
 869 214 l 1
 869 442 l 1
 971 318 l 1
 985 318 l 1
 1087 442 l 1
 1087 214 l 1
 1121 214 l 1
 1121 498 l 1x8470
1216 356 m 0x4008
 1216 424 1256 473 1318 473 c 0
 1380 473 1421 424 1421 356 c 0
 1421 289 1380 240 1318 240 c 0
 1256 240 1216 289 1216 356 c 0x4008
489 356 m 0x11
 489 291 449 244 382 244 c 2
 324 244 l 1
 324 469 l 1
 382 469 l 2
 449 469 489 421 489 356 c 0x11
EndSplineSet
Substitution2: "'c2sc' Capitals to Small Capitals in Latin lookup 18 subtable" ydieresis.sc
Substitution2: "'aalt' Access All Alternates in Latin lookup 0 subtable" ydieresis.sc
EndChar

StartChar: Ygrave
Encoding: 7922 7922 110
Width: 1727
GlyphClass: 2
Flags: MW
HStem: 32 182<132 379 290 379 379 423.5 584 782 835 869 1087 1121> 240 233<1287 1349> 244 100<619 772 619 782 619 772> 244 225<324 382 324 382 619 782> 374 95<619 772> 498 170<290 379 290 290 584 584 584 782 835 835 835 867 1088 1088 1088 1121>
VStem: 132 158<214 498 214 668> 324 165<323.5 388.5 323.5 469 323.5 469> 526 58<314.5 397.5> 782 53<214 244 244 244 469 498 214 498> 869 218<214 442 214 442> 1121 58<313.5 399 313.5 498> 1216 205<322.5 390> 1456 139<313.5 399>
LayerCount: 2
Fore
SplineSet
1627 0 m 1x87f4
 1627 700 l 1
 100 700 l 1
 100 0 l 1
 1627 0 l 1x87f4
132 32 m 1
 132 668 l 1
 1595 668 l 1
 1595 32 l 1
 132 32 l 1
1456 356 m 0
 1456 442 1401 503 1318 503 c 0
 1235 503 1179 442 1179 356 c 0
 1179 271 1235 211 1318 211 c 0
 1401 211 1456 271 1456 356 c 0
526 356 m 0
 526 439 468 498 379 498 c 2
 290 498 l 1
 290 214 l 1
 379 214 l 2
 468 214 526 273 526 356 c 0
619 469 m 1x0840
 782 469 l 1x0840
 782 498 l 1
 584 498 l 1
 584 214 l 1
 782 214 l 1x84c0
 782 244 l 1
 619 244 l 1
 619 344 l 1
 772 344 l 1x2040
 772 374 l 1
 619 374 l 1
 619 469 l 1x0840
1121 498 m 1x8470
 1088 498 l 1
 977 362 l 1
 867 498 l 1
 835 498 l 1
 835 214 l 1
 869 214 l 1
 869 442 l 1
 971 318 l 1
 985 318 l 1
 1087 442 l 1
 1087 214 l 1
 1121 214 l 1
 1121 498 l 1x8470
1216 356 m 0x4008
 1216 424 1256 473 1318 473 c 0
 1380 473 1421 424 1421 356 c 0
 1421 289 1380 240 1318 240 c 0
 1256 240 1216 289 1216 356 c 0x4008
489 356 m 0x11
 489 291 449 244 382 244 c 2
 324 244 l 1
 324 469 l 1
 382 469 l 2
 449 469 489 421 489 356 c 0x11
EndSplineSet
Substitution2: "'c2sc' Capitals to Small Capitals in Latin lookup 18 subtable" ygrave.sc
Substitution2: "'aalt' Access All Alternates in Latin lookup 0 subtable" ygrave.sc
EndChar

StartChar: Z
Encoding: 90 90 111
Width: 683
GlyphClass: 2
Flags: MW
HStem: 0 57<150 611 150 611> 644 56<73 533 73 607>
VStem: 73 538<0 53 53 53>
LayerCount: 2
Fore
SplineSet
150 57 m 1
 611 57 l 1
 611 0 l 1
 73 0 l 1
 73 53 l 1
 533 644 l 1
 73 644 l 1
 73 700 l 1
 607 700 l 1
 607 647 l 1
 150 57 l 1
EndSplineSet
Substitution2: "'c2sc' Capitals to Small Capitals in Latin lookup 18 subtable" z.sc
Substitution2: "'aalt' Access All Alternates in Latin lookup 0 subtable" z.sc
EndChar

StartChar: Zacute
Encoding: 377 377 112
Width: 1727
GlyphClass: 2
Flags: MW
HStem: 32 182<132 379 290 379 379 423.5 584 782 835 869 1087 1121> 240 233<1287 1349> 244 100<619 772 619 782 619 772> 244 225<324 382 324 382 619 782> 374 95<619 772> 498 170<290 379 290 290 584 584 584 782 835 835 835 867 1088 1088 1088 1121>
VStem: 132 158<214 498 214 668> 324 165<323.5 388.5 323.5 469 323.5 469> 526 58<314.5 397.5> 782 53<214 244 244 244 469 498 214 498> 869 218<214 442 214 442> 1121 58<313.5 399 313.5 498> 1216 205<322.5 390> 1456 139<313.5 399>
LayerCount: 2
Fore
SplineSet
1627 0 m 1x87f4
 1627 700 l 1
 100 700 l 1
 100 0 l 1
 1627 0 l 1x87f4
132 32 m 1
 132 668 l 1
 1595 668 l 1
 1595 32 l 1
 132 32 l 1
1456 356 m 0
 1456 442 1401 503 1318 503 c 0
 1235 503 1179 442 1179 356 c 0
 1179 271 1235 211 1318 211 c 0
 1401 211 1456 271 1456 356 c 0
526 356 m 0
 526 439 468 498 379 498 c 2
 290 498 l 1
 290 214 l 1
 379 214 l 2
 468 214 526 273 526 356 c 0
619 469 m 1x0840
 782 469 l 1x0840
 782 498 l 1
 584 498 l 1
 584 214 l 1
 782 214 l 1x84c0
 782 244 l 1
 619 244 l 1
 619 344 l 1
 772 344 l 1x2040
 772 374 l 1
 619 374 l 1
 619 469 l 1x0840
1121 498 m 1x8470
 1088 498 l 1
 977 362 l 1
 867 498 l 1
 835 498 l 1
 835 214 l 1
 869 214 l 1
 869 442 l 1
 971 318 l 1
 985 318 l 1
 1087 442 l 1
 1087 214 l 1
 1121 214 l 1
 1121 498 l 1x8470
1216 356 m 0x4008
 1216 424 1256 473 1318 473 c 0
 1380 473 1421 424 1421 356 c 0
 1421 289 1380 240 1318 240 c 0
 1256 240 1216 289 1216 356 c 0x4008
489 356 m 0x11
 489 291 449 244 382 244 c 2
 324 244 l 1
 324 469 l 1
 382 469 l 2
 449 469 489 421 489 356 c 0x11
EndSplineSet
Substitution2: "'c2sc' Capitals to Small Capitals in Latin lookup 18 subtable" zacute.sc
Substitution2: "'aalt' Access All Alternates in Latin lookup 0 subtable" zacute.sc
EndChar

StartChar: Zcaron
Encoding: 381 381 113
Width: 1727
GlyphClass: 2
Flags: MW
HStem: 32 182<132 379 290 379 379 423.5 584 782 835 869 1087 1121> 240 233<1287 1349> 244 100<619 772 619 782 619 772> 244 225<324 382 324 382 619 782> 374 95<619 772> 498 170<290 379 290 290 584 584 584 782 835 835 835 867 1088 1088 1088 1121>
VStem: 132 158<214 498 214 668> 324 165<323.5 388.5 323.5 469 323.5 469> 526 58<314.5 397.5> 782 53<214 244 244 244 469 498 214 498> 869 218<214 442 214 442> 1121 58<313.5 399 313.5 498> 1216 205<322.5 390> 1456 139<313.5 399>
LayerCount: 2
Fore
SplineSet
1627 0 m 1x87f4
 1627 700 l 1
 100 700 l 1
 100 0 l 1
 1627 0 l 1x87f4
132 32 m 1
 132 668 l 1
 1595 668 l 1
 1595 32 l 1
 132 32 l 1
1456 356 m 0
 1456 442 1401 503 1318 503 c 0
 1235 503 1179 442 1179 356 c 0
 1179 271 1235 211 1318 211 c 0
 1401 211 1456 271 1456 356 c 0
526 356 m 0
 526 439 468 498 379 498 c 2
 290 498 l 1
 290 214 l 1
 379 214 l 2
 468 214 526 273 526 356 c 0
619 469 m 1x0840
 782 469 l 1x0840
 782 498 l 1
 584 498 l 1
 584 214 l 1
 782 214 l 1x84c0
 782 244 l 1
 619 244 l 1
 619 344 l 1
 772 344 l 1x2040
 772 374 l 1
 619 374 l 1
 619 469 l 1x0840
1121 498 m 1x8470
 1088 498 l 1
 977 362 l 1
 867 498 l 1
 835 498 l 1
 835 214 l 1
 869 214 l 1
 869 442 l 1
 971 318 l 1
 985 318 l 1
 1087 442 l 1
 1087 214 l 1
 1121 214 l 1
 1121 498 l 1x8470
1216 356 m 0x4008
 1216 424 1256 473 1318 473 c 0
 1380 473 1421 424 1421 356 c 0
 1421 289 1380 240 1318 240 c 0
 1256 240 1216 289 1216 356 c 0x4008
489 356 m 0x11
 489 291 449 244 382 244 c 2
 324 244 l 1
 324 469 l 1
 382 469 l 2
 449 469 489 421 489 356 c 0x11
EndSplineSet
Substitution2: "'c2sc' Capitals to Small Capitals in Latin lookup 18 subtable" zcaron.sc
Substitution2: "'aalt' Access All Alternates in Latin lookup 0 subtable" zcaron.sc
EndChar

StartChar: Zdotaccent
Encoding: 379 379 114
Width: 1727
GlyphClass: 2
Flags: MW
HStem: 32 182<132 379 290 379 379 423.5 584 782 835 869 1087 1121> 240 233<1287 1349> 244 100<619 772 619 782 619 772> 244 225<324 382 324 382 619 782> 374 95<619 772> 498 170<290 379 290 290 584 584 584 782 835 835 835 867 1088 1088 1088 1121>
VStem: 132 158<214 498 214 668> 324 165<323.5 388.5 323.5 469 323.5 469> 526 58<314.5 397.5> 782 53<214 244 244 244 469 498 214 498> 869 218<214 442 214 442> 1121 58<313.5 399 313.5 498> 1216 205<322.5 390> 1456 139<313.5 399>
LayerCount: 2
Fore
SplineSet
1627 0 m 1x87f4
 1627 700 l 1
 100 700 l 1
 100 0 l 1
 1627 0 l 1x87f4
132 32 m 1
 132 668 l 1
 1595 668 l 1
 1595 32 l 1
 132 32 l 1
1456 356 m 0
 1456 442 1401 503 1318 503 c 0
 1235 503 1179 442 1179 356 c 0
 1179 271 1235 211 1318 211 c 0
 1401 211 1456 271 1456 356 c 0
526 356 m 0
 526 439 468 498 379 498 c 2
 290 498 l 1
 290 214 l 1
 379 214 l 2
 468 214 526 273 526 356 c 0
619 469 m 1x0840
 782 469 l 1x0840
 782 498 l 1
 584 498 l 1
 584 214 l 1
 782 214 l 1x84c0
 782 244 l 1
 619 244 l 1
 619 344 l 1
 772 344 l 1x2040
 772 374 l 1
 619 374 l 1
 619 469 l 1x0840
1121 498 m 1x8470
 1088 498 l 1
 977 362 l 1
 867 498 l 1
 835 498 l 1
 835 214 l 1
 869 214 l 1
 869 442 l 1
 971 318 l 1
 985 318 l 1
 1087 442 l 1
 1087 214 l 1
 1121 214 l 1
 1121 498 l 1x8470
1216 356 m 0x4008
 1216 424 1256 473 1318 473 c 0
 1380 473 1421 424 1421 356 c 0
 1421 289 1380 240 1318 240 c 0
 1256 240 1216 289 1216 356 c 0x4008
489 356 m 0x11
 489 291 449 244 382 244 c 2
 324 244 l 1
 324 469 l 1
 382 469 l 2
 449 469 489 421 489 356 c 0x11
EndSplineSet
Substitution2: "'c2sc' Capitals to Small Capitals in Latin lookup 18 subtable" zdotaccent.sc
Substitution2: "'aalt' Access All Alternates in Latin lookup 0 subtable" zdotaccent.sc
EndChar

StartChar: I.ss01
Encoding: 65537 -1 115
Width: 1727
GlyphClass: 2
Flags: MW
HStem: 32 182<132 379 290 379 379 423.5 584 782 835 869 1087 1121> 240 233<1287 1349> 244 100<619 772 619 782 619 772> 244 225<324 382 324 382 619 782> 374 95<619 772> 498 170<290 379 290 290 584 584 584 782 835 835 835 867 1088 1088 1088 1121>
VStem: 132 158<214 498 214 668> 324 165<323.5 388.5 323.5 469 323.5 469> 526 58<314.5 397.5> 782 53<214 244 244 244 469 498 214 498> 869 218<214 442 214 442> 1121 58<313.5 399 313.5 498> 1216 205<322.5 390> 1456 139<313.5 399>
LayerCount: 2
Fore
SplineSet
1627 0 m 1x87f4
 1627 700 l 1
 100 700 l 1
 100 0 l 1
 1627 0 l 1x87f4
132 32 m 1
 132 668 l 1
 1595 668 l 1
 1595 32 l 1
 132 32 l 1
1456 356 m 0
 1456 442 1401 503 1318 503 c 0
 1235 503 1179 442 1179 356 c 0
 1179 271 1235 211 1318 211 c 0
 1401 211 1456 271 1456 356 c 0
526 356 m 0
 526 439 468 498 379 498 c 2
 290 498 l 1
 290 214 l 1
 379 214 l 2
 468 214 526 273 526 356 c 0
619 469 m 1x0840
 782 469 l 1x0840
 782 498 l 1
 584 498 l 1
 584 214 l 1
 782 214 l 1x84c0
 782 244 l 1
 619 244 l 1
 619 344 l 1
 772 344 l 1x2040
 772 374 l 1
 619 374 l 1
 619 469 l 1x0840
1121 498 m 1x8470
 1088 498 l 1
 977 362 l 1
 867 498 l 1
 835 498 l 1
 835 214 l 1
 869 214 l 1
 869 442 l 1
 971 318 l 1
 985 318 l 1
 1087 442 l 1
 1087 214 l 1
 1121 214 l 1
 1121 498 l 1x8470
1216 356 m 0x4008
 1216 424 1256 473 1318 473 c 0
 1380 473 1421 424 1421 356 c 0
 1421 289 1380 240 1318 240 c 0
 1256 240 1216 289 1216 356 c 0x4008
489 356 m 0x11
 489 291 449 244 382 244 c 2
 324 244 l 1
 324 469 l 1
 382 469 l 2
 449 469 489 421 489 356 c 0x11
EndSplineSet
EndChar

StartChar: IJ.ss01
Encoding: 65538 -1 116
Width: 1727
GlyphClass: 2
Flags: MW
HStem: 32 182<132 379 290 379 379 423.5 584 782 835 869 1087 1121> 240 233<1287 1349> 244 100<619 772 619 782 619 772> 244 225<324 382 324 382 619 782> 374 95<619 772> 498 170<290 379 290 290 584 584 584 782 835 835 835 867 1088 1088 1088 1121>
VStem: 132 158<214 498 214 668> 324 165<323.5 388.5 323.5 469 323.5 469> 526 58<314.5 397.5> 782 53<214 244 244 244 469 498 214 498> 869 218<214 442 214 442> 1121 58<313.5 399 313.5 498> 1216 205<322.5 390> 1456 139<313.5 399>
LayerCount: 2
Fore
SplineSet
1627 0 m 1x87f4
 1627 700 l 1
 100 700 l 1
 100 0 l 1
 1627 0 l 1x87f4
132 32 m 1
 132 668 l 1
 1595 668 l 1
 1595 32 l 1
 132 32 l 1
1456 356 m 0
 1456 442 1401 503 1318 503 c 0
 1235 503 1179 442 1179 356 c 0
 1179 271 1235 211 1318 211 c 0
 1401 211 1456 271 1456 356 c 0
526 356 m 0
 526 439 468 498 379 498 c 2
 290 498 l 1
 290 214 l 1
 379 214 l 2
 468 214 526 273 526 356 c 0
619 469 m 1x0840
 782 469 l 1x0840
 782 498 l 1
 584 498 l 1
 584 214 l 1
 782 214 l 1x84c0
 782 244 l 1
 619 244 l 1
 619 344 l 1
 772 344 l 1x2040
 772 374 l 1
 619 374 l 1
 619 469 l 1x0840
1121 498 m 1x8470
 1088 498 l 1
 977 362 l 1
 867 498 l 1
 835 498 l 1
 835 214 l 1
 869 214 l 1
 869 442 l 1
 971 318 l 1
 985 318 l 1
 1087 442 l 1
 1087 214 l 1
 1121 214 l 1
 1121 498 l 1x8470
1216 356 m 0x4008
 1216 424 1256 473 1318 473 c 0
 1380 473 1421 424 1421 356 c 0
 1421 289 1380 240 1318 240 c 0
 1256 240 1216 289 1216 356 c 0x4008
489 356 m 0x11
 489 291 449 244 382 244 c 2
 324 244 l 1
 324 469 l 1
 382 469 l 2
 449 469 489 421 489 356 c 0x11
EndSplineSet
EndChar

StartChar: Iacute.ss01
Encoding: 65539 -1 117
Width: 1727
GlyphClass: 2
Flags: MW
HStem: 32 182<132 379 290 379 379 423.5 584 782 835 869 1087 1121> 240 233<1287 1349> 244 100<619 772 619 782 619 772> 244 225<324 382 324 382 619 782> 374 95<619 772> 498 170<290 379 290 290 584 584 584 782 835 835 835 867 1088 1088 1088 1121>
VStem: 132 158<214 498 214 668> 324 165<323.5 388.5 323.5 469 323.5 469> 526 58<314.5 397.5> 782 53<214 244 244 244 469 498 214 498> 869 218<214 442 214 442> 1121 58<313.5 399 313.5 498> 1216 205<322.5 390> 1456 139<313.5 399>
LayerCount: 2
Fore
SplineSet
1627 0 m 1x87f4
 1627 700 l 1
 100 700 l 1
 100 0 l 1
 1627 0 l 1x87f4
132 32 m 1
 132 668 l 1
 1595 668 l 1
 1595 32 l 1
 132 32 l 1
1456 356 m 0
 1456 442 1401 503 1318 503 c 0
 1235 503 1179 442 1179 356 c 0
 1179 271 1235 211 1318 211 c 0
 1401 211 1456 271 1456 356 c 0
526 356 m 0
 526 439 468 498 379 498 c 2
 290 498 l 1
 290 214 l 1
 379 214 l 2
 468 214 526 273 526 356 c 0
619 469 m 1x0840
 782 469 l 1x0840
 782 498 l 1
 584 498 l 1
 584 214 l 1
 782 214 l 1x84c0
 782 244 l 1
 619 244 l 1
 619 344 l 1
 772 344 l 1x2040
 772 374 l 1
 619 374 l 1
 619 469 l 1x0840
1121 498 m 1x8470
 1088 498 l 1
 977 362 l 1
 867 498 l 1
 835 498 l 1
 835 214 l 1
 869 214 l 1
 869 442 l 1
 971 318 l 1
 985 318 l 1
 1087 442 l 1
 1087 214 l 1
 1121 214 l 1
 1121 498 l 1x8470
1216 356 m 0x4008
 1216 424 1256 473 1318 473 c 0
 1380 473 1421 424 1421 356 c 0
 1421 289 1380 240 1318 240 c 0
 1256 240 1216 289 1216 356 c 0x4008
489 356 m 0x11
 489 291 449 244 382 244 c 2
 324 244 l 1
 324 469 l 1
 382 469 l 2
 449 469 489 421 489 356 c 0x11
EndSplineSet
EndChar

StartChar: Icircumflex.ss01
Encoding: 65540 -1 118
Width: 1727
GlyphClass: 2
Flags: MW
HStem: 32 182<132 379 290 379 379 423.5 584 782 835 869 1087 1121> 240 233<1287 1349> 244 100<619 772 619 782 619 772> 244 225<324 382 324 382 619 782> 374 95<619 772> 498 170<290 379 290 290 584 584 584 782 835 835 835 867 1088 1088 1088 1121>
VStem: 132 158<214 498 214 668> 324 165<323.5 388.5 323.5 469 323.5 469> 526 58<314.5 397.5> 782 53<214 244 244 244 469 498 214 498> 869 218<214 442 214 442> 1121 58<313.5 399 313.5 498> 1216 205<322.5 390> 1456 139<313.5 399>
LayerCount: 2
Fore
SplineSet
1627 0 m 1x87f4
 1627 700 l 1
 100 700 l 1
 100 0 l 1
 1627 0 l 1x87f4
132 32 m 1
 132 668 l 1
 1595 668 l 1
 1595 32 l 1
 132 32 l 1
1456 356 m 0
 1456 442 1401 503 1318 503 c 0
 1235 503 1179 442 1179 356 c 0
 1179 271 1235 211 1318 211 c 0
 1401 211 1456 271 1456 356 c 0
526 356 m 0
 526 439 468 498 379 498 c 2
 290 498 l 1
 290 214 l 1
 379 214 l 2
 468 214 526 273 526 356 c 0
619 469 m 1x0840
 782 469 l 1x0840
 782 498 l 1
 584 498 l 1
 584 214 l 1
 782 214 l 1x84c0
 782 244 l 1
 619 244 l 1
 619 344 l 1
 772 344 l 1x2040
 772 374 l 1
 619 374 l 1
 619 469 l 1x0840
1121 498 m 1x8470
 1088 498 l 1
 977 362 l 1
 867 498 l 1
 835 498 l 1
 835 214 l 1
 869 214 l 1
 869 442 l 1
 971 318 l 1
 985 318 l 1
 1087 442 l 1
 1087 214 l 1
 1121 214 l 1
 1121 498 l 1x8470
1216 356 m 0x4008
 1216 424 1256 473 1318 473 c 0
 1380 473 1421 424 1421 356 c 0
 1421 289 1380 240 1318 240 c 0
 1256 240 1216 289 1216 356 c 0x4008
489 356 m 0x11
 489 291 449 244 382 244 c 2
 324 244 l 1
 324 469 l 1
 382 469 l 2
 449 469 489 421 489 356 c 0x11
EndSplineSet
EndChar

StartChar: Idieresis.ss01
Encoding: 65541 -1 119
Width: 1727
GlyphClass: 2
Flags: MW
HStem: 32 182<132 379 290 379 379 423.5 584 782 835 869 1087 1121> 240 233<1287 1349> 244 100<619 772 619 782 619 772> 244 225<324 382 324 382 619 782> 374 95<619 772> 498 170<290 379 290 290 584 584 584 782 835 835 835 867 1088 1088 1088 1121>
VStem: 132 158<214 498 214 668> 324 165<323.5 388.5 323.5 469 323.5 469> 526 58<314.5 397.5> 782 53<214 244 244 244 469 498 214 498> 869 218<214 442 214 442> 1121 58<313.5 399 313.5 498> 1216 205<322.5 390> 1456 139<313.5 399>
LayerCount: 2
Fore
SplineSet
1627 0 m 1x87f4
 1627 700 l 1
 100 700 l 1
 100 0 l 1
 1627 0 l 1x87f4
132 32 m 1
 132 668 l 1
 1595 668 l 1
 1595 32 l 1
 132 32 l 1
1456 356 m 0
 1456 442 1401 503 1318 503 c 0
 1235 503 1179 442 1179 356 c 0
 1179 271 1235 211 1318 211 c 0
 1401 211 1456 271 1456 356 c 0
526 356 m 0
 526 439 468 498 379 498 c 2
 290 498 l 1
 290 214 l 1
 379 214 l 2
 468 214 526 273 526 356 c 0
619 469 m 1x0840
 782 469 l 1x0840
 782 498 l 1
 584 498 l 1
 584 214 l 1
 782 214 l 1x84c0
 782 244 l 1
 619 244 l 1
 619 344 l 1
 772 344 l 1x2040
 772 374 l 1
 619 374 l 1
 619 469 l 1x0840
1121 498 m 1x8470
 1088 498 l 1
 977 362 l 1
 867 498 l 1
 835 498 l 1
 835 214 l 1
 869 214 l 1
 869 442 l 1
 971 318 l 1
 985 318 l 1
 1087 442 l 1
 1087 214 l 1
 1121 214 l 1
 1121 498 l 1x8470
1216 356 m 0x4008
 1216 424 1256 473 1318 473 c 0
 1380 473 1421 424 1421 356 c 0
 1421 289 1380 240 1318 240 c 0
 1256 240 1216 289 1216 356 c 0x4008
489 356 m 0x11
 489 291 449 244 382 244 c 2
 324 244 l 1
 324 469 l 1
 382 469 l 2
 449 469 489 421 489 356 c 0x11
EndSplineSet
EndChar

StartChar: Idotaccent.ss01
Encoding: 65542 -1 120
Width: 1727
GlyphClass: 2
Flags: MW
HStem: 32 182<132 379 290 379 379 423.5 584 782 835 869 1087 1121> 240 233<1287 1349> 244 100<619 772 619 782 619 772> 244 225<324 382 324 382 619 782> 374 95<619 772> 498 170<290 379 290 290 584 584 584 782 835 835 835 867 1088 1088 1088 1121>
VStem: 132 158<214 498 214 668> 324 165<323.5 388.5 323.5 469 323.5 469> 526 58<314.5 397.5> 782 53<214 244 244 244 469 498 214 498> 869 218<214 442 214 442> 1121 58<313.5 399 313.5 498> 1216 205<322.5 390> 1456 139<313.5 399>
LayerCount: 2
Fore
SplineSet
1627 0 m 1x87f4
 1627 700 l 1
 100 700 l 1
 100 0 l 1
 1627 0 l 1x87f4
132 32 m 1
 132 668 l 1
 1595 668 l 1
 1595 32 l 1
 132 32 l 1
1456 356 m 0
 1456 442 1401 503 1318 503 c 0
 1235 503 1179 442 1179 356 c 0
 1179 271 1235 211 1318 211 c 0
 1401 211 1456 271 1456 356 c 0
526 356 m 0
 526 439 468 498 379 498 c 2
 290 498 l 1
 290 214 l 1
 379 214 l 2
 468 214 526 273 526 356 c 0
619 469 m 1x0840
 782 469 l 1x0840
 782 498 l 1
 584 498 l 1
 584 214 l 1
 782 214 l 1x84c0
 782 244 l 1
 619 244 l 1
 619 344 l 1
 772 344 l 1x2040
 772 374 l 1
 619 374 l 1
 619 469 l 1x0840
1121 498 m 1x8470
 1088 498 l 1
 977 362 l 1
 867 498 l 1
 835 498 l 1
 835 214 l 1
 869 214 l 1
 869 442 l 1
 971 318 l 1
 985 318 l 1
 1087 442 l 1
 1087 214 l 1
 1121 214 l 1
 1121 498 l 1x8470
1216 356 m 0x4008
 1216 424 1256 473 1318 473 c 0
 1380 473 1421 424 1421 356 c 0
 1421 289 1380 240 1318 240 c 0
 1256 240 1216 289 1216 356 c 0x4008
489 356 m 0x11
 489 291 449 244 382 244 c 2
 324 244 l 1
 324 469 l 1
 382 469 l 2
 449 469 489 421 489 356 c 0x11
EndSplineSet
EndChar

StartChar: Igrave.ss01
Encoding: 65543 -1 121
Width: 1727
GlyphClass: 2
Flags: MW
HStem: 32 182<132 379 290 379 379 423.5 584 782 835 869 1087 1121> 240 233<1287 1349> 244 100<619 772 619 782 619 772> 244 225<324 382 324 382 619 782> 374 95<619 772> 498 170<290 379 290 290 584 584 584 782 835 835 835 867 1088 1088 1088 1121>
VStem: 132 158<214 498 214 668> 324 165<323.5 388.5 323.5 469 323.5 469> 526 58<314.5 397.5> 782 53<214 244 244 244 469 498 214 498> 869 218<214 442 214 442> 1121 58<313.5 399 313.5 498> 1216 205<322.5 390> 1456 139<313.5 399>
LayerCount: 2
Fore
SplineSet
1627 0 m 1x87f4
 1627 700 l 1
 100 700 l 1
 100 0 l 1
 1627 0 l 1x87f4
132 32 m 1
 132 668 l 1
 1595 668 l 1
 1595 32 l 1
 132 32 l 1
1456 356 m 0
 1456 442 1401 503 1318 503 c 0
 1235 503 1179 442 1179 356 c 0
 1179 271 1235 211 1318 211 c 0
 1401 211 1456 271 1456 356 c 0
526 356 m 0
 526 439 468 498 379 498 c 2
 290 498 l 1
 290 214 l 1
 379 214 l 2
 468 214 526 273 526 356 c 0
619 469 m 1x0840
 782 469 l 1x0840
 782 498 l 1
 584 498 l 1
 584 214 l 1
 782 214 l 1x84c0
 782 244 l 1
 619 244 l 1
 619 344 l 1
 772 344 l 1x2040
 772 374 l 1
 619 374 l 1
 619 469 l 1x0840
1121 498 m 1x8470
 1088 498 l 1
 977 362 l 1
 867 498 l 1
 835 498 l 1
 835 214 l 1
 869 214 l 1
 869 442 l 1
 971 318 l 1
 985 318 l 1
 1087 442 l 1
 1087 214 l 1
 1121 214 l 1
 1121 498 l 1x8470
1216 356 m 0x4008
 1216 424 1256 473 1318 473 c 0
 1380 473 1421 424 1421 356 c 0
 1421 289 1380 240 1318 240 c 0
 1256 240 1216 289 1216 356 c 0x4008
489 356 m 0x11
 489 291 449 244 382 244 c 2
 324 244 l 1
 324 469 l 1
 382 469 l 2
 449 469 489 421 489 356 c 0x11
EndSplineSet
EndChar

StartChar: Imacron.ss01
Encoding: 65544 -1 122
Width: 1727
GlyphClass: 2
Flags: MW
HStem: 32 182<132 379 290 379 379 423.5 584 782 835 869 1087 1121> 240 233<1287 1349> 244 100<619 772 619 782 619 772> 244 225<324 382 324 382 619 782> 374 95<619 772> 498 170<290 379 290 290 584 584 584 782 835 835 835 867 1088 1088 1088 1121>
VStem: 132 158<214 498 214 668> 324 165<323.5 388.5 323.5 469 323.5 469> 526 58<314.5 397.5> 782 53<214 244 244 244 469 498 214 498> 869 218<214 442 214 442> 1121 58<313.5 399 313.5 498> 1216 205<322.5 390> 1456 139<313.5 399>
LayerCount: 2
Fore
SplineSet
1627 0 m 1x87f4
 1627 700 l 1
 100 700 l 1
 100 0 l 1
 1627 0 l 1x87f4
132 32 m 1
 132 668 l 1
 1595 668 l 1
 1595 32 l 1
 132 32 l 1
1456 356 m 0
 1456 442 1401 503 1318 503 c 0
 1235 503 1179 442 1179 356 c 0
 1179 271 1235 211 1318 211 c 0
 1401 211 1456 271 1456 356 c 0
526 356 m 0
 526 439 468 498 379 498 c 2
 290 498 l 1
 290 214 l 1
 379 214 l 2
 468 214 526 273 526 356 c 0
619 469 m 1x0840
 782 469 l 1x0840
 782 498 l 1
 584 498 l 1
 584 214 l 1
 782 214 l 1x84c0
 782 244 l 1
 619 244 l 1
 619 344 l 1
 772 344 l 1x2040
 772 374 l 1
 619 374 l 1
 619 469 l 1x0840
1121 498 m 1x8470
 1088 498 l 1
 977 362 l 1
 867 498 l 1
 835 498 l 1
 835 214 l 1
 869 214 l 1
 869 442 l 1
 971 318 l 1
 985 318 l 1
 1087 442 l 1
 1087 214 l 1
 1121 214 l 1
 1121 498 l 1x8470
1216 356 m 0x4008
 1216 424 1256 473 1318 473 c 0
 1380 473 1421 424 1421 356 c 0
 1421 289 1380 240 1318 240 c 0
 1256 240 1216 289 1216 356 c 0x4008
489 356 m 0x11
 489 291 449 244 382 244 c 2
 324 244 l 1
 324 469 l 1
 382 469 l 2
 449 469 489 421 489 356 c 0x11
EndSplineSet
EndChar

StartChar: Iogonek.ss01
Encoding: 65545 -1 123
Width: 1727
GlyphClass: 2
Flags: MW
HStem: 32 182<132 379 290 379 379 423.5 584 782 835 869 1087 1121> 240 233<1287 1349> 244 100<619 772 619 782 619 772> 244 225<324 382 324 382 619 782> 374 95<619 772> 498 170<290 379 290 290 584 584 584 782 835 835 835 867 1088 1088 1088 1121>
VStem: 132 158<214 498 214 668> 324 165<323.5 388.5 323.5 469 323.5 469> 526 58<314.5 397.5> 782 53<214 244 244 244 469 498 214 498> 869 218<214 442 214 442> 1121 58<313.5 399 313.5 498> 1216 205<322.5 390> 1456 139<313.5 399>
LayerCount: 2
Fore
SplineSet
1627 0 m 1x87f4
 1627 700 l 1
 100 700 l 1
 100 0 l 1
 1627 0 l 1x87f4
132 32 m 1
 132 668 l 1
 1595 668 l 1
 1595 32 l 1
 132 32 l 1
1456 356 m 0
 1456 442 1401 503 1318 503 c 0
 1235 503 1179 442 1179 356 c 0
 1179 271 1235 211 1318 211 c 0
 1401 211 1456 271 1456 356 c 0
526 356 m 0
 526 439 468 498 379 498 c 2
 290 498 l 1
 290 214 l 1
 379 214 l 2
 468 214 526 273 526 356 c 0
619 469 m 1x0840
 782 469 l 1x0840
 782 498 l 1
 584 498 l 1
 584 214 l 1
 782 214 l 1x84c0
 782 244 l 1
 619 244 l 1
 619 344 l 1
 772 344 l 1x2040
 772 374 l 1
 619 374 l 1
 619 469 l 1x0840
1121 498 m 1x8470
 1088 498 l 1
 977 362 l 1
 867 498 l 1
 835 498 l 1
 835 214 l 1
 869 214 l 1
 869 442 l 1
 971 318 l 1
 985 318 l 1
 1087 442 l 1
 1087 214 l 1
 1121 214 l 1
 1121 498 l 1x8470
1216 356 m 0x4008
 1216 424 1256 473 1318 473 c 0
 1380 473 1421 424 1421 356 c 0
 1421 289 1380 240 1318 240 c 0
 1256 240 1216 289 1216 356 c 0x4008
489 356 m 0x11
 489 291 449 244 382 244 c 2
 324 244 l 1
 324 469 l 1
 382 469 l 2
 449 469 489 421 489 356 c 0x11
EndSplineSet
EndChar

StartChar: IJ.ss02
Encoding: 65546 -1 124
Width: 1727
GlyphClass: 2
Flags: MW
HStem: 32 182<132 379 290 379 379 423.5 584 782 835 869 1087 1121> 240 233<1287 1349> 244 100<619 772 619 782 619 772> 244 225<324 382 324 382 619 782> 374 95<619 772> 498 170<290 379 290 290 584 584 584 782 835 835 835 867 1088 1088 1088 1121>
VStem: 132 158<214 498 214 668> 324 165<323.5 388.5 323.5 469 323.5 469> 526 58<314.5 397.5> 782 53<214 244 244 244 469 498 214 498> 869 218<214 442 214 442> 1121 58<313.5 399 313.5 498> 1216 205<322.5 390> 1456 139<313.5 399>
LayerCount: 2
Fore
SplineSet
1627 0 m 1x87f4
 1627 700 l 1
 100 700 l 1
 100 0 l 1
 1627 0 l 1x87f4
132 32 m 1
 132 668 l 1
 1595 668 l 1
 1595 32 l 1
 132 32 l 1
1456 356 m 0
 1456 442 1401 503 1318 503 c 0
 1235 503 1179 442 1179 356 c 0
 1179 271 1235 211 1318 211 c 0
 1401 211 1456 271 1456 356 c 0
526 356 m 0
 526 439 468 498 379 498 c 2
 290 498 l 1
 290 214 l 1
 379 214 l 2
 468 214 526 273 526 356 c 0
619 469 m 1x0840
 782 469 l 1x0840
 782 498 l 1
 584 498 l 1
 584 214 l 1
 782 214 l 1x84c0
 782 244 l 1
 619 244 l 1
 619 344 l 1
 772 344 l 1x2040
 772 374 l 1
 619 374 l 1
 619 469 l 1x0840
1121 498 m 1x8470
 1088 498 l 1
 977 362 l 1
 867 498 l 1
 835 498 l 1
 835 214 l 1
 869 214 l 1
 869 442 l 1
 971 318 l 1
 985 318 l 1
 1087 442 l 1
 1087 214 l 1
 1121 214 l 1
 1121 498 l 1x8470
1216 356 m 0x4008
 1216 424 1256 473 1318 473 c 0
 1380 473 1421 424 1421 356 c 0
 1421 289 1380 240 1318 240 c 0
 1256 240 1216 289 1216 356 c 0x4008
489 356 m 0x11
 489 291 449 244 382 244 c 2
 324 244 l 1
 324 469 l 1
 382 469 l 2
 449 469 489 421 489 356 c 0x11
EndSplineSet
Substitution2: "'case' Case-Sensitive Forms in Latin lookup 20 subtable" IJ.ss02.case
Substitution2: "'aalt' Access All Alternates in Latin lookup 0 subtable" IJ.ss02.case
EndChar

StartChar: J.ss02
Encoding: 65547 -1 125
Width: 1727
GlyphClass: 2
Flags: MW
HStem: 32 182<132 379 290 379 379 423.5 584 782 835 869 1087 1121> 240 233<1287 1349> 244 100<619 772 619 782 619 772> 244 225<324 382 324 382 619 782> 374 95<619 772> 498 170<290 379 290 290 584 584 584 782 835 835 835 867 1088 1088 1088 1121>
VStem: 132 158<214 498 214 668> 324 165<323.5 388.5 323.5 469 323.5 469> 526 58<314.5 397.5> 782 53<214 244 244 244 469 498 214 498> 869 218<214 442 214 442> 1121 58<313.5 399 313.5 498> 1216 205<322.5 390> 1456 139<313.5 399>
LayerCount: 2
Fore
SplineSet
1627 0 m 1x87f4
 1627 700 l 1
 100 700 l 1
 100 0 l 1
 1627 0 l 1x87f4
132 32 m 1
 132 668 l 1
 1595 668 l 1
 1595 32 l 1
 132 32 l 1
1456 356 m 0
 1456 442 1401 503 1318 503 c 0
 1235 503 1179 442 1179 356 c 0
 1179 271 1235 211 1318 211 c 0
 1401 211 1456 271 1456 356 c 0
526 356 m 0
 526 439 468 498 379 498 c 2
 290 498 l 1
 290 214 l 1
 379 214 l 2
 468 214 526 273 526 356 c 0
619 469 m 1x0840
 782 469 l 1x0840
 782 498 l 1
 584 498 l 1
 584 214 l 1
 782 214 l 1x84c0
 782 244 l 1
 619 244 l 1
 619 344 l 1
 772 344 l 1x2040
 772 374 l 1
 619 374 l 1
 619 469 l 1x0840
1121 498 m 1x8470
 1088 498 l 1
 977 362 l 1
 867 498 l 1
 835 498 l 1
 835 214 l 1
 869 214 l 1
 869 442 l 1
 971 318 l 1
 985 318 l 1
 1087 442 l 1
 1087 214 l 1
 1121 214 l 1
 1121 498 l 1x8470
1216 356 m 0x4008
 1216 424 1256 473 1318 473 c 0
 1380 473 1421 424 1421 356 c 0
 1421 289 1380 240 1318 240 c 0
 1256 240 1216 289 1216 356 c 0x4008
489 356 m 0x11
 489 291 449 244 382 244 c 2
 324 244 l 1
 324 469 l 1
 382 469 l 2
 449 469 489 421 489 356 c 0x11
EndSplineSet
EndChar

StartChar: Q.ss03
Encoding: 65548 -1 126
Width: 1727
GlyphClass: 2
Flags: MW
HStem: 32 182<132 379 290 379 379 423.5 584 782 835 869 1087 1121> 240 233<1287 1349> 244 100<619 772 619 782 619 772> 244 225<324 382 324 382 619 782> 374 95<619 772> 498 170<290 379 290 290 584 584 584 782 835 835 835 867 1088 1088 1088 1121>
VStem: 132 158<214 498 214 668> 324 165<323.5 388.5 323.5 469 323.5 469> 526 58<314.5 397.5> 782 53<214 244 244 244 469 498 214 498> 869 218<214 442 214 442> 1121 58<313.5 399 313.5 498> 1216 205<322.5 390> 1456 139<313.5 399>
LayerCount: 2
Fore
SplineSet
1627 0 m 1x87f4
 1627 700 l 1
 100 700 l 1
 100 0 l 1
 1627 0 l 1x87f4
132 32 m 1
 132 668 l 1
 1595 668 l 1
 1595 32 l 1
 132 32 l 1
1456 356 m 0
 1456 442 1401 503 1318 503 c 0
 1235 503 1179 442 1179 356 c 0
 1179 271 1235 211 1318 211 c 0
 1401 211 1456 271 1456 356 c 0
526 356 m 0
 526 439 468 498 379 498 c 2
 290 498 l 1
 290 214 l 1
 379 214 l 2
 468 214 526 273 526 356 c 0
619 469 m 1x0840
 782 469 l 1x0840
 782 498 l 1
 584 498 l 1
 584 214 l 1
 782 214 l 1x84c0
 782 244 l 1
 619 244 l 1
 619 344 l 1
 772 344 l 1x2040
 772 374 l 1
 619 374 l 1
 619 469 l 1x0840
1121 498 m 1x8470
 1088 498 l 1
 977 362 l 1
 867 498 l 1
 835 498 l 1
 835 214 l 1
 869 214 l 1
 869 442 l 1
 971 318 l 1
 985 318 l 1
 1087 442 l 1
 1087 214 l 1
 1121 214 l 1
 1121 498 l 1x8470
1216 356 m 0x4008
 1216 424 1256 473 1318 473 c 0
 1380 473 1421 424 1421 356 c 0
 1421 289 1380 240 1318 240 c 0
 1256 240 1216 289 1216 356 c 0x4008
489 356 m 0x11
 489 291 449 244 382 244 c 2
 324 244 l 1
 324 469 l 1
 382 469 l 2
 449 469 489 421 489 356 c 0x11
EndSplineSet
EndChar

StartChar: R.ss04
Encoding: 65549 -1 127
Width: 1727
GlyphClass: 2
Flags: MW
HStem: 32 182<132 379 290 379 379 423.5 584 782 835 869 1087 1121> 240 233<1287 1349> 244 100<619 772 619 782 619 772> 244 225<324 382 324 382 619 782> 374 95<619 772> 498 170<290 379 290 290 584 584 584 782 835 835 835 867 1088 1088 1088 1121>
VStem: 132 158<214 498 214 668> 324 165<323.5 388.5 323.5 469 323.5 469> 526 58<314.5 397.5> 782 53<214 244 244 244 469 498 214 498> 869 218<214 442 214 442> 1121 58<313.5 399 313.5 498> 1216 205<322.5 390> 1456 139<313.5 399>
LayerCount: 2
Fore
SplineSet
1627 0 m 1x87f4
 1627 700 l 1
 100 700 l 1
 100 0 l 1
 1627 0 l 1x87f4
132 32 m 1
 132 668 l 1
 1595 668 l 1
 1595 32 l 1
 132 32 l 1
1456 356 m 0
 1456 442 1401 503 1318 503 c 0
 1235 503 1179 442 1179 356 c 0
 1179 271 1235 211 1318 211 c 0
 1401 211 1456 271 1456 356 c 0
526 356 m 0
 526 439 468 498 379 498 c 2
 290 498 l 1
 290 214 l 1
 379 214 l 2
 468 214 526 273 526 356 c 0
619 469 m 1x0840
 782 469 l 1x0840
 782 498 l 1
 584 498 l 1
 584 214 l 1
 782 214 l 1x84c0
 782 244 l 1
 619 244 l 1
 619 344 l 1
 772 344 l 1x2040
 772 374 l 1
 619 374 l 1
 619 469 l 1x0840
1121 498 m 1x8470
 1088 498 l 1
 977 362 l 1
 867 498 l 1
 835 498 l 1
 835 214 l 1
 869 214 l 1
 869 442 l 1
 971 318 l 1
 985 318 l 1
 1087 442 l 1
 1087 214 l 1
 1121 214 l 1
 1121 498 l 1x8470
1216 356 m 0x4008
 1216 424 1256 473 1318 473 c 0
 1380 473 1421 424 1421 356 c 0
 1421 289 1380 240 1318 240 c 0
 1256 240 1216 289 1216 356 c 0x4008
489 356 m 0x11
 489 291 449 244 382 244 c 2
 324 244 l 1
 324 469 l 1
 382 469 l 2
 449 469 489 421 489 356 c 0x11
EndSplineSet
EndChar

StartChar: Racute.ss04
Encoding: 65550 -1 128
Width: 1727
GlyphClass: 2
Flags: MW
HStem: 32 182<132 379 290 379 379 423.5 584 782 835 869 1087 1121> 240 233<1287 1349> 244 100<619 772 619 782 619 772> 244 225<324 382 324 382 619 782> 374 95<619 772> 498 170<290 379 290 290 584 584 584 782 835 835 835 867 1088 1088 1088 1121>
VStem: 132 158<214 498 214 668> 324 165<323.5 388.5 323.5 469 323.5 469> 526 58<314.5 397.5> 782 53<214 244 244 244 469 498 214 498> 869 218<214 442 214 442> 1121 58<313.5 399 313.5 498> 1216 205<322.5 390> 1456 139<313.5 399>
LayerCount: 2
Fore
SplineSet
1627 0 m 1x87f4
 1627 700 l 1
 100 700 l 1
 100 0 l 1
 1627 0 l 1x87f4
132 32 m 1
 132 668 l 1
 1595 668 l 1
 1595 32 l 1
 132 32 l 1
1456 356 m 0
 1456 442 1401 503 1318 503 c 0
 1235 503 1179 442 1179 356 c 0
 1179 271 1235 211 1318 211 c 0
 1401 211 1456 271 1456 356 c 0
526 356 m 0
 526 439 468 498 379 498 c 2
 290 498 l 1
 290 214 l 1
 379 214 l 2
 468 214 526 273 526 356 c 0
619 469 m 1x0840
 782 469 l 1x0840
 782 498 l 1
 584 498 l 1
 584 214 l 1
 782 214 l 1x84c0
 782 244 l 1
 619 244 l 1
 619 344 l 1
 772 344 l 1x2040
 772 374 l 1
 619 374 l 1
 619 469 l 1x0840
1121 498 m 1x8470
 1088 498 l 1
 977 362 l 1
 867 498 l 1
 835 498 l 1
 835 214 l 1
 869 214 l 1
 869 442 l 1
 971 318 l 1
 985 318 l 1
 1087 442 l 1
 1087 214 l 1
 1121 214 l 1
 1121 498 l 1x8470
1216 356 m 0x4008
 1216 424 1256 473 1318 473 c 0
 1380 473 1421 424 1421 356 c 0
 1421 289 1380 240 1318 240 c 0
 1256 240 1216 289 1216 356 c 0x4008
489 356 m 0x11
 489 291 449 244 382 244 c 2
 324 244 l 1
 324 469 l 1
 382 469 l 2
 449 469 489 421 489 356 c 0x11
EndSplineSet
EndChar

StartChar: Rcaron.ss04
Encoding: 65551 -1 129
Width: 1727
GlyphClass: 2
Flags: MW
HStem: 32 182<132 379 290 379 379 423.5 584 782 835 869 1087 1121> 240 233<1287 1349> 244 100<619 772 619 782 619 772> 244 225<324 382 324 382 619 782> 374 95<619 772> 498 170<290 379 290 290 584 584 584 782 835 835 835 867 1088 1088 1088 1121>
VStem: 132 158<214 498 214 668> 324 165<323.5 388.5 323.5 469 323.5 469> 526 58<314.5 397.5> 782 53<214 244 244 244 469 498 214 498> 869 218<214 442 214 442> 1121 58<313.5 399 313.5 498> 1216 205<322.5 390> 1456 139<313.5 399>
LayerCount: 2
Fore
SplineSet
1627 0 m 1x87f4
 1627 700 l 1
 100 700 l 1
 100 0 l 1
 1627 0 l 1x87f4
132 32 m 1
 132 668 l 1
 1595 668 l 1
 1595 32 l 1
 132 32 l 1
1456 356 m 0
 1456 442 1401 503 1318 503 c 0
 1235 503 1179 442 1179 356 c 0
 1179 271 1235 211 1318 211 c 0
 1401 211 1456 271 1456 356 c 0
526 356 m 0
 526 439 468 498 379 498 c 2
 290 498 l 1
 290 214 l 1
 379 214 l 2
 468 214 526 273 526 356 c 0
619 469 m 1x0840
 782 469 l 1x0840
 782 498 l 1
 584 498 l 1
 584 214 l 1
 782 214 l 1x84c0
 782 244 l 1
 619 244 l 1
 619 344 l 1
 772 344 l 1x2040
 772 374 l 1
 619 374 l 1
 619 469 l 1x0840
1121 498 m 1x8470
 1088 498 l 1
 977 362 l 1
 867 498 l 1
 835 498 l 1
 835 214 l 1
 869 214 l 1
 869 442 l 1
 971 318 l 1
 985 318 l 1
 1087 442 l 1
 1087 214 l 1
 1121 214 l 1
 1121 498 l 1x8470
1216 356 m 0x4008
 1216 424 1256 473 1318 473 c 0
 1380 473 1421 424 1421 356 c 0
 1421 289 1380 240 1318 240 c 0
 1256 240 1216 289 1216 356 c 0x4008
489 356 m 0x11
 489 291 449 244 382 244 c 2
 324 244 l 1
 324 469 l 1
 382 469 l 2
 449 469 489 421 489 356 c 0x11
EndSplineSet
EndChar

